<svg width="64" height="65" viewBox="0 0 64 65" fill="none" xmlns="http://www.w3.org/2000/svg">
<circle cx="31.5556" cy="32.9442" r="31.5556" fill="#FAC3C8"/>
<mask id="mask0_1348_10118" style="mask-type:luminance" maskUnits="userSpaceOnUse" x="9" y="24" width="44" height="38">
<path fill-rule="evenodd" clip-rule="evenodd" d="M9.06714 24.3511H52.3477V61.2673H9.06714V24.3511Z" fill="white"/>
</mask>
<g mask="url(#mask0_1348_10118)">
<path fill-rule="evenodd" clip-rule="evenodd" d="M50.5614 53.0061C50.3498 54.2932 49.5632 55.2665 48.9161 56.3288C48.5898 56.8665 48.2147 57.3474 47.7667 57.7696C47.1738 58.3279 46.4876 58.7376 45.7312 59.0683C44.7187 59.511 43.6583 59.5643 42.5952 59.6461C41.6458 59.719 40.6929 59.7616 39.7409 59.7928C39.3845 59.8052 39.0272 59.7376 38.6681 59.7261C38.0921 59.7065 37.5143 59.6976 36.9365 59.6968C35.8538 59.6941 34.7703 59.6976 33.6876 59.7012C33.0432 59.7039 32.3996 59.7083 31.7578 59.7136C31.0138 59.7216 30.2716 59.7421 29.5276 59.7421C28.6138 59.7421 27.6992 59.7288 26.7836 59.719C25.3205 59.7021 23.8556 59.7065 22.3925 59.6559C21.6965 59.6301 21.0032 59.4923 20.3081 59.4203C19.0094 59.287 17.7818 58.8603 16.5401 58.4976C16.2085 58.4025 15.8903 58.2363 15.5934 58.0568C14.4956 57.4007 13.3454 56.7919 12.5667 55.7376C11.8618 54.7848 11.0983 53.8328 10.8494 52.6452C10.6912 51.8976 10.6832 51.1101 10.6805 50.3412C10.6761 49.2736 10.9285 48.2408 11.2538 47.2265C11.6014 46.1385 11.9312 45.0434 12.3125 43.9661C12.5969 43.1661 12.9534 42.3901 13.2787 41.6025C13.4921 41.0888 13.6778 40.5608 13.9267 40.0648C14.4858 38.9536 15.0423 37.8363 15.6663 36.7616C16.1427 35.9403 16.6992 35.1616 17.2627 34.3954C17.7329 33.7545 18.2609 33.1554 18.7694 32.543C18.8876 32.399 19.0201 32.2656 19.1552 32.1385C19.9347 31.4105 20.6992 30.6683 21.4992 29.9643C22.9009 28.7314 24.4645 27.7332 26.1294 26.8994C27.5445 26.191 29.0423 25.7359 30.6254 25.5865C31.0521 25.5465 31.4787 25.495 31.9054 25.4612C32.2192 25.4354 32.5196 25.4399 32.8085 25.6399C32.9534 25.7412 33.1916 25.7074 33.3872 25.7332C34.1418 25.8328 34.8636 26.0568 35.5312 26.4159C36.5427 26.9581 37.5498 27.5128 38.5329 28.1048C38.9987 28.3839 39.413 28.751 39.8378 29.0968C40.4396 29.5839 41.0654 30.0514 41.6174 30.5919C42.2761 31.239 42.8867 31.9376 43.4805 32.6443C43.9667 33.2221 44.4121 33.8372 44.8485 34.4541C45.2387 35.0061 45.5961 35.583 45.9623 36.1519C46.2921 36.6612 46.6414 37.1616 46.9347 37.6923C47.3543 38.4559 47.7303 39.2434 48.1258 40.0194C48.3809 40.5199 48.6512 41.0114 48.8894 41.5199C49.0796 41.9234 49.2334 42.3448 49.3952 42.7634C49.4938 43.0194 49.581 43.2799 49.6654 43.5421C49.9205 44.3305 50.2076 45.111 50.4121 45.9145C50.597 46.6363 50.6885 47.383 50.8209 48.1199C50.8574 48.3243 50.8921 48.527 50.9294 48.7296C50.9463 48.7323 50.9632 48.7341 50.9801 48.7368C50.9801 49.3492 50.9614 49.9625 50.9836 50.575C51.0138 51.4185 50.6956 52.1945 50.5614 53.0061ZM52.3401 49.3286C52.2956 48.5846 52.2627 47.8379 52.157 47.1046C52.0432 46.3241 51.8956 45.5419 51.6796 44.7846C51.3703 43.6904 51.0076 42.6086 50.6236 41.5366C50.4076 40.9366 50.1134 40.3641 49.8387 39.7873C49.5107 39.0993 49.1881 38.4095 48.8236 37.7401C48.4681 37.0877 48.0627 36.4628 47.6805 35.8246C47.4512 35.4433 47.2503 35.0415 46.9934 34.6797C46.4467 33.9073 45.8974 33.1375 45.3063 32.4006C44.6654 31.6006 44.0245 30.7917 43.2965 30.0761C42.4583 29.2521 41.5552 28.4859 40.6227 27.7695C39.813 27.1437 38.9454 26.5837 38.061 26.0646C37.3934 25.6735 36.6743 25.3579 35.9534 25.0735C34.9267 24.6664 33.8183 24.6175 32.7392 24.4477C31.7241 24.2877 30.7081 24.3481 29.6885 24.4717C28.3854 24.6308 27.133 24.949 25.9365 25.4806C24.733 26.013 23.5587 26.6006 22.4912 27.3801C21.725 27.941 20.9356 28.4761 20.2005 29.0761C19.6005 29.5677 19.053 30.1259 18.5036 30.6761C17.9001 31.2824 17.2832 31.8806 16.7454 32.541C16.0974 33.3357 15.5099 34.1819 14.9285 35.0264C14.5641 35.5544 14.2343 36.1108 13.9241 36.6726C13.4707 37.4966 13.0201 38.325 12.621 39.1766C12.2005 40.0726 11.8379 40.997 11.4565 41.9126C11.1934 42.5437 10.9152 43.1704 10.685 43.8139C10.4103 44.5846 10.1561 45.3633 9.93119 46.149C9.68319 47.0184 9.43697 47.8904 9.26719 48.7757C9.13564 49.4637 9.12141 50.1748 9.06719 50.7393C9.06453 51.8753 9.16053 52.869 9.57919 53.7793C9.95608 54.6006 10.4139 55.389 10.8983 56.1526C11.1801 56.5953 11.5596 56.9864 11.941 57.3508C12.2983 57.6939 12.709 57.9819 13.1116 58.2726C13.5943 58.6193 14.0752 58.9793 14.5934 59.2681C15.4414 59.7419 16.3525 60.0708 17.2894 60.3357C18.5161 60.6824 19.7481 60.9979 21.0227 61.0895C21.8725 61.1499 22.7276 61.1419 23.5801 61.1641C24.5712 61.1908 25.5641 61.2273 26.5561 61.2415C27.7659 61.2602 28.9774 61.2744 30.1872 61.2637C31.1196 61.2575 32.0503 61.1979 32.9819 61.1855C34.8165 61.1588 36.6521 61.1473 38.4876 61.1321C39.5819 61.1233 40.6761 61.1188 41.7694 61.1081C41.9863 61.1064 42.2032 61.0939 42.4174 61.0681C42.8441 61.0193 43.2734 60.9784 43.6965 60.8966C44.4805 60.7446 45.2939 60.6539 46.0316 60.3713C46.701 60.1144 47.3356 59.6975 47.8939 59.2415C48.5356 58.7144 49.1614 58.1259 49.6414 57.4557C50.229 56.6362 50.6983 55.7215 51.1445 54.8113C51.4005 54.2877 51.5223 53.6948 51.685 53.1268C51.7667 52.8424 51.797 52.541 51.8619 52.2513C51.8921 52.1161 51.9659 51.9908 51.997 51.8548C52.1801 51.0228 52.3907 50.1899 52.3401 49.3286Z" fill="#1D1D1B"/>
</g>
<mask id="mask1_1348_10118" style="mask-type:luminance" maskUnits="userSpaceOnUse" x="14" y="0" width="15" height="20">
<path fill-rule="evenodd" clip-rule="evenodd" d="M14.6902 0.5H28.7652V19.5279H14.6902V0.5Z" fill="white"/>
</mask>
<g mask="url(#mask1_1348_10118)">
<path fill-rule="evenodd" clip-rule="evenodd" d="M27.1518 12.1216C27.1233 13.3243 26.8789 14.4896 26.2531 15.5287C25.614 16.5954 24.7926 17.4869 23.5055 17.7669C23.1304 17.8487 22.7402 17.8541 22.3518 17.8949C21.4344 17.8078 20.6149 17.5092 19.8371 16.9927C19.0175 16.4496 18.4442 15.7003 17.8833 14.9403C17.5402 14.4754 17.3046 13.9243 17.0629 13.3936C16.8469 12.9198 16.6513 12.4327 16.51 11.9332C16.2246 10.9163 16.1766 9.86917 16.3073 8.82383C16.4006 8.07894 16.4833 7.3225 16.6824 6.60339C16.9029 5.80428 17.2442 5.03983 17.5482 4.2665C17.8104 3.59983 18.2362 3.06294 18.8389 2.65761C19.4086 2.27361 20.0229 1.99272 20.7038 1.94383C21.2878 1.90294 21.9038 1.86028 22.4584 2.00161C22.9446 2.12428 23.3838 2.4745 23.8095 2.77139C24.8024 3.46739 25.3784 4.49139 25.8478 5.56517C26.3766 6.78028 26.7642 8.04694 26.9224 9.37228C26.9633 9.7145 27.0513 10.0514 27.0771 10.3936C27.1224 10.9678 27.1642 11.5456 27.1518 12.1216ZM28.5875 9.69038C28.4123 8.71526 28.2292 7.74282 27.9128 6.78638C27.5857 5.80415 27.1972 4.87171 26.7057 3.9686C26.191 3.02371 25.5128 2.21393 24.6532 1.58193C24.1768 1.22904 23.6363 0.925042 23.0781 0.736597C22.5519 0.55882 21.9617 0.479708 21.4052 0.503708C20.8603 0.529486 20.3217 0.737486 19.7812 0.866375C18.4541 1.18104 17.4586 1.97571 16.7439 3.10015C16.2657 3.85304 15.799 4.63971 15.4932 5.47082C14.9697 6.89571 14.6781 8.37749 14.6906 9.91971C14.6977 10.845 14.7875 11.7553 15.0515 12.6255C15.2906 13.4148 15.6426 14.1793 16.0221 14.9144C16.3483 15.5473 16.7483 16.1517 17.1821 16.7162C17.5075 17.1384 17.9821 17.4442 18.3137 17.8637C18.751 18.4175 19.3723 18.7082 19.9528 19.0024C20.7723 19.4175 21.7066 19.5277 22.6603 19.5277C23.4559 19.4877 24.2515 19.3162 24.9839 18.9517C25.3928 18.7473 25.7688 18.4655 26.1306 18.1828C26.7972 17.6637 27.3448 17.0175 27.7199 16.2735C28.1101 15.5002 28.407 14.685 28.5679 13.8104C28.8212 12.4282 28.8337 11.0566 28.5875 9.69038Z" fill="#1D1D1B"/>
</g>
<path fill-rule="evenodd" clip-rule="evenodd" d="M12.0636 29.0411C11.6689 29.8145 11.2058 30.5834 10.4111 31.058C10.1436 31.2189 9.90267 31.4269 9.63067 31.5807C8.99156 31.9416 8.28045 31.9834 7.56312 32.0136C6.70445 31.9896 5.87601 31.8402 5.18534 31.2811C4.70979 30.8962 4.21645 30.5131 3.81912 30.0536C3.07956 29.2002 2.45556 28.2536 2.1169 27.1665C1.77556 26.0678 1.54001 24.9407 1.55334 23.7789C1.56134 23.0607 1.46623 22.3256 1.58801 21.6278C1.79156 20.49 2.03334 19.338 2.64579 18.3309C2.89645 17.9176 3.25201 17.5629 3.59512 17.218C3.70001 17.1122 3.92401 17.114 4.09734 17.0936C4.28667 17.0731 4.49023 17.1194 4.67334 17.0767C5.55334 16.8687 6.44756 16.7194 7.32667 16.9789C8.02001 17.1842 8.6209 17.586 9.15067 18.1069C9.9169 18.8642 10.4991 19.7362 10.9222 20.7149C11.2129 21.3842 11.5053 22.058 11.7213 22.7531C12.0147 23.7025 12.364 24.6634 12.452 25.6394C12.5551 26.7745 12.604 27.9789 12.0636 29.0411ZM14.0991 25.617C14.0315 25.1841 13.9978 24.7432 13.8973 24.3184C13.7595 23.7281 13.5844 23.1459 13.4049 22.5664C13.2244 21.9815 13.0609 21.3841 12.8129 20.8268C12.5267 20.1841 12.1738 19.5699 11.82 18.9584C11.5942 18.5699 11.3667 18.1628 11.0547 17.8464C10.4733 17.2544 9.8751 16.657 9.19865 16.1815C8.31243 15.5584 7.32132 15.1646 6.18265 15.4019C5.84487 15.4739 5.49287 15.4784 5.14621 15.5139C5.14621 15.5068 5.14443 15.4997 5.14443 15.4926C5.07421 15.497 5.00399 15.4997 4.93465 15.5032C3.99865 15.5646 3.25199 16.0472 2.57021 16.6259C2.19421 16.9477 1.83776 17.3175 1.56399 17.7281C1.01199 18.5548 0.67243 19.481 0.402208 20.4419C0.0857631 21.5646 -0.0129035 22.7112 0.0013187 23.8615C0.0093187 24.5548 0.19243 25.2437 0.26443 25.9379C0.346208 26.7379 0.594208 27.4899 0.882208 28.2286C1.2831 29.2535 1.87865 30.1592 2.57287 31.017C3.13199 31.7077 3.74443 32.3201 4.50087 32.7797C4.93376 33.041 5.35776 33.3317 5.88754 33.3975C6.40665 33.4624 6.92221 33.5779 7.44398 33.6268C7.7391 33.6544 8.04221 33.585 8.34176 33.5752C9.06621 33.5495 9.76932 33.3921 10.3898 33.0357C11.5622 32.3637 12.6075 31.561 13.2395 30.2935C13.5213 29.7281 13.796 29.1717 13.9355 28.5619C14.1551 27.593 14.2538 26.6117 14.0991 25.617Z" fill="#1D1D1B"/>
<mask id="mask2_1348_10118" style="mask-type:luminance" maskUnits="userSpaceOnUse" x="48" y="15" width="15" height="20">
<path fill-rule="evenodd" clip-rule="evenodd" d="M48.0513 15.8423H62.8662V34.7319H48.0513V15.8423Z" fill="white"/>
</mask>
<g mask="url(#mask2_1348_10118)">
<path fill-rule="evenodd" clip-rule="evenodd" d="M60.8408 27.2776C60.5777 28.2625 60.2026 29.21 59.5742 30.0456C58.7422 31.154 57.7706 32.0936 56.5404 32.7487C55.9955 33.0385 55.4204 33.2811 54.7928 33.2367C54.4177 33.2118 54.0302 33.1149 53.6817 32.9691C52.888 32.6385 52.1591 32.1931 51.5066 31.6216C50.6711 30.8865 50.1093 29.9789 49.8248 28.9158C49.6613 28.3043 49.5991 27.666 49.4924 27.0394C49.5404 25.7354 49.8391 24.5087 50.2737 23.3016C50.7315 22.0278 51.2568 20.7816 52.1715 19.7718C52.7591 19.1211 53.4657 18.5771 54.1351 18.0038C54.3697 17.802 54.6577 17.6634 54.9155 17.4856C55.7351 16.9194 56.6275 16.9843 57.5351 17.1825C58.7404 17.4474 59.6124 18.1683 60.2364 19.2083C60.5475 19.7238 60.9137 20.2278 61.1066 20.7887C61.344 21.4731 61.424 22.1967 61.4266 22.9478C61.4328 24.4269 61.2168 25.8634 60.8408 27.2776ZM62.783 23.2509C62.783 23.0518 62.7955 22.8535 62.7804 22.6544C62.7173 21.794 62.6693 20.9184 62.2675 20.138C61.9075 19.4367 61.4933 18.7584 61.0506 18.1042C60.3173 17.0153 59.2648 16.3202 58.015 15.9949C56.8195 15.6838 55.655 15.866 54.5039 16.3815C53.0408 17.0375 51.8506 18.0055 50.8328 19.2127C50.199 19.9647 49.7359 20.8304 49.3679 21.7318C48.9786 22.6873 48.591 23.6562 48.351 24.6544C48.1377 25.538 48.0462 26.4704 48.0515 27.3807C48.0559 28.4527 48.3342 29.5033 48.7768 30.4838C49.0079 30.9958 49.3315 31.4749 49.6702 31.9282C50.2799 32.7424 51.1146 33.3007 51.9617 33.8429C52.7217 34.3318 53.5733 34.5584 54.4444 34.6918C55.7057 34.8864 56.7973 34.3424 57.8177 33.7175C58.4622 33.3247 59.0186 32.778 59.5813 32.2651C60.4702 31.458 61.1422 30.4891 61.5946 29.3744C61.9759 28.4358 62.311 27.4829 62.4426 26.4687C62.5786 25.4002 62.7244 24.3327 62.8666 23.2633C62.8382 23.2589 62.8115 23.2544 62.783 23.2509Z" fill="#1D1D1B"/>
</g>
<path fill-rule="evenodd" clip-rule="evenodd" d="M46.1357 11.2103C46.0059 11.933 45.7259 12.629 45.5002 13.333C45.4033 13.6396 45.3046 13.9525 45.1571 14.2361C44.8219 14.8707 44.4015 15.4405 43.8442 15.9152C42.9073 16.7107 41.7944 17.0814 40.6282 17.3401C40.4611 17.3765 40.2788 17.3454 40.0859 17.3454C39.0708 17.4139 38.1197 17.1134 37.2708 16.573C36.9011 16.3392 36.6433 15.9179 36.3651 15.5587C36.2131 15.3614 36.1277 15.1134 35.9971 14.8974C35.5411 14.1445 35.2566 13.3241 35.1775 12.4565C35.1197 11.829 35.1606 11.1881 35.1971 10.5543C35.2228 10.1063 35.3037 9.65919 35.3757 9.21475C35.5073 8.3943 35.8015 7.62719 36.1659 6.88586C36.8015 5.59608 37.5606 4.38986 38.5491 3.33119C39.3562 2.46897 40.3144 2.00319 41.4948 1.9623C42.6326 1.9223 43.6353 2.2423 44.4753 3.01564C44.6593 3.1863 44.7882 3.41564 44.9402 3.62008C45.4593 4.31875 45.8468 5.08141 46.0086 5.9383C46.1677 6.7703 46.3793 7.60764 46.3979 8.44675C46.4175 9.36675 46.2975 10.3001 46.1357 11.2103ZM47.789 7.957C47.7161 6.97744 47.5019 5.95966 47.1597 4.96233C46.917 4.25655 46.5428 3.63788 46.1508 3.01122C45.605 2.13477 44.8948 1.501 43.9214 1.15611C43.1365 0.878774 42.3312 0.912551 41.5161 0.926774C39.5285 0.963218 38.0468 1.96055 36.8548 3.413C36.1614 4.25922 35.6157 5.22988 35.0477 6.17033C34.221 7.54366 33.7925 9.07077 33.6885 10.6468C33.5748 12.3694 33.8023 14.0628 34.677 15.6237C35.277 16.6939 35.9081 17.6948 37.1099 18.1908C37.965 18.5428 38.837 18.8308 39.765 18.8414C40.5428 18.8503 41.2948 18.6841 42.0539 18.4779C42.9703 18.2308 43.805 17.8406 44.5481 17.285C45.3641 16.677 46.0299 15.9117 46.4592 14.9721C46.6805 14.4912 46.8992 14.005 47.0797 13.5072C47.2103 13.1499 47.2939 12.7739 47.3694 12.4006C47.5205 11.6628 47.7019 10.9259 47.7739 10.181C47.8432 9.46811 47.789 8.74544 47.789 7.957Z" fill="#1D1D1B"/>
<path fill-rule="evenodd" clip-rule="evenodd" d="M41.7073 47.5546C41.6859 48.2266 41.3962 48.5013 40.7144 48.5155C38.8673 48.5564 37.0211 48.5741 35.1731 48.5999C35.1171 48.6008 35.0619 48.6008 34.9997 48.6008C34.9997 49.0239 35.0051 49.4275 34.9988 49.8337C34.9704 51.4586 34.9375 53.0835 34.9082 54.7084C34.9073 54.7208 34.9037 54.7324 34.9037 54.7439C34.8308 55.5004 34.8326 55.5297 34.0379 55.551C32.9979 55.5777 31.9571 55.5564 30.9162 55.5493C29.7873 55.5413 28.6548 55.535 27.5251 55.511C26.7997 55.4959 26.4095 55.1706 26.3695 54.4479C26.2815 52.8141 26.2415 51.1759 26.1837 49.5395C26.1793 49.4248 26.1837 49.3128 26.1837 49.167C25.2637 49.167 24.3766 49.1768 23.4904 49.1644C22.6468 49.1537 21.8051 49.1235 20.9624 49.0915C20.5579 49.0746 20.4291 48.9253 20.4033 48.5235C20.3206 47.2293 20.2015 45.9359 20.1597 44.6399C20.1313 43.7546 20.2051 42.8657 20.2326 41.9786C20.2415 41.7093 20.2637 41.4399 20.2593 41.1715C20.2522 40.8106 20.4397 40.615 20.7739 40.5839C21.6104 40.5048 22.4468 40.4186 23.2868 40.391C24.2299 40.3573 25.1766 40.3821 26.2148 40.3821C26.2148 38.5315 26.2122 36.7439 26.2166 34.9564C26.2175 34.4061 26.4868 34.0595 27.0317 34.0061C27.9633 33.9128 28.8966 33.8399 29.8308 33.8106C31.1704 33.7679 32.5126 33.7653 33.8531 33.7626C34.3944 33.7626 34.6628 34.0168 34.7055 34.5599C34.7846 35.551 34.8353 36.5439 34.9055 37.5359C34.9686 38.4426 35.0424 39.3484 35.1073 40.2159C35.6531 40.2159 36.1997 40.2106 36.7446 40.2177C37.9366 40.2319 39.1286 40.247 40.3197 40.2737C40.5286 40.2781 40.7366 40.3333 40.9437 40.367C41.3651 40.4328 41.5748 40.6764 41.5944 41.1021C41.6442 42.1173 41.7268 43.1333 41.7437 44.1484C41.7633 45.2844 41.7437 46.4204 41.7073 47.5546ZM50.9838 50.5742C50.9616 49.9617 50.9794 49.3493 50.9794 48.736C50.9625 48.7333 50.9456 48.7324 50.9287 48.7297C50.8923 48.5262 50.8576 48.3235 50.8203 48.1191C50.6878 47.3831 50.5963 46.6364 50.4123 45.9137C50.2078 45.1111 49.9207 44.3306 49.6656 43.5413C49.5812 43.28 49.4941 43.0195 49.3954 42.7626C49.2327 42.3449 49.0798 41.9235 48.8896 41.5191C48.6514 41.0106 48.3812 40.5191 48.1261 40.0186C47.7305 39.2426 47.3545 38.456 46.9341 37.6924C46.6416 37.1609 46.2923 36.6613 45.9625 36.1511C45.5963 35.5822 45.2389 35.0062 44.8487 34.4542C44.4114 33.8373 43.9669 33.2213 43.4807 32.6435C42.8861 31.9369 42.2763 31.2382 41.6176 30.592C41.0647 30.0506 40.4398 29.5831 39.8381 29.096C39.4132 28.7511 38.9989 28.3831 38.5323 28.104C37.5492 27.5129 36.5421 26.9573 35.5314 26.4151C34.8629 26.056 34.1421 25.832 33.3874 25.7324C33.1918 25.7066 32.9536 25.7404 32.8087 25.6391C32.5198 25.4391 32.2194 25.4355 31.9056 25.4604C31.4789 25.4942 31.0523 25.5466 30.6247 25.5857C29.0416 25.7351 27.5447 26.1902 26.1287 26.8986C24.4638 27.7324 22.9003 28.7306 21.4994 29.9635C20.6994 30.6675 19.9341 31.4097 19.1554 32.1386C19.0203 32.2649 18.8878 32.3991 18.7696 32.5422C18.2612 33.1555 17.7332 33.7537 17.2621 34.3946C16.6994 35.1609 16.1429 35.9395 15.6665 36.7609C15.0425 37.8355 14.4861 38.9529 13.9269 40.064C13.6781 40.56 13.4914 41.088 13.2789 41.6026C12.9536 42.3893 12.5972 43.1653 12.3127 43.9653C11.9314 45.0435 11.6016 46.1377 11.2532 47.2266C10.9278 48.2409 10.6763 49.2729 10.6807 50.3404C10.6834 51.1102 10.6914 51.8969 10.8496 52.6453C11.0985 53.8329 11.8621 54.7849 12.5661 55.7369C13.3456 56.792 14.4958 57.4 15.5936 58.0569C15.8905 58.2355 16.2087 58.4017 16.5394 58.4977C17.7821 58.8595 19.0087 59.2862 20.3074 59.4204C21.0034 59.4915 21.6967 59.6302 22.3918 59.6551C23.8558 59.7057 25.3207 59.7022 26.7838 59.7191C27.6994 59.7289 28.6141 59.7413 29.5278 59.7413C30.2718 59.7413 31.0141 59.7217 31.7572 59.7129C32.3998 59.7075 33.0434 59.7031 33.6869 59.7004C34.7705 59.6978 35.8532 59.6933 36.9367 59.696C37.5145 59.6978 38.0914 59.7057 38.6674 59.7253C39.0274 59.7369 39.3847 59.8044 39.7412 59.792C40.6932 59.7609 41.6452 59.7191 42.5945 59.6453C43.6585 59.5635 44.7189 59.5102 45.7314 59.0675C46.4878 58.7369 47.1741 58.3271 47.7669 57.7689C48.2149 57.3466 48.5892 56.8666 48.9163 56.328C49.5625 55.2666 50.3501 54.2933 50.5616 53.0053C50.6949 52.1946 51.0132 51.4186 50.9838 50.5742Z" fill="#FEFEFE"/>
<path fill-rule="evenodd" clip-rule="evenodd" d="M22.3514 17.8957C21.4341 17.8077 20.6154 17.5091 19.8368 16.9935C19.0181 16.4504 18.4439 15.7002 17.8839 14.9402C17.5408 14.4753 17.3052 13.9242 17.0626 13.3935C16.8474 12.9206 16.6519 12.4326 16.5114 11.934C16.2243 10.9162 16.1763 9.86996 16.307 8.82374C16.4003 8.07885 16.483 7.3224 16.683 6.6024C16.9034 5.80507 17.2439 5.03974 17.5479 4.26551C17.8101 3.59974 18.2359 3.06374 18.8386 2.6584C19.4092 2.27351 20.0226 1.99351 20.7043 1.94462C21.2874 1.90285 21.9034 1.86018 22.459 2.00151C22.9443 2.12418 23.3834 2.4744 23.8092 2.77307C24.8021 3.46729 25.379 4.49129 25.8474 5.56507C26.3772 6.78018 26.7648 8.04685 26.923 9.37307C26.963 9.7144 27.0519 10.0513 27.0777 10.3935C27.1212 10.9686 27.1648 11.5464 27.1514 12.1215C27.123 13.3251 26.8777 14.4895 26.2537 15.5286C25.6128 16.5944 24.7923 17.4877 23.5043 17.7677C23.1301 17.8495 22.7399 17.8548 22.3514 17.8957Z" fill="#FEFEFE"/>
<path fill-rule="evenodd" clip-rule="evenodd" d="M7.5632 32.0126C6.70453 31.9895 5.87609 31.8401 5.18542 31.281C4.70987 30.8961 4.21653 30.5139 3.81831 30.0535C3.08053 29.2001 2.45565 28.2535 2.11698 27.1664C1.77565 26.0677 1.54009 24.9415 1.55342 23.7779C1.56142 23.0606 1.46542 22.3255 1.58898 21.6286C1.79076 20.4899 2.03342 19.3379 2.64587 18.3299C2.89653 17.9175 3.2512 17.5619 3.5952 17.217C3.70009 17.1121 3.92409 17.113 4.09653 17.0944C4.28765 17.073 4.48942 17.1201 4.67253 17.0766C5.55342 16.8686 6.44765 16.7192 7.32676 16.9788C8.02009 17.1841 8.62187 17.5859 9.14987 18.1068C9.91698 18.8641 10.4983 19.7361 10.9232 20.7148C11.2139 21.3841 11.5063 22.0579 11.7205 22.7539C12.0139 23.7032 12.3632 24.6632 12.4521 25.6392C12.5561 26.7752 12.6041 27.9797 12.0636 29.041C11.669 29.8144 11.2059 30.5841 10.4121 31.0588C10.1436 31.2188 9.90276 31.4268 9.63076 31.5806C8.99165 31.9415 8.28053 31.9832 7.5632 32.0126Z" fill="#FEFEFE"/>
<path fill-rule="evenodd" clip-rule="evenodd" d="M49.4922 27.04C49.5402 25.736 49.8397 24.5084 50.2744 23.3013C50.7322 22.0284 51.2575 20.7822 52.1713 19.7715C52.7589 19.1209 53.4655 18.5769 54.1349 18.0035C54.3704 17.8026 54.6584 17.6631 54.9153 17.4862C55.7357 16.9191 56.6282 16.9831 57.5349 17.1822C58.7411 17.4471 59.6131 18.168 60.2371 19.2071C60.5473 19.7244 60.9135 20.2284 61.1073 20.7884C61.3429 21.4729 61.4237 22.1964 61.4264 22.9475C61.4326 24.4266 61.2166 25.8631 60.8406 27.2773C60.5784 28.2631 60.2024 29.2097 59.5749 30.0453C58.742 31.1537 57.7704 32.0933 56.5411 32.7484C55.9953 33.0391 55.4211 33.28 54.7935 33.2373C54.4175 33.2124 54.03 33.1146 53.6815 32.9689C52.8886 32.6382 52.158 32.1937 51.5064 31.6213C50.6709 30.8862 50.1091 29.9786 49.8246 28.9155C49.6611 28.304 49.5997 27.6657 49.4922 27.04Z" fill="#FEFEFE"/>
<path fill-rule="evenodd" clip-rule="evenodd" d="M40.0863 17.3453C39.0712 17.4137 38.1209 17.1133 37.2703 16.5728C36.9014 16.3382 36.6445 15.9168 36.3654 15.5586C36.2125 15.3622 36.128 15.1133 35.9974 14.8973C35.5414 14.1444 35.2569 13.3248 35.1778 12.4564C35.12 11.8279 35.1609 11.1871 35.1965 10.5542C35.2223 10.1053 35.3049 9.65905 35.376 9.21461C35.5076 8.39416 35.8018 7.62616 36.1663 6.88572C36.8018 5.59505 37.56 4.38972 38.5503 3.33105C39.3565 2.46883 40.3138 2.00305 41.4952 1.96216C42.6329 1.92305 43.6356 2.24305 44.4747 3.0155C44.6596 3.18528 44.7885 3.4155 44.9405 3.61994C45.4596 4.31772 45.8472 5.08128 46.0098 5.93816C46.168 6.77016 46.3796 7.6075 46.3974 8.44661C46.4178 9.36661 46.2987 10.2999 46.136 11.2093C46.0063 11.9319 45.7263 12.6288 45.5014 13.3328C45.4036 13.6395 45.3058 13.9524 45.1565 14.2359C44.8214 14.8715 44.4018 15.4404 43.8445 15.9142C42.9085 16.7106 41.7947 17.0813 40.6285 17.3399C40.4614 17.3773 40.2792 17.3453 40.0863 17.3453Z" fill="#FEFEFE"/>
<path fill-rule="evenodd" clip-rule="evenodd" d="M40.7075 47.6026C40.399 47.6026 40.0061 47.5999 39.6115 47.6026C38.127 47.6151 36.6426 47.6097 35.1581 47.6515C34.4577 47.6719 34.1821 47.9306 34.1199 48.6924C33.9857 50.3271 33.9421 51.9582 34.0835 53.5946C34.1075 53.8693 34.0861 54.1484 34.0861 54.4257H27.3252C27.3252 53.8737 27.3235 53.3439 27.3252 52.8142C27.3279 51.4479 27.3377 50.0826 27.3332 48.7182C27.3323 48.1591 27.1083 47.9546 26.5519 47.9128C24.8541 47.7857 23.1599 47.7973 21.4666 47.9742C21.399 47.9813 21.3306 47.9742 21.2728 47.9742V41.2657C21.775 41.2657 22.2737 41.2755 22.7723 41.2639C24.1181 41.2346 25.4612 41.1955 26.807 41.1617C27.1039 41.1546 27.2266 40.9617 27.2346 40.7075C27.2612 39.8808 27.2968 39.0542 27.2728 38.2275C27.2417 37.1235 27.1599 36.0186 27.1021 34.9146C27.0995 34.8711 27.1163 34.8257 27.1359 34.7244C29.3572 34.7608 31.5777 34.7964 33.8426 34.8328C33.8426 35.1164 33.8266 35.4284 33.8435 35.7386C33.9368 37.3848 34.0363 39.0319 34.1377 40.6773C34.1483 40.8159 34.151 40.9724 34.2168 41.0871C34.2737 41.1857 34.4141 41.2968 34.5199 41.2995C36.0026 41.3386 37.4861 41.3617 38.9697 41.3857C39.4239 41.3937 39.8808 41.3911 40.3359 41.3937H40.7075V47.6026ZM41.7437 44.1494C41.7268 43.1334 41.6442 42.1183 41.5944 41.1023C41.5748 40.6774 41.3651 40.4329 40.9437 40.3671C40.7366 40.3334 40.5286 40.2783 40.3197 40.2738C39.1286 40.2471 37.9366 40.232 36.7455 40.2178C36.1997 40.2107 35.6531 40.216 35.1073 40.216C35.0424 39.3485 34.9686 38.4427 34.9055 37.536C34.8353 36.544 34.7846 35.5511 34.7055 34.56C34.6637 34.0178 34.3944 33.7627 33.8531 33.7627C32.5126 33.7654 31.1704 33.768 29.8308 33.8107C28.8966 33.84 27.9633 33.9129 27.0317 34.0063C26.4868 34.0596 26.2175 34.4063 26.2166 34.9565C26.2122 36.744 26.2148 38.5316 26.2148 40.3823C25.1766 40.3823 24.23 40.3574 23.2868 40.3911C22.4468 40.4196 21.6104 40.5049 20.774 40.584C20.4397 40.6151 20.2531 40.8107 20.2593 41.1716C20.2637 41.44 20.2415 41.7094 20.2326 41.9787C20.2051 42.8658 20.1313 43.7547 20.1597 44.6409C20.2024 45.936 20.3206 47.2294 20.4033 48.5236C20.4291 48.9254 20.558 49.0747 20.9624 49.0916C21.8051 49.1236 22.6468 49.1538 23.4913 49.1645C24.3766 49.1778 25.2646 49.1671 26.1837 49.1671C26.1837 49.3129 26.1802 49.4249 26.1837 49.5396C26.2415 51.176 26.2815 52.8143 26.3695 54.448C26.4095 55.1707 26.7997 55.496 27.5251 55.5111C28.6548 55.5351 29.7873 55.5414 30.9171 55.5494C31.958 55.5565 32.9988 55.5778 34.038 55.5511C34.8326 55.5298 34.8308 55.5005 34.9037 54.744C34.9037 54.7325 34.9073 54.7218 34.9082 54.7085C34.9384 53.0836 34.9704 51.4596 34.9988 49.8338C35.006 49.4285 34.9997 49.024 34.9997 48.6009C35.062 48.6009 35.1171 48.6009 35.1731 48.6C37.0211 48.5743 38.8682 48.5565 40.7144 48.5156C41.3962 48.5014 41.686 48.2267 41.7073 47.5547C41.7437 46.4214 41.7633 45.2845 41.7437 44.1494Z" fill="#1D1D1B"/>
<path fill-rule="evenodd" clip-rule="evenodd" d="M33.8416 34.8331C33.8416 35.1157 33.8265 35.4286 33.8443 35.7388C33.9367 37.3851 34.0371 39.0313 34.1385 40.6766C34.1474 40.8162 34.1509 40.9726 34.2167 41.0864C34.2736 41.1859 34.414 41.2962 34.5198 41.2988C36.0025 41.3388 37.486 41.3619 38.9687 41.3859C39.4247 41.3931 39.8798 41.3913 40.3358 41.3931C40.4594 41.3939 40.5829 41.3931 40.7074 41.3931V47.6019C40.3989 47.6019 40.0051 47.5993 39.6114 47.6028C38.1269 47.6153 36.6416 47.6099 35.158 47.6517C34.4576 47.6713 34.1811 47.9308 34.1189 48.6917C33.9856 50.3264 33.9429 51.9584 34.0825 53.5939C34.1065 53.8686 34.086 54.1477 34.086 54.4259H27.3251C27.3251 53.8739 27.3234 53.3433 27.3251 52.8135C27.3278 51.4482 27.3376 50.0837 27.3331 48.7184C27.3314 48.1584 27.1083 47.9539 26.5509 47.9122C24.854 47.7851 23.1598 47.7966 21.4674 47.9735C21.3998 47.9806 21.3305 47.9744 21.2727 47.9744V41.2651C21.7749 41.2651 22.2745 41.2748 22.7723 41.2633C24.1171 41.2339 25.462 41.1948 26.806 41.1611C27.1038 41.1539 27.2265 40.9619 27.2345 40.7077C27.2611 39.8811 27.2958 39.0535 27.2727 38.2277C27.2425 37.1228 27.1598 36.0188 27.102 34.9148C27.0994 34.8713 27.1171 34.8259 27.1358 34.7246C29.3572 34.7602 31.5776 34.7966 33.8416 34.8331Z" fill="#F6C0C6"/>
</svg>
