<svg width="64" height="65" viewBox="0 0 64 65" fill="none" xmlns="http://www.w3.org/2000/svg">
<g clip-path="url(#clip0_1348_10154)">
<path d="M32 64.5C49.6731 64.5 64 50.1731 64 32.5C64 14.8269 49.6731 0.5 32 0.5C14.3269 0.5 0 14.8269 0 32.5C0 50.1731 14.3269 64.5 32 64.5Z" fill="#FAC3C8"/>
<path d="M32.4351 11.955C32.7276 16.705 25.0601 25.2825 24.7476 26.3325C24.4744 27.149 24.1401 27.9437 23.7476 28.71C21.7601 33.4825 25.7476 38.6925 31.9001 38.8075C32.613 38.8744 33.3292 38.9003 34.0451 38.885C39.5051 38.445 43.3751 32.5525 41.5276 28.305C41.5151 28.2775 41.5026 28.25 41.4876 28.2225C41.4726 28.195 32.1426 7.17749 32.4351 11.955Z" fill="white"/>
<path d="M31.835 12.2173C31.835 12.2673 31.835 12.3223 31.8175 12.3848L31.79 12.5948L31.765 12.8273L31.72 13.0773C31.7608 12.9503 31.7893 12.8197 31.805 12.6873C31.8301 12.532 31.8402 12.3746 31.835 12.2173Z" fill="#1D1D1D"/>
<path d="M33.1376 11.7098C33.1358 11.684 33.1358 11.6581 33.1376 11.6323V11.6123L33.0601 11.5948C33.0098 11.5836 32.9605 11.5686 32.9126 11.5498C32.9592 11.5674 33.0068 11.5824 33.0551 11.5948L33.1276 11.6098H33.1426C33.1421 11.6165 33.1421 11.6231 33.1426 11.6298C33.1394 11.6564 33.1377 11.6831 33.1376 11.7098Z" fill="#1D1D1D"/>
<path d="M23.2626 28.0527L23.2851 28.1227L23.1701 28.3527C23.1701 28.3702 23.1201 28.4502 23.1126 28.4702L23.0826 28.5377C23.0654 28.5836 23.0427 28.6272 23.0151 28.6677C22.9901 28.7045 22.9692 28.7439 22.9526 28.7852C22.8987 28.9132 22.8553 29.0452 22.8226 29.1802C22.8026 29.3552 22.7101 29.7052 22.6451 30.0577C22.5858 30.3414 22.5548 30.6303 22.5526 30.9202C22.5493 31.0525 22.5376 31.1844 22.5176 31.3152C22.5526 31.4477 22.5401 31.7602 22.5776 32.0277C22.6026 32.1252 22.5776 31.9552 22.5776 31.8827C22.6076 32.0852 22.6326 32.2902 22.6751 32.4927C22.7176 32.6952 22.7001 32.7952 22.6451 32.5377C22.7686 33.2544 23.0004 33.9482 23.3326 34.5952C23.5718 35.0678 23.8556 35.5165 24.1801 35.9352C24.5357 36.3891 24.9342 36.8077 25.3701 37.1852C26.2085 37.9024 27.1652 38.4683 28.1976 38.8577C28.8788 39.1184 29.5862 39.3045 30.3076 39.4127C30.2026 39.3852 30.0226 39.3502 29.8451 39.3052C29.6928 39.2788 29.5443 39.2343 29.4026 39.1727C29.6786 39.2401 29.9582 39.2918 30.2401 39.3277C30.3976 39.4277 31.2051 39.4802 31.5376 39.5502L31.6676 39.5177L31.7776 39.5352H31.8326H31.8601H31.8851H32.0051H32.1476L32.3976 39.5502L32.7226 39.5627H32.9726L33.1776 39.5777C33.4499 39.5918 33.7228 39.5918 33.9951 39.5777C34.6882 39.5143 35.3719 39.3717 36.0326 39.1527C35.9526 39.1777 35.7326 39.2202 35.9801 39.1352C36.0376 39.1627 36.6351 38.8852 36.7651 38.8677C36.8951 38.8502 37.1351 38.7102 37.3126 38.6177C37.4901 38.5252 37.6126 38.4502 37.4751 38.4927C37.6176 38.4602 38.2576 38.0852 37.8876 38.3277C38.0852 38.2211 38.2756 38.1017 38.4576 37.9702L38.1826 38.1352C38.7139 37.8193 39.2028 37.437 39.6376 36.9977L39.3876 37.1927C39.7601 36.8577 40.0501 36.5552 40.2151 36.4427C40.1051 36.5777 39.9826 36.6927 39.8651 36.8252C40.352 36.3504 40.7793 35.8182 41.1376 35.2402C41.0926 35.3102 41.0476 35.3802 40.9976 35.4452C41.5871 34.5536 42.0286 33.5726 42.3051 32.5402C42.4657 31.9088 42.543 31.2591 42.5351 30.6077C42.5302 30.3568 42.511 30.1064 42.4776 29.8577C42.4426 29.6502 42.4151 29.4877 42.3876 29.3877C42.4001 29.5152 42.4026 29.6377 42.4101 29.7702L42.3426 29.4202L42.2526 29.0777C42.2701 29.1577 42.4426 29.3877 42.4401 29.4627C42.4126 29.3177 42.3726 29.1127 42.3026 28.8602C42.2626 28.7352 42.2251 28.5952 42.1701 28.4477L42.0826 28.2177C42.0475 28.1207 42.0058 28.0263 41.9576 27.9352L41.9776 27.9802C40.9301 25.6227 38.8101 21.1152 38.3626 20.1627C38.1526 19.6802 38.3626 20.0527 38.3801 20.0552C38.0901 19.4852 38.2251 19.8227 37.9926 19.3327C37.9326 19.1952 38.0301 19.3477 38.0726 19.4202C38.0085 19.2744 37.9359 19.1324 37.8551 18.9952C37.9751 19.2677 37.8801 19.1752 37.9101 19.3002L37.6051 18.6702L37.6451 18.6852C37.4461 18.3827 37.2682 18.067 37.1126 17.7402C36.6126 16.6977 36.0276 15.5777 35.4801 14.5427C35.582 14.6878 35.6723 14.8408 35.7501 15.0002C35.6776 14.8602 35.5626 14.6502 35.5001 14.5177C35.6076 14.7677 35.2501 14.0952 35.3426 14.2952C34.8751 13.5752 34.3776 12.5752 33.9001 11.9552C33.5908 11.8228 33.2735 11.71 32.9501 11.6177C32.8482 11.5908 32.7428 11.5799 32.6376 11.5852C32.6205 11.5857 32.6036 11.5898 32.5882 11.5971C32.5727 11.6044 32.5589 11.6148 32.5476 11.6277C32.5867 11.5551 32.6098 11.475 32.6151 11.3927C32.6151 11.3552 32.6151 11.3927 32.6426 11.4127C32.6701 11.4327 32.6776 11.4377 32.7051 11.4602C32.7326 11.4827 32.7526 11.4802 32.7876 11.5002C32.859 11.531 32.9326 11.5569 33.0076 11.5777L33.0926 11.5977V11.6352C33.0926 11.6652 33.0926 11.7002 33.0926 11.7352V11.9002C33.0926 11.8777 33.0926 11.7602 33.1076 11.6652C33.1076 11.6402 33.1076 11.6202 33.1076 11.6052C33.0926 11.5852 33.1751 11.6052 32.9576 11.5502C32.8951 11.5325 32.8341 11.5099 32.7751 11.4827C32.7344 11.4654 32.6958 11.4436 32.6601 11.4177C32.6413 11.4033 32.6245 11.3864 32.6101 11.3677C32.6101 11.3802 32.6101 11.3827 32.6101 11.4102C32.6101 11.4377 32.6101 11.4327 32.6101 11.4502C32.6078 11.4691 32.6027 11.4877 32.5951 11.5052C32.5826 11.5302 32.5676 11.5877 32.5476 11.6202L32.5001 11.7502L32.4651 11.8077L32.4451 11.8352L32.4676 11.8527C32.4773 11.8624 32.4857 11.8733 32.4926 11.8852C32.4926 11.9102 32.4926 11.9077 32.6501 12.0802C32.6501 12.1027 32.5701 12.0202 32.4826 11.9427C32.4649 11.9251 32.4457 11.9092 32.4251 11.8952H32.4126L32.4976 11.7652C32.5251 11.7227 32.5476 11.6677 32.5676 11.6377C32.6134 11.5625 32.6368 11.4757 32.6351 11.3877C32.7111 11.4716 32.8118 11.5294 32.9226 11.5527C32.8149 11.5294 32.7165 11.4746 32.6401 11.3952C32.6226 11.3602 32.6551 11.4177 32.6101 11.5402C32.6101 11.5652 32.5876 11.6077 32.5726 11.6377L32.5001 11.7502C32.4776 11.7902 32.4526 11.8227 32.4276 11.8627L32.3901 11.9177L32.4226 11.9477C32.487 12.019 32.5555 12.0866 32.6276 12.1502C32.8176 12.4177 32.5751 12.1377 32.8051 12.4727C33.0255 12.7508 33.2236 13.0459 33.3976 13.3552C33.8176 14.1227 34.1151 14.4977 34.4726 15.2302L34.4226 15.1577C34.5426 15.4077 34.8301 15.9077 35.0501 16.3802C34.9876 16.2452 34.9501 16.1302 35.0976 16.3952C35.3476 16.9377 35.5551 17.2927 35.7301 17.6952L35.9451 18.0577C36.3776 18.9252 37.3901 20.9852 38.3926 23.1127C39.3951 25.2402 40.4051 27.4252 40.8926 28.5027L40.9201 28.5552L40.9351 28.5877L40.9651 28.6652L41.0176 28.8002C41.0467 28.8678 41.0718 28.9371 41.0926 29.0077L41.1701 29.2577L41.1426 29.1902C41.3796 30.0382 41.4097 30.9307 41.2301 31.7927C41.0081 32.8746 40.559 33.8971 39.9126 34.7927C39.2612 35.7055 38.4405 36.4847 37.4951 37.0877C36.7106 37.5845 35.8475 37.9446 34.9426 38.1527C34.7076 38.1802 34.4301 38.2277 34.1451 38.2477C34.0107 38.2644 33.8755 38.2728 33.7401 38.2727C33.6051 38.2727 33.4701 38.2727 33.3426 38.2727C33.6226 38.2902 33.5276 38.3127 33.3051 38.3052C32.5226 38.2677 32.4876 38.2577 32.4601 38.2677C32.4326 38.2777 32.4051 38.2677 31.5601 38.2352C30.8474 38.2051 30.1404 38.0944 29.4526 37.9052C28.4709 37.6327 27.5456 37.1874 26.7201 36.5902C25.9117 36.0085 25.2311 35.2675 24.7201 34.4127C24.5233 34.0787 24.356 33.7282 24.2201 33.3652C24.1701 33.2052 24.1176 33.0652 24.0826 32.9352L23.9976 32.6027C23.7758 31.7393 23.7596 30.836 23.9501 29.9652V30.0452C23.9819 29.8814 24.0228 29.7195 24.0726 29.5602C24.1045 29.4423 24.1429 29.3263 24.1876 29.2127L24.2501 29.0002L24.2776 28.9252L24.3301 28.8202C24.6857 28.1241 24.9922 27.404 25.2476 26.6652L25.2951 26.5102V26.5002L25.1026 26.4427H25.1226L25.2776 26.4827H25.3001C25.3001 26.4827 25.3001 26.4827 25.3001 26.4652C25.3389 26.393 25.3815 26.3229 25.4276 26.2552C25.5226 26.1027 25.6326 25.9452 25.7426 25.7927L26.3826 24.9152C26.7851 24.3752 27.1101 23.9327 27.2701 23.7077L27.1776 23.8227C27.7276 23.0252 27.6901 23.1602 28.1476 22.5452C28.0476 22.6002 28.5076 21.9027 28.6851 21.6377V21.6552C28.9526 21.2552 29.5251 20.3302 29.9351 19.6552V19.6952C30.2701 19.1227 30.9126 18.0502 31.1301 17.6202C31.6601 16.6677 32.4626 15.1427 32.7551 13.6202C32.8101 13.4652 32.8426 13.2977 32.8851 13.1352C32.9273 12.9707 32.959 12.8037 32.9801 12.6352V12.4827L32.9451 12.4152C32.9176 12.3727 32.8776 12.3152 32.8326 12.2527C32.7388 12.1229 32.6176 12.0153 32.4776 11.9377C32.4151 11.9026 32.3423 11.8907 32.2719 11.9039C32.2015 11.9172 32.138 11.9548 32.0926 12.0102C31.9308 12.2418 31.8286 12.5097 31.7951 12.7902L31.7701 12.7602C31.7701 12.8702 31.7376 12.9852 31.7226 13.0977C31.6994 13.2909 31.6559 13.4811 31.5926 13.6652C31.6301 13.4802 31.6901 13.2927 31.7151 13.1077C31.6301 13.5152 31.6751 13.2252 31.6826 13.0677C31.6565 13.2261 31.6189 13.3823 31.5701 13.5352C31.5701 13.6177 31.5951 13.4802 31.6151 13.4177C31.5753 13.6894 31.5117 13.9571 31.4251 14.2177C31.2776 14.6327 31.3726 14.2302 31.2001 14.7177C30.6839 15.9914 30.0548 17.2163 29.3201 18.3777C28.5951 19.5602 27.8051 20.7127 26.9726 21.8777C26.9251 21.9252 26.9726 21.8602 27.0151 21.7902C26.5151 22.5002 26.0626 23.1177 25.6026 23.7627C25.5257 23.8523 25.4421 23.9358 25.3526 24.0127C25.3776 23.9902 25.2276 24.2002 24.9876 24.5327L24.5751 25.1177C24.4976 25.2302 24.4176 25.3502 24.3251 25.4702C24.2317 25.617 24.1482 25.7698 24.0751 25.9277C24.0476 25.9902 24.0201 26.0627 24.0001 26.1152L23.9726 26.2077C23.9551 26.2677 23.9351 26.3277 23.9151 26.3877C23.8751 26.5077 23.8301 26.6377 23.7851 26.7452C23.6951 26.9777 23.6026 27.1977 23.5201 27.3877C23.4001 27.7802 23.2701 28.0377 23.2626 28.0527Z" fill="#1D1D1D"/>
<path d="M33.0625 22.5674C33.0162 22.6452 32.9817 22.7295 32.96 22.8174C33.0103 22.7416 33.0451 22.6567 33.0625 22.5674Z" fill="#1D1D1D"/>
<path d="M31.9549 27.8149L32.0024 27.8349C31.9724 28.0849 31.9324 27.9024 31.9224 28.1324C31.9874 28.2299 31.8924 28.5174 31.9224 28.5999C31.9224 28.5999 31.9074 28.7099 31.8849 28.7024C31.9199 28.7399 31.8849 28.8199 31.8849 28.8924C31.8849 28.9174 31.8974 28.8724 31.9099 28.8549V29.0174C31.8949 29.0824 31.8699 29.0974 31.8699 29.0174C31.8699 29.1249 31.8424 29.3324 31.8199 29.5924C31.7974 29.8524 31.8049 30.1649 31.7974 30.4774C31.7899 30.7899 31.7849 31.1074 31.7974 31.3724C31.8099 31.6374 31.8299 31.8549 31.8424 31.9724C31.8674 31.9099 31.8424 31.7674 31.8799 31.7224C31.9124 31.8424 31.8799 31.9024 31.9124 31.9549C31.8474 32.0049 31.9124 32.2249 31.8499 32.3224L31.8924 32.3549L31.8724 32.4174C31.9059 32.6159 31.9276 32.8163 31.9374 33.0174C31.9799 33.2924 32.0499 33.4149 32.0499 33.5699C32.0499 33.5474 32.0499 33.4849 32.0824 33.5549C32.0499 33.5699 32.1299 33.7399 32.0999 33.7799C32.1149 33.8474 32.1399 34.0749 32.1749 33.9924C32.1549 34.0324 32.1749 34.2424 32.1399 34.1199C32.1448 34.181 32.1566 34.2414 32.1749 34.2999V34.2124C32.1924 34.3827 32.2293 34.5504 32.2849 34.7124V34.6249C32.3218 34.724 32.3296 34.8315 32.3074 34.9349L32.2649 34.7974C32.2998 34.9816 32.3457 35.1636 32.4024 35.3424L32.3899 35.2749L32.6749 36.1099C32.7374 36.2874 32.7924 36.4674 32.8524 36.6099C32.8935 36.714 32.942 36.8151 32.9974 36.9124V36.8024L33.0874 36.9749C33.0874 36.9524 32.9499 36.9249 32.9524 36.9024C33.0224 37.0974 33.2274 37.7049 33.4949 38.2849C33.6124 38.5824 33.7574 38.8649 33.8749 39.0999L34.1249 39.5999C34.1849 39.7424 34.0899 39.6499 34.0824 39.6524C34.1899 39.8099 34.1574 39.7049 34.2349 39.8449C34.2499 39.8849 34.2049 39.8449 34.1899 39.8449C34.2274 39.9024 34.2499 39.9649 34.2674 39.9624C34.2349 39.8799 34.2899 39.8899 34.2974 39.8424L34.3974 40.0224H34.3674C34.3899 40.0624 34.4924 40.0824 34.5799 40.2724C34.7524 40.5674 34.9649 40.8674 35.1549 41.1524C35.1399 41.1524 35.0849 41.1074 35.0399 41.0524C35.0624 41.0924 35.1074 41.1449 35.1249 41.1849C35.0974 41.1024 35.2274 41.2899 35.1974 41.2299C35.4049 41.3899 35.5424 41.6899 35.7249 41.8299C36.1135 41.7253 36.4965 41.601 36.8724 41.4574C36.9047 41.4932 36.934 41.5317 36.9599 41.5724C36.9317 41.5083 36.8899 41.4512 36.8374 41.4049L36.8024 41.4224C36.6924 41.3149 36.8024 41.3799 36.6974 41.2674C36.7174 41.2424 36.8099 41.3399 36.8899 41.4299C36.8224 41.3449 36.7724 41.2499 36.7174 41.2374C36.6624 41.1524 36.7549 41.2224 36.6849 41.1199C36.6043 41.059 36.5349 40.9846 36.4799 40.8999C36.3624 40.6849 36.2299 40.6324 36.1099 40.4349H36.1349C36.0999 40.3649 35.9974 40.2449 35.9349 40.1174C35.9524 40.1549 35.9524 40.1974 35.9024 40.1174C35.8274 39.9724 35.7499 39.8899 35.7049 39.7774L35.6149 39.6974L35.2649 39.1049C35.1074 38.8549 34.9599 38.5274 34.7924 38.2149C34.6249 37.9024 34.5049 37.5699 34.3799 37.2949C34.2549 37.0199 34.1874 36.7774 34.1299 36.6424V36.6624C33.9305 36.1016 33.7636 35.5298 33.6299 34.9499L33.4224 33.9799C33.3699 33.6724 33.3249 33.3924 33.2849 33.1649C33.2861 33.0027 33.276 32.8407 33.2549 32.6799C33.2549 32.7624 33.2274 32.7374 33.2199 32.6799C33.1899 32.2299 33.1949 32.6524 33.1524 32.1974C33.0956 31.6903 33.0739 31.1799 33.0874 30.6699C33.0874 30.3549 33.0874 30.0424 33.1024 29.7774C33.1174 29.5124 33.1474 29.2999 33.1599 29.1849C33.1324 28.9349 33.1849 28.6174 33.1724 28.3674V28.3949C33.1936 28.0539 33.2328 27.7142 33.2899 27.3774C33.3549 26.9324 33.4049 26.4824 33.4349 26.3274L33.4199 26.3674C33.4424 26.0974 33.4849 26.1424 33.5374 25.9349C33.4824 25.9549 33.4949 25.7224 33.5074 25.6349C33.5249 25.5024 33.5349 25.1949 33.5674 24.9774H33.5949C33.6007 24.8605 33.6157 24.7444 33.6399 24.6299L33.7124 24.3274C33.8356 23.9549 33.935 23.575 34.0099 23.1899L34.1474 22.9549V22.9149C34.0081 22.8082 33.8571 22.7177 33.6974 22.6449C33.4474 22.5399 33.1649 22.4924 33.0024 22.7349L32.9774 22.7174L32.9549 22.8249C32.9124 22.9499 32.9299 23.0149 32.9049 22.9999L32.9499 22.8274C32.9099 22.9524 32.9174 22.8599 32.9149 22.8074C32.9013 22.8559 32.8846 22.9035 32.8649 22.9499C32.8649 22.9799 32.8799 22.9349 32.8924 22.9174C32.8913 23.002 32.8786 23.0861 32.8549 23.1674C32.8199 23.2974 32.8074 23.1674 32.7699 23.3174C32.6624 23.7199 32.5474 24.1099 32.4524 24.5099C32.3574 24.9099 32.2874 25.3149 32.2149 25.7299C32.1999 25.7449 32.2149 25.7299 32.2149 25.6999C32.1824 25.9499 32.1299 26.1699 32.1124 26.4024C32.103 26.4372 32.085 26.469 32.0599 26.4949C32.0533 26.7042 32.0341 26.9129 32.0024 27.1199L31.9474 27.5724C31.9674 27.7249 31.9574 27.8099 31.9549 27.8149Z" fill="#1D1D1D"/>
<path d="M32.1226 45.705C32.1226 45.705 28.4726 41.045 30.0401 36.6475C31.6076 32.25 36.3401 29.96 39.6026 28.745C42.4576 27.68 48.7151 25.785 50.5551 24.61C50.6172 24.5716 50.6876 24.5485 50.7604 24.5425C50.8333 24.5366 50.9064 24.548 50.974 24.5758C51.0416 24.6036 51.1016 24.647 51.1491 24.7025C51.1967 24.758 51.2304 24.8239 51.2476 24.895C51.9626 27.8075 52.4626 32.3025 51.5626 35.035C50.5801 38.01 47.6401 43.3125 42.6251 46.82C37.0001 50.75 32.1226 45.705 32.1226 45.705Z" fill="white"/>
<path d="M32.4599 45.1476C32.3674 44.9576 32.1624 44.6475 31.9924 44.3525C32.1212 44.6325 32.2779 44.8989 32.4599 45.1476Z" fill="#1D1D1D"/>
<path d="M36.595 30.8748L36.62 30.8048C37.37 30.4298 36.855 30.7373 37.5475 30.3923C37.7975 30.1923 38.72 29.8699 38.9575 29.7399C38.9575 29.7399 39.3075 29.6048 39.295 29.6373C39.4823 29.5389 39.677 29.4553 39.8775 29.3873C39.9575 29.3473 39.815 29.3874 39.75 29.4124L40.265 29.2073C40.4725 29.1473 40.53 29.1498 40.31 29.2323C40.99 28.9823 43.0125 28.3273 45.06 27.6348C46.0775 27.2848 47.1 26.9273 47.96 26.5973C48.82 26.2673 49.5175 25.9723 49.8925 25.7923C49.6875 25.8548 49.2325 26.0773 49.0375 26.1048C49.4225 25.9198 49.625 25.8548 49.7875 25.7598C49.9274 25.7308 50.0622 25.6811 50.1875 25.6123L50.4675 25.4773L50.5475 25.4398L50.6025 25.4148C50.6025 25.4148 50.6025 25.4274 50.6025 25.4424C50.6012 25.4274 50.6012 25.4123 50.6025 25.3974C50.6038 25.4065 50.6038 25.4157 50.6025 25.4248C50.6175 25.4248 50.6225 25.4248 50.6275 25.4248L50.6625 25.5573L50.68 25.6299C50.6925 25.7049 50.7025 25.7574 50.8475 26.5374C51.015 27.4424 51.1275 27.8723 51.1675 28.3848C51.1675 28.3073 51.1675 28.1023 51.195 28.3398C51.17 28.3823 51.2925 28.9698 51.265 29.0898C51.2975 29.3223 51.34 30.0899 51.37 29.8199C51.37 29.9499 51.37 30.6223 51.34 30.2223C51.34 30.4498 51.355 30.6698 51.365 30.8323C51.365 30.7348 51.365 30.6373 51.365 30.5398C51.3925 31.3073 51.35 31.7223 51.365 32.2173C51.3775 32.1248 51.3925 32.0323 51.3975 31.9373C51.404 32.274 51.367 32.6101 51.2875 32.9373C51.3 32.7848 51.3125 32.6323 51.315 32.4773C51.2746 33.0747 51.1986 33.6691 51.0875 34.2574L51.1325 34.0473C51.1142 34.189 51.0867 34.3293 51.05 34.4673C51.0011 34.6823 50.9402 34.8943 50.8675 35.1023C50.6809 35.6614 50.4656 36.2105 50.2225 36.7473C49.71 37.8898 49.085 38.9798 48.905 39.3098L49.1175 39.0348L48.8025 39.5999C48.8425 39.5349 48.87 39.2724 48.9125 39.2249C48.0459 40.6361 47.0463 41.9613 45.9275 43.1823C44.8303 44.3817 43.6037 45.4557 42.27 46.3848C41.8425 46.6348 42.165 46.3848 42.165 46.3848C41.9658 46.5466 41.7534 46.6913 41.53 46.8174C41.405 46.8799 41.53 46.7773 41.605 46.7348C41.415 46.8498 41.23 46.9398 41.22 46.9573C41.47 46.8424 41.3875 46.9323 41.505 46.8998C41.315 47.0148 41.1125 47.0949 40.915 47.1924L40.93 47.1548L40.65 47.3123C40.58 47.3473 40.4975 47.3898 40.4 47.4373C40.3025 47.4848 40.165 47.5173 40.01 47.5623C38.9321 47.8699 37.7948 47.9051 36.7 47.6648C36.72 47.6523 36.95 47.6923 37.1725 47.7148L36.9225 47.6748C36.835 47.6548 36.7475 47.6349 36.6725 47.6149C36.8 47.6574 36.6875 47.6374 36.5675 47.6149C36.4475 47.5924 36.3175 47.5548 36.42 47.5873C35.6175 47.4673 34.67 46.9673 34.045 46.6248C33.712 46.6468 33.3779 46.6468 33.045 46.6248C32.5675 46.6073 32.08 46.5398 32.0575 46.5648C31.9027 46.4372 31.7565 46.2994 31.62 46.1523C31.8048 46.3662 32.0128 46.5591 32.24 46.7273H32.3C32.78 47.0848 32.3925 46.8374 32.8675 47.1774C32.5735 47.0271 32.3018 46.837 32.06 46.6123C32.3116 46.8484 32.5883 47.0563 32.885 47.2323C33.2075 47.4823 32.8225 47.2323 33.22 47.5198C33.5175 47.6973 33.9275 47.8973 34.2775 48.0898C35.145 48.5348 35.6675 48.6273 36.5275 48.8523H36.43C36.9264 48.9673 37.4331 49.0326 37.9425 49.0473C37.7775 49.0348 37.6375 49.0073 37.9825 49.0148C38.5189 49.0297 39.0556 48.9929 39.585 48.9048C39.7375 48.8723 39.885 48.8174 40.0325 48.7724C40.929 48.5437 41.7825 48.1714 42.56 47.6698L42.94 47.4198C43.0675 47.3348 43.19 47.2423 43.31 47.1498C43.56 46.9648 43.81 46.7823 44.06 46.5773L44.81 45.9473L45.56 45.2724C46.4803 44.3936 47.3358 43.4495 48.12 42.4473C48.83 41.5573 49.3375 40.7673 49.6375 40.3148L49.595 40.3898C50.1416 39.5415 50.6423 38.6644 51.095 37.7623C51.345 37.2423 51.595 36.6923 51.83 36.1073C51.95 35.8198 52.05 35.5173 52.1575 35.2123L52.295 34.7298C52.34 34.5673 52.365 34.4073 52.4025 34.2448C52.5271 33.6107 52.604 32.968 52.6325 32.3223C52.665 31.6923 52.6625 31.0723 52.6325 30.4948C52.5875 29.4699 52.4849 28.4483 52.325 27.4348C52.28 26.9098 52.15 26.1973 52.0425 25.6573C52.0925 25.9598 52.0425 25.8598 52.0025 25.6273C51.9625 25.3948 51.9275 25.2673 51.9 25.1498C51.8525 24.9623 51.82 24.7999 51.79 24.7099C51.7723 24.6323 51.7392 24.5592 51.6925 24.4948C51.6495 24.4312 51.6028 24.3703 51.5525 24.3123C51.4611 24.2069 51.3487 24.1217 51.2225 24.0623C50.9891 23.9471 50.7201 23.9274 50.4725 24.0074L50.17 24.1448L49.92 24.2998L49.8075 24.3598L49.7025 24.4124C49.5625 24.4824 49.4125 24.5648 49.235 24.6423C48.89 24.8023 48.485 24.9723 48.04 25.1423C47.15 25.4973 46.1025 25.8723 45.0625 26.2323C42.9825 26.9448 40.9325 27.6124 40.145 27.8824C39.295 28.2249 38.2025 28.6123 37.395 29.0173L37.5 28.9998C36.3502 29.518 35.2434 30.1266 34.19 30.8199C33.8375 31.0449 33.51 31.3073 33.19 31.5448L32.7375 31.9248L32.52 32.1073L32.3225 32.2973C32.0895 32.5092 31.8675 32.7328 31.6575 32.9673C31.48 33.1698 31.3275 33.3249 31.2425 33.4449C31.2754 33.4039 31.3105 33.3647 31.3475 33.3273C31.0375 33.7348 30.905 33.9098 30.775 34.0548C30.645 34.1998 30.555 34.3423 30.3275 34.6798C30.4125 34.6073 30.015 35.3948 29.8775 35.6998V35.6823L29.7025 36.1348C29.6203 36.3325 29.5543 36.5365 29.505 36.7448C29.45 36.9673 29.3825 37.1998 29.335 37.4323C29.2875 37.6648 29.2725 37.8948 29.245 38.1023L29.22 38.0674C29.1986 38.2733 29.1886 38.4803 29.19 38.6873C29.1763 38.9246 29.1763 39.1625 29.19 39.3998C29.21 39.6498 29.215 39.8723 29.245 40.0723L29.3225 40.5723C29.5653 42.0128 30.074 43.3954 30.8225 44.6498C30.9575 44.9423 31.105 45.2323 31.2625 45.5173L31.3475 45.6324C31.5718 45.7364 31.818 45.7844 32.065 45.7724C32.1363 45.7667 32.2033 45.736 32.2541 45.6857C32.3049 45.6353 32.3362 45.5686 32.3425 45.4973C32.3364 45.2007 32.25 44.9113 32.0925 44.6598H32.1325C32.065 44.5598 32.005 44.4548 31.94 44.3523C31.8272 44.1845 31.7293 44.0072 31.6475 43.8223C31.745 43.9948 31.835 44.1723 31.94 44.3398C31.7225 43.9623 31.89 44.2173 31.99 44.3398C31.8975 44.1848 31.815 44.0274 31.7525 43.8974C31.7025 43.8274 31.7725 43.9599 31.8 44.0198C31.6436 43.7803 31.5049 43.5296 31.385 43.2698C31.195 42.8673 31.4125 43.2274 31.2 42.7549C30.9319 42.1382 30.7218 41.4979 30.5725 40.8423C30.485 40.5198 30.4575 40.1948 30.4025 39.8698C30.3825 39.7098 30.3825 39.5473 30.37 39.3848C30.3575 39.2242 30.3575 39.0629 30.37 38.9023L30.39 38.4198C30.39 38.2598 30.4375 38.1048 30.4575 37.9473C30.5053 37.6324 30.5797 37.3222 30.68 37.0198C30.7256 36.8643 30.7824 36.7122 30.85 36.5648C30.915 36.4123 30.975 36.2598 31.0425 36.1073L31.275 35.6673L31.39 35.4473L31.5275 35.2348C31.57 35.1898 31.5275 35.2499 31.4925 35.3174L31.8075 34.8174C31.9225 34.6599 32.04 34.5123 32.1525 34.3623C32.2607 34.2187 32.3767 34.0809 32.5 33.9498C32.625 33.8123 32.75 33.6673 32.8725 33.5348C32.9543 33.4614 33.043 33.3961 33.1375 33.3398C33.6169 32.8541 34.1418 32.4154 34.705 32.0298C34.93 31.8798 35.1475 31.7223 35.365 31.5873L35.9675 31.2223L36.595 30.8748Z" fill="#1D1D1D"/>
<path d="M43.2876 33.7275C43.1843 33.7615 43.0866 33.8103 42.9976 33.8725C43.1016 33.8406 43.1996 33.7916 43.2876 33.7275Z" fill="#1D1D1D"/>
<path d="M42.9949 33.8726L42.9924 33.8751L42.9974 33.8726H42.9949Z" fill="#1D1D1D"/>
<path d="M38.2025 37.2502L38.22 37.3002C38 37.4852 38.1175 37.3002 37.9225 37.4902C37.8925 37.6152 37.5925 37.7852 37.5475 37.8752C37.5475 37.8752 37.45 37.9577 37.44 37.9352C37.44 37.9927 37.3475 38.0327 37.2925 38.0977C37.2775 38.1252 37.3175 38.0977 37.3425 38.0977L37.2125 38.2352C37.15 38.2752 37.12 38.2727 37.1775 38.2152L36.6775 38.6552C36.45 38.8502 36.21 39.1202 35.9525 39.3752C35.695 39.6302 35.4525 39.8927 35.2375 40.1252C35.0225 40.3577 34.88 40.5502 34.7975 40.6552C34.8625 40.6227 34.955 40.4827 35.03 40.4652C34.9575 40.5902 34.89 40.6177 34.87 40.6827C34.7825 40.6827 34.6575 40.9102 34.535 40.9502V41.0052L34.47 41.0427C34.3382 41.2327 34.1964 41.4155 34.045 41.5902C33.86 41.8527 33.8125 42.0077 33.6925 42.1377C33.7075 42.1177 33.77 42.0752 33.7275 42.1377C33.6925 42.1377 33.6175 42.3277 33.5675 42.3402C33.5225 42.4077 33.3625 42.6177 33.455 42.5727C33.41 42.5952 33.2625 42.7777 33.3275 42.6552C33.2827 42.71 33.2441 42.7695 33.2125 42.8327L33.2775 42.7552C33.161 42.9124 33.0589 43.0797 32.9725 43.2552L33.0425 43.1827C32.96 43.3202 32.89 43.4327 32.8175 43.4627L32.895 43.3152C32.7766 43.4954 32.6689 43.6824 32.5725 43.8752L32.615 43.8102L32.1775 44.7252C32.0825 44.9227 31.9875 45.1177 31.915 45.2802C31.8425 45.4427 31.805 45.5802 31.79 45.6452L31.8725 45.5527L31.8075 45.7652C31.8075 45.7427 31.7475 45.6202 31.7675 45.6052C31.6725 45.8227 31.3525 46.4902 31.1125 47.1852C31.0475 47.3577 30.9775 47.5277 30.925 47.6852C30.8725 47.8427 30.8225 48.0102 30.78 48.1552L30.58 48.7752C30.52 48.9427 30.52 48.7927 30.515 48.7752C30.475 48.9902 30.5275 48.8777 30.4825 49.0552C30.465 49.1027 30.4575 49.0377 30.46 49.0102C30.445 49.0902 30.415 49.1602 30.43 49.1702C30.465 49.0752 30.4975 49.1277 30.5375 49.0927L30.4775 49.3202L30.4525 49.3052C30.4689 49.429 30.4604 49.5548 30.4275 49.6752C30.335 50.0552 30.275 50.4777 30.205 50.8652C30.1875 50.8652 30.1875 50.7727 30.205 50.6902C30.1925 50.7427 30.185 50.8227 30.17 50.8677C30.21 50.7777 30.17 51.0352 30.19 50.9627C30.2275 51.2602 30.11 51.6227 30.1425 51.8802C30.494 52.0979 30.8571 52.2966 31.23 52.4752C31.2264 52.5314 31.2197 52.5873 31.21 52.6427C31.2366 52.5622 31.2468 52.4772 31.24 52.3927L31.2025 52.3752C31.2025 52.1977 31.2275 52.3352 31.235 52.1627C31.2675 52.1627 31.265 52.3152 31.26 52.4552C31.26 52.3302 31.3025 52.2052 31.26 52.1527C31.28 52.0352 31.2975 52.1677 31.32 52.0277C31.3001 51.9119 31.3001 51.7936 31.32 51.6777C31.385 51.4002 31.32 51.2427 31.385 50.9877V51.0177C31.41 50.9302 31.4225 50.7502 31.47 50.5902C31.455 50.6352 31.425 50.6702 31.44 50.5727C31.4925 50.3902 31.495 50.2577 31.5425 50.1252C31.5425 50.0802 31.5425 50.0352 31.5425 49.9902C31.58 49.8277 31.6475 49.5477 31.7275 49.2077C31.8075 48.8677 31.9375 48.4777 32.0475 48.0827C32.1575 47.6877 32.3275 47.3077 32.445 46.9752C32.5625 46.6427 32.695 46.3877 32.77 46.2252V46.2502C32.875 46.0177 33 45.7202 33.1775 45.4077C33.355 45.0952 33.5175 44.7402 33.73 44.4077L34.335 43.4277L34.8825 42.6377C35.0123 42.5157 35.135 42.3863 35.25 42.2502C35.185 42.3202 35.185 42.2802 35.23 42.2202C35.57 41.8202 35.23 42.1802 35.5675 41.7652C35.9295 41.2966 36.3212 40.8515 36.74 40.4327C36.99 40.1702 37.24 39.9102 37.4675 39.6827L37.99 39.2277C38.175 38.9952 38.465 38.7727 38.6575 38.5552L38.6425 38.5827C38.7425 38.4652 39.1425 38.1502 39.5575 37.8327C39.9725 37.5152 40.3675 37.1727 40.5175 37.0827L40.4725 37.1052C40.71 36.8977 40.705 36.9627 40.915 36.8302C40.8575 36.8077 41.0575 36.6277 41.1375 36.5627V36.5752C41.2575 36.4752 41.515 36.2327 41.7175 36.0752V36.1027C41.8174 36.0122 41.9235 35.9287 42.035 35.8527L42.34 35.6552C42.7378 35.4355 43.1234 35.1943 43.495 34.9327L43.79 34.8352L43.825 34.8052C43.8054 34.6273 43.7634 34.4526 43.7 34.2852C43.6 34.0352 43.4225 33.8052 43.1025 33.8927V33.8652L43 33.9352C42.865 34.0077 42.825 34.0727 42.8175 34.0427L42.9925 33.9327C42.8625 34.0077 42.9425 33.9327 42.9925 33.8927C42.9435 33.9242 42.8925 33.9526 42.84 33.9777C42.82 34.0027 42.8625 33.9777 42.8875 33.9777C42.8158 34.046 42.737 34.1063 42.6525 34.1577C42.52 34.2402 42.62 34.1252 42.465 34.2202C42.06 34.4702 41.6525 34.7202 41.2575 34.9702C40.8625 35.2202 40.4825 35.5152 40.0925 35.8027C40.0675 35.8027 40.0925 35.8027 40.1075 35.7727C39.88 35.9552 39.6625 36.0977 39.4625 36.2727C39.428 36.2953 39.3885 36.3091 39.3475 36.3127C39.1748 36.4811 38.9928 36.6396 38.8025 36.7877L38.3975 37.1202L38.2025 37.2502Z" fill="#1D1D1D"/>
<path d="M27.6724 47.3875C29.2866 47.3485 30.8302 46.7183 32.0105 45.6164C33.1907 44.5146 33.9253 43.0177 34.0749 41.41C34.2411 39.9195 34.1369 38.4111 33.7674 36.9575C32.5174 32.4575 27.9699 29.83 24.8049 28.3825C22.1449 27.165 16.4099 24.955 14.4099 23.6325C14.3215 23.5727 14.2204 23.5345 14.1145 23.5211C14.0087 23.5076 13.9012 23.5192 13.8006 23.555C13.7001 23.5908 13.6094 23.6497 13.5359 23.727C13.4624 23.8043 13.4081 23.8979 13.3774 24C12.4899 26.855 11.7424 31.0975 12.4199 33.795C13.1699 36.8325 15.5349 42.7575 20.7449 45.965C23.2499 47.5 25.1549 47.4475 27.6724 47.3875Z" fill="white"/>
<path d="M27.97 47.9723C28.1273 47.9841 28.2852 47.9841 28.4425 47.9723L29.0225 47.8848C28.715 47.8923 28.3975 47.9523 27.97 47.9723Z" fill="#1D1D1D"/>
<path d="M27.3875 46.6875H27.0925C27.19 46.695 27.2925 46.6925 27.3875 46.6875Z" fill="#1D1D1D"/>
<path d="M31.9825 32.4075H31.9075C31.772 32.2706 31.645 32.1253 31.5275 31.9725C31.4245 31.83 31.3026 31.7021 31.165 31.5925C30.9349 31.4284 30.7168 31.2479 30.5125 31.0525C30.3091 30.8725 30.0945 30.7055 29.87 30.5525C29.87 30.5525 29.5575 30.3025 29.59 30.3025C29.3962 30.1908 29.21 30.0663 29.0325 29.93C28.95 29.89 29.0825 29.975 29.1325 30.0275L28.6325 29.7175C28.45 29.5825 28.415 29.5325 28.6325 29.665C28.3175 29.45 27.6875 29.06 26.8825 28.62C26.0775 28.18 25.085 27.7075 24.095 27.2775C22.1125 26.415 20.1325 25.585 19.4075 25.2775C19.58 25.385 20.0375 25.5575 20.1875 25.6725C19.795 25.5325 19.6275 25.4225 19.45 25.375C19.33 25.25 18.6175 24.9925 18.3575 24.8025L18.2325 24.7875L18.055 24.6825C17.2175 24.325 17.125 24.2775 17.055 24.245L16.2225 23.8275L15.68 23.56L15.2625 23.345C15.1325 23.2825 15.0325 23.2175 14.925 23.1575L14.8475 23.1125L14.77 23.0625L14.69 23.0175C14.5844 22.9564 14.4708 22.9102 14.3525 22.88C14.5 22.91 14.8525 23.0975 14.42 22.9325C14.2142 22.8533 13.9891 22.8394 13.775 22.8925C13.5286 22.9517 13.2992 23.0672 13.105 23.23C12.9215 23.4076 12.7908 23.6326 12.7275 23.88L12.6825 24.04C12.63 24.23 12.6025 24.3575 12.6625 24.235C12.6 24.3575 12.4125 25.04 12.4975 24.6275C12.4325 24.8575 12.3675 25.08 12.335 25.25L12.4225 24.955C12.2601 25.5229 12.1307 26.0997 12.035 26.6825L12.115 26.395C12.0561 26.7496 11.9726 27.0996 11.865 27.4425L11.94 26.9425C11.8143 27.5815 11.7217 28.2265 11.6625 28.875L11.695 28.625C11.5904 29.6506 11.5511 30.6819 11.5775 31.7125C11.6015 32.3506 11.6852 32.985 11.8275 33.6075C11.8875 33.89 11.96 34.1075 12.0175 34.31C12.0583 34.455 12.1067 34.5977 12.1625 34.7375C12.1375 34.62 12.1125 34.5025 12.095 34.3825C12.1625 34.5975 12.2425 34.805 12.315 35.0175C12.2925 34.9425 12.11 34.74 12.1025 34.6725C12.2075 35.02 12.4225 35.73 12.765 36.59C13.1519 37.5678 13.5994 38.5205 14.105 39.4425C14.6073 40.3613 15.1763 41.242 15.8075 42.0775L16.2025 42.5925C16.3275 42.75 16.4525 42.89 16.5625 43.0175C16.785 43.2675 16.9475 43.4825 17.0625 43.6C17.4275 44.0025 17.09 43.7075 17.0825 43.7075C17.5525 44.1725 17.3075 43.885 17.6975 44.29C17.805 44.4 17.655 44.29 17.5925 44.23C17.7055 44.3502 17.8284 44.4606 17.96 44.56C17.74 44.345 17.8675 44.4 17.79 44.2925L18.3225 44.7775H18.28C18.34 44.8325 18.43 44.885 18.5675 44.9875C18.78 45.128 18.9852 45.279 19.1825 45.44C19.3 45.5325 19.415 45.6275 19.5375 45.72L19.92 45.97C20.17 46.14 20.42 46.3275 20.705 46.47C21.2446 46.7916 21.8119 47.0644 22.4 47.285C22.2247 47.245 22.0533 47.1898 21.8875 47.12L22.415 47.3375C22.1425 47.2125 22.915 47.485 22.695 47.4C23.135 47.505 23.635 47.63 24.13 47.7075C24.5821 47.7816 25.0395 47.8175 25.4975 47.815C25.5325 47.7875 25.955 47.54 26.345 47.275C26.6192 47.109 26.8771 46.9173 27.115 46.7025C27.3475 46.7025 27.58 46.7025 27.65 46.7025C27.4003 46.6877 27.1498 46.6877 26.9 46.7025L26.86 46.7425C26.3075 46.76 26.7275 46.7225 26.1925 46.725C26.4923 46.6829 26.795 46.6662 27.0975 46.675C26.7 46.675 26.31 46.66 26.1525 46.69C25.7875 46.6725 26.19 46.655 25.7575 46.6325C25.4052 46.6447 25.0524 46.6289 24.7025 46.585C24.29 46.515 23.9775 46.475 23.675 46.4125C23.3526 46.3529 23.0375 46.259 22.735 46.1325L22.815 46.1525C22.4154 45.9979 22.027 45.8158 21.6525 45.6075C21.7725 45.68 21.87 45.755 21.6075 45.6225C21.2096 45.3944 20.8248 45.144 20.455 44.8725C20.3356 44.8097 20.2196 44.7404 20.1075 44.665C19.91 44.5075 19.635 44.3025 19.315 44.04C18.995 43.7775 18.635 43.455 18.2725 43.0625C17.4323 42.2145 16.6785 41.2849 16.0225 40.2875C15.3608 39.283 14.7822 38.2262 14.2925 37.1275C13.9564 36.3713 13.6585 35.5987 13.4 34.8125L13.43 34.8875C13.31 34.5175 13.18 34.095 13.06 33.6375C12.9483 33.1583 12.8748 32.6709 12.84 32.18C12.7788 31.0261 12.8299 29.869 12.9925 28.725C13.1483 27.5574 13.3746 26.4003 13.67 25.26C13.7425 24.9925 13.81 24.7275 13.885 24.475L13.9575 24.225C13.9648 24.205 13.9779 24.1876 13.995 24.175C14.0119 24.162 14.0321 24.154 14.0533 24.1518C14.0745 24.1496 14.0958 24.1533 14.115 24.1625H14.13H14.15L14.3025 24.255C14.4025 24.315 14.5025 24.3775 14.5975 24.4275C15.1114 24.7439 15.6422 25.0318 16.1875 25.29C15.92 25.145 16.0225 25.1725 16.235 25.29C17.735 25.995 16.345 25.325 17.8675 26.005L22.9575 28.18C24 28.6275 25.015 29.0825 25.84 29.52C26.665 29.9575 27.305 30.35 27.655 30.5675C28.4703 31.0507 29.2416 31.6045 29.96 32.2225L29.8875 32.1725C29.9725 32.2475 30.115 32.3625 30.285 32.5225C30.455 32.6825 30.6575 32.8775 30.8725 33.1075C31.3633 33.631 31.8028 34.2003 32.185 34.8075C32.8051 35.8242 33.2244 36.9504 33.42 38.125L33.405 37.985C33.465 38.2563 33.5001 38.5324 33.51 38.81C33.51 38.9875 33.51 39.1425 33.51 39.5C33.56 39.4025 33.605 40.1975 33.5875 40.5V40.4875C33.5875 40.715 33.5875 41.105 33.54 41.5025C33.5251 41.705 33.4967 41.9063 33.455 42.105C33.42 42.2971 33.3724 42.4867 33.3125 42.6725L33.295 42.635C33.1928 43.008 33.0459 43.3672 32.8575 43.705L32.7075 43.9725L32.5475 44.2075L32.41 44.41C32.365 44.47 32.3225 44.52 32.2875 44.5625C31.9072 45.0335 31.456 45.4426 30.95 45.775C30.3788 46.155 29.7534 46.4467 29.095 46.64C28.8163 46.6962 28.5339 46.733 28.25 46.75C28.21 46.75 28.1675 46.75 28.1275 46.77C28.1275 46.77 28.05 46.835 27.9525 46.935C27.8399 47.0424 27.7453 47.1674 27.6725 47.305C27.6335 47.3653 27.618 47.4379 27.6291 47.509C27.6402 47.58 27.677 47.6444 27.7325 47.69C27.832 47.7574 27.9444 47.8034 28.0625 47.825C28.1516 47.8448 28.2417 47.859 28.3325 47.8675C28.4483 47.8735 28.5643 47.8735 28.68 47.8675L28.6525 47.9C28.7875 47.875 28.9225 47.855 29.0575 47.825C29.54 47.7175 29.75 47.62 29.725 47.6525C29.51 47.7225 29.2875 47.77 29.07 47.8275C29.5525 47.71 29.2225 47.8125 29.04 47.875C29.2425 47.825 29.44 47.7775 29.6025 47.7425C29.695 47.7075 29.53 47.7425 29.4525 47.765L29.66 47.7L29.8875 47.6075C30.0425 47.5425 30.2075 47.4875 30.3575 47.425C30.82 47.2075 30.4075 47.4575 30.945 47.195C32.3412 46.4551 33.4597 45.2822 34.1325 43.8525C34.4684 43.1431 34.6839 42.3827 34.77 41.6025C34.8527 40.8555 34.877 40.1033 34.8425 39.3525C34.8425 39.2825 34.855 39.3525 34.865 39.4525C34.8305 38.5841 34.6997 37.7221 34.475 36.8825C34.4451 36.7605 34.4217 36.637 34.405 36.5125C34.405 36.55 34.32 36.2825 34.175 35.87L33.865 35.175C33.75 34.925 33.59 34.675 33.45 34.3975C33.31 34.12 33.12 33.8975 32.9675 33.6475C32.815 33.3975 32.635 33.21 32.4975 33.025C32.3849 32.8765 32.2647 32.7338 32.1375 32.5975L31.9825 32.4075Z" fill="#1D1D1D"/>
<path d="M19.4751 34.2002C19.5416 34.2536 19.6169 34.2951 19.6976 34.3227C19.6325 34.2672 19.5568 34.2255 19.4751 34.2002Z" fill="#1D1D1D"/>
<path d="M31.8925 47.3276L31.875 47.2476C31.8794 47.2745 31.8852 47.3012 31.8925 47.3276Z" fill="#1D1D1D"/>
<path d="M23.6901 36.3727L23.7301 36.3402C23.9076 36.4677 23.7501 36.4252 23.9201 36.5327C24.0251 36.5327 24.1901 36.7352 24.2676 36.7452C24.2676 36.7452 24.3426 36.8077 24.3251 36.8227C24.3726 36.8227 24.4126 36.8752 24.4701 36.9027C24.5276 36.9302 24.4701 36.8852 24.4551 36.8652L24.5801 36.9377C24.6201 36.9802 24.6176 37.0077 24.5651 36.9752C24.7101 37.0902 25.1051 37.4752 25.5151 37.8227C25.9251 38.1702 26.2651 38.6102 26.4201 38.7452C26.4051 38.6902 26.3051 38.6127 26.3051 38.5477C26.3976 38.6077 26.4076 38.6677 26.4601 38.6827C26.4426 38.7527 26.5976 38.8727 26.6001 38.9777H26.6476L26.6626 39.0327C26.7933 39.1493 26.9076 39.283 27.0026 39.4302C27.1601 39.6102 27.2751 39.6652 27.3326 39.7902C27.3326 39.7727 27.3101 39.7152 27.3551 39.7627C27.3326 39.7902 27.4701 39.8852 27.4601 39.9302C27.4976 39.9777 27.6076 40.1427 27.6076 40.0602C27.6076 40.1002 27.7001 40.2527 27.6251 40.1777C27.6511 40.2243 27.6821 40.2679 27.7176 40.3077L27.6851 40.2377C27.7544 40.3661 27.8383 40.4861 27.9351 40.5952C27.9351 40.5702 27.9176 40.5452 27.9101 40.5227C27.9742 40.5908 28.0123 40.6793 28.0176 40.7727L27.9426 40.6727C28.0217 40.8152 28.1128 40.9507 28.2151 41.0777L28.1851 41.0277C28.3474 41.2281 28.4944 41.4404 28.6251 41.6627C28.7497 41.8851 28.8866 42.1005 29.0351 42.3077V42.2102L29.1401 42.3502C29.1401 42.3327 29.0001 42.3252 29.0026 42.3052C29.0476 42.3852 29.1251 42.5552 29.2176 42.7702C29.3101 42.9852 29.4351 43.2402 29.5376 43.5027C29.6401 43.7652 29.7326 44.0302 29.8151 44.2527C29.8976 44.4752 29.9376 44.6502 29.9576 44.7302C29.9801 44.8677 29.9126 44.7727 29.9051 44.7727C29.9676 44.9252 29.9626 44.8302 30.0026 44.9652C30.0026 45.0027 29.9751 44.9652 29.9626 44.9452C29.9851 45.0027 29.9901 45.0627 30.0076 45.0627C30.0076 44.9852 30.0501 45.0027 30.0676 44.9627L30.1176 45.1377H30.0876C30.1554 45.2069 30.203 45.2934 30.2251 45.3877C30.2876 45.6852 30.3926 45.9952 30.4501 46.2977C30.4326 46.2977 30.4101 46.2352 30.3851 46.1752C30.3995 46.2206 30.4079 46.2676 30.4101 46.3152C30.4101 46.2352 30.4576 46.4352 30.4551 46.3752C30.5363 46.5989 30.6056 46.8267 30.6626 47.0577C30.7226 47.0577 31.7726 47.2727 31.8451 47.2602C31.8551 47.3089 31.8618 47.3581 31.8651 47.4077C31.8707 47.3374 31.8613 47.2666 31.8376 47.2002H31.7976C31.7551 47.0527 31.8126 47.1602 31.7826 47.0152C31.8101 47.0002 31.8451 47.1352 31.8726 47.2652C31.8551 47.1577 31.8551 47.0477 31.8126 47.0152C31.8126 46.9127 31.8526 47.0152 31.8426 46.8952C31.8016 46.801 31.7731 46.7018 31.7576 46.6002C31.7326 46.3502 31.6251 46.2427 31.6051 46.0152L31.6226 46.0352C31.6226 45.9552 31.5651 45.8077 31.5426 45.6627C31.5426 45.7052 31.5426 45.7452 31.5101 45.6627C31.4851 45.4977 31.4376 45.3952 31.4301 45.2702L31.3676 45.1652C31.3351 45.0252 31.2626 44.7852 31.1651 44.4952C31.0676 44.2052 30.9601 43.8627 30.8251 43.5302L30.6326 43.0302C30.5701 42.8702 30.4951 42.7202 30.4351 42.5802L30.1451 41.9377L30.1601 41.9552C29.9451 41.5627 29.6601 40.9552 29.2876 40.3677L29.0201 39.9327C28.9276 39.7927 28.8276 39.6602 28.7351 39.5327C28.5501 39.2827 28.3826 39.0452 28.2351 38.8652C28.1486 38.7268 28.0534 38.5941 27.9501 38.4677C27.9926 38.5402 27.9501 38.5327 27.9176 38.4802C27.6301 38.1277 27.8801 38.4802 27.5801 38.1252L27.4076 37.9277L27.1576 37.6777L26.5326 37.0277C26.0726 36.6002 25.6051 36.1902 25.4376 36.0277C25.2051 35.9177 24.9726 35.7077 24.7551 35.5852H24.7826C24.7251 35.5502 24.6101 35.4652 24.4626 35.3602L24.2126 35.1827L23.9351 35.0127C23.5551 34.7802 23.1701 34.5477 23.0326 34.4752L23.0651 34.5027C22.9342 34.4347 22.8095 34.3552 22.6926 34.2652C22.6926 34.3202 22.4751 34.2477 22.3951 34.2152C22.2726 34.1677 21.9876 34.0802 21.7901 33.9927L21.8076 33.9727C21.6326 33.9252 21.3351 33.7577 21.2101 33.7227C20.8634 33.5598 20.5069 33.4187 20.1426 33.3002L19.9276 33.1377H19.8901C19.7779 33.2694 19.6814 33.4137 19.6026 33.5677C19.4876 33.8177 19.4251 34.0902 19.6226 34.2727L19.6076 34.2977L19.7001 34.3277C19.8051 34.3802 19.8676 34.3702 19.8501 34.3927L19.7001 34.3327C19.8076 34.3827 19.7276 34.3677 19.6801 34.3677C19.7223 34.3847 19.7633 34.4047 19.8026 34.4277C19.8276 34.4277 19.8026 34.4102 19.7751 34.4002C19.8511 34.407 19.9255 34.4264 19.9951 34.4577C20.1076 34.5027 19.9951 34.5027 20.1176 34.5527L20.6176 34.7627L20.8676 34.8652C20.9501 34.9027 21.0301 34.9477 21.1176 34.9877C21.4401 35.1527 21.7651 35.3152 22.1026 35.4702C22.1026 35.4877 22.1026 35.4702 22.0726 35.4702C22.2626 35.5543 22.4478 35.6486 22.6276 35.7527C22.6532 35.7751 22.6729 35.8035 22.6851 35.8352C23.0332 35.9887 23.3692 36.1684 23.6901 36.3727Z" fill="#1D1D1D"/>
</g>
<defs>
<clipPath id="clip0_1348_10154">
<rect width="64" height="64" fill="white" transform="translate(0 0.5)"/>
</clipPath>
</defs>
</svg>
