<svg width="64" height="66" viewBox="0 0 64 66" fill="none" xmlns="http://www.w3.org/2000/svg">
<circle cx="32" cy="33.5" r="32" fill="#FAC3C8"/>
<g clip-path="url(#clip0_1348_10180)">
<path d="M32.3788 24.2051L32.8209 15.8052C34.5893 17.5736 39.1577 16.542 41.2208 15.8052V22.8788L52.7154 46.3101C51.8312 48.5206 47.4987 53.1184 37.2419 53.8258C26.9852 54.5331 21.7684 48.2258 20.4421 44.9838L32.3788 24.2051Z" fill="#F5F5F5"/>
<path d="M31.9086 16.2871C31.8775 16.6237 31.8753 17.2017 31.8687 17.7519C31.8997 17.3294 31.913 16.8791 31.9086 16.2871Z" fill="#1D1D1D"/>
<path d="M40.2327 13.7266C40.2327 13.8635 40.246 14.0191 40.2526 14.1769C40.246 14.0353 40.2393 13.8728 40.2327 13.7266Z" fill="#1D1D1D"/>
<ellipse cx="36.7998" cy="45.7628" rx="15.7893" ry="7.89464" fill="#F6C0C6"/>
<path d="M21.809 40.9747V41.0745C21.1431 42.1795 21.5649 41.3624 20.97 42.3931C20.9009 42.5528 20.8223 42.7078 20.7347 42.8573L20.5638 43.1498L20.3684 43.4725C20.2051 43.7522 20.0916 44.0605 20.0333 44.3824C19.9942 44.6068 19.9867 44.836 20.0111 45.0626C20.009 45.1028 20.009 45.1431 20.0111 45.1833C20.0193 45.2753 20.0327 45.3668 20.051 45.4572C20.0865 45.6545 20.1509 45.8379 20.1309 45.817L20.3529 46.2813C20.4366 46.462 20.5307 46.6372 20.6348 46.8059C20.7147 46.9243 20.5926 46.7084 20.5505 46.6109C20.7058 46.8663 20.8523 47.1286 21.0255 47.37C21.2053 47.6695 21.2341 47.7554 21.0255 47.4397C21.5917 48.3193 22.2564 49.1251 23.0054 49.8399C24.1482 50.9259 25.4376 51.8301 26.8322 52.5234C28.2252 53.1984 29.6829 53.7167 31.1806 54.0694L32.1284 54.2621C32.4259 54.3201 32.7033 54.3874 32.9608 54.4107L34.1883 54.5639C33.8909 54.4942 33.165 54.4223 32.8986 54.3317C33.5202 54.3828 33.8065 54.4594 34.0817 54.464C34.3037 54.594 35.438 54.5987 35.9041 54.6962L36.1039 54.659L36.4102 54.7031C37.7709 54.7031 37.924 54.6823 38.0395 54.6869H38.3325H38.7298H39.0383L39.4401 54.666C40.1371 54.6173 40.6498 54.5685 41.0871 54.529C41.5244 54.4896 41.8796 54.406 42.268 54.3712C42.1526 54.3851 41.844 54.4014 42.2014 54.341C42.268 54.3689 43.1581 54.1925 43.3379 54.1948C43.6864 54.1158 44.8229 53.8791 44.4278 53.9116C44.5254 53.9116 44.8295 53.8466 45.0337 53.8117C45.238 53.7769 45.3378 53.7398 45.0337 53.8396C45.3711 53.7398 45.6997 53.6493 45.9394 53.5657L45.4954 53.6818L46.2635 53.4496L46.592 53.3544C46.6963 53.3196 46.794 53.2778 46.8894 53.2407C47.2734 53.0921 47.6064 52.9575 47.9593 52.7904L47.542 52.9366L48.0148 52.7439L48.4188 52.5397C48.6105 52.4421 48.8077 52.3568 49.0092 52.2843L48.3433 52.6395L49.0758 52.2611C49.1865 52.2064 49.2933 52.1435 49.3955 52.0731L49.6907 51.8804L50.2634 51.4997L50.8227 51.0354L50.5364 51.2676L51.0935 50.8033C51.3155 50.5712 51.5907 50.3112 51.8815 49.9978C52.5523 49.256 53.0745 48.3816 53.4176 47.4257C53.4597 47.2934 53.4886 47.1472 53.5219 47.0102C53.5403 46.9399 53.5551 46.8686 53.5663 46.7966L53.5863 46.5645C53.5956 46.4836 53.6 46.4022 53.5996 46.3208C53.5896 46.217 53.574 46.114 53.553 46.012C53.513 45.8797 53.4753 45.7265 53.4309 45.6174C53.2622 45.1392 53.0779 44.7399 52.9137 44.3685C52.5785 43.6327 52.2966 43.0755 52.1612 42.8202L52.3521 43.3193L51.9082 42.4349C51.957 42.5393 52.2211 42.8109 52.2522 42.8991C51.8083 41.9288 50.3455 38.9807 48.845 36.0813C47.3445 33.182 45.8417 30.3151 45.3911 29.4469C45.0404 28.7505 45.3756 29.2914 45.3911 29.296C44.9294 28.4534 45.1691 28.9502 44.7829 28.2282C44.6852 28.0263 44.8295 28.2538 44.8939 28.3605C44.723 28.0472 44.5787 27.7477 44.5499 27.7338C44.7474 28.1354 44.6187 27.9914 44.6808 28.1725L44.1925 27.244L44.2391 27.2718C44.1303 27.0629 43.8906 26.789 43.42 25.879C43.2158 25.496 43.0072 25.1037 42.7985 24.7184L42.4789 24.1218L42.3213 23.8246C42.2747 23.7364 42.2303 23.6459 42.1903 23.5554C42.0298 23.1873 41.9235 22.796 41.8751 22.3947C41.864 22.2949 41.8551 22.195 41.8507 22.0952L41.8374 21.761C41.8374 21.5288 41.8196 21.3153 41.813 21.0947C41.8495 21.3485 41.8725 21.6043 41.8818 21.8608C41.8818 21.6286 41.8551 21.2642 41.8574 21.046C41.844 21.4731 41.8063 20.3078 41.8063 20.6397C41.682 19.3514 41.6798 17.6777 41.5843 16.5379C41.5133 16.4428 40.3702 14.1469 40.2925 14.1493C40.2791 13.7964 40.2658 13.4529 40.2681 13.3345C40.2547 13.4273 40.2681 14.1237 40.2991 14.4951L40.3435 14.5578C40.3923 15.4074 40.3258 14.7575 40.3635 15.5885C40.3302 15.6349 40.2925 14.8689 40.2614 14.1957C40.2836 14.8039 40.2836 15.4074 40.3302 15.6535C40.3302 16.2245 40.2858 15.5908 40.2991 16.2779C40.3302 16.7677 40.3879 17.4084 40.3901 17.9702C40.4101 19.3352 40.5255 20.0594 40.5411 21.3036L40.5255 21.1713C40.5255 21.4035 40.5389 21.7192 40.5544 22.0999C40.5782 22.5645 40.6527 23.0248 40.7764 23.4718C40.7142 23.2095 40.6787 22.982 40.8274 23.5205C40.8968 23.759 40.9829 23.9917 41.0849 24.2169C41.1315 24.3214 41.1826 24.4212 41.2314 24.5187C41.2802 24.6162 41.318 24.6766 41.3579 24.7508C41.5244 25.0596 41.6731 25.3405 41.8174 25.6399L42.1459 26.1831C42.8873 27.5759 44.7297 31.0115 46.5387 34.4657C48.3478 37.9198 50.1146 41.4018 50.7894 42.8225L50.7317 42.7134C50.9936 43.2543 51.2844 43.8741 51.5885 44.5357C51.7372 44.8699 51.8904 45.2181 52.0325 45.5733L52.139 45.8403L52.2322 46.1026C52.2677 46.1954 52.2766 46.2581 52.3033 46.3347V46.3626H52.5097H52.654C52.9936 46.3626 52.2345 46.3626 52.3099 46.3626V46.4136C52.3055 46.4845 52.2974 46.555 52.2855 46.6249L52.2234 46.8733C52.1834 47.0427 52.099 47.2168 52.0391 47.3932L51.775 47.9132L51.4198 48.4169C51.3066 48.5841 51.1623 48.735 51.0358 48.8975C50.9069 49.0641 50.7651 49.2194 50.6118 49.3617L50.3899 49.5939C50.3215 49.6704 50.2472 49.7411 50.1679 49.8051L49.6729 50.2021C48.3211 51.242 46.6919 51.9129 45.1536 52.3354C44.7809 52.452 44.4022 52.5465 44.0193 52.6186C43.6464 52.6975 43.2868 52.788 42.9361 52.8507C42.2258 52.9436 41.5732 53.0527 40.9872 53.1177C40.621 53.1177 40.1859 53.1432 39.7486 53.1664L39.096 53.2036C38.8741 53.2175 38.6765 53.2036 38.4856 53.2036C38.9118 53.2198 38.7653 53.243 38.4346 53.2407C37.267 53.2407 37.2271 53.2407 37.1849 53.2523C37.1155 53.2595 37.0456 53.2595 36.9762 53.2523H36.6055L35.9197 53.2175C35.5823 53.1966 35.125 53.1827 34.5878 53.1339L33.7155 53.0225L33.2338 52.9621L32.9852 52.9296L32.7344 52.8809C31.2262 52.6181 29.7496 52.1854 28.3305 51.5902C26.9444 51.0051 25.6512 50.2037 24.4949 49.2132C23.7341 48.5571 23.0534 47.8055 22.4683 46.9754C22.3662 46.8524 22.2774 46.7108 22.1797 46.5738L22.0354 46.3626L21.9023 46.1304C21.8112 45.9795 21.7202 45.8287 21.6425 45.6662L21.5182 45.434C21.3768 45.1477 21.3435 44.8163 21.425 44.5055C21.4559 44.3868 21.5014 44.2729 21.5604 44.1666L21.8135 43.7209L21.7557 43.8439L27.4471 34.2312L27.3272 34.4192C28.0419 33.1564 27.9931 33.3561 28.5835 32.3811C28.4615 32.4809 29.0674 31.3969 29.3072 30.9883V31.0115C29.6645 30.3917 30.4503 28.9734 31.0474 27.9543V28.01C31.2849 27.5782 31.6445 26.9677 31.9864 26.3851C32.1595 26.0856 32.3215 25.8349 32.4813 25.5331C32.6047 25.2956 32.7094 25.048 32.7943 24.7926C32.9597 24.3072 33.0547 23.7986 33.0762 23.2838C33.0762 22.7777 33.0895 22.2345 33.0962 21.6728C33.0962 20.5631 33.1095 19.3862 33.0962 18.2906L33.1806 16.8768V16.6702C33.1806 16.6702 32.1639 14.393 31.9486 17.2831L31.9175 17.2367V17.81C31.9042 18.5064 31.9375 18.8128 31.9175 18.7664V17.8379C31.9175 18.5343 31.8931 18.0445 31.8776 17.7822C31.8776 18.07 31.8776 18.3486 31.8621 18.5784C31.8621 18.713 31.8754 18.4786 31.8798 18.3718C31.8909 18.7409 31.9198 19.2585 31.9042 19.7089C31.9042 20.4053 31.8576 19.7553 31.8554 20.5771C31.8554 21.1203 31.8554 21.6611 31.8443 22.202V23.0098C31.8443 23.1538 31.8443 23.242 31.8443 23.3673C31.8381 23.4786 31.8262 23.5894 31.8088 23.6993C31.7427 24.141 31.6005 24.5665 31.3893 24.9551C31.3648 25.0039 31.336 25.0503 31.3093 25.099L31.2095 25.2662L31.0052 25.6051L30.5946 26.2876L27.3139 31.7892C27.2517 31.8681 27.3139 31.7683 27.3716 31.6568C26.7057 32.785 26.1241 33.7855 25.5226 34.8139C25.4309 34.9602 25.3309 35.1005 25.2229 35.234C25.2829 35.1574 24.4505 36.5735 23.5959 38.0196L21.809 40.9747Z" fill="#1D1D1D"/>
<path d="M30.6413 30.6909C30.5792 30.8047 30.517 30.9231 30.4526 31.0275C30.5081 30.9323 30.5681 30.8279 30.6413 30.6909Z" fill="#1D1D1D"/>
<path d="M27.0764 37.2048V37.2303C26.9121 37.5321 27.0187 37.3115 26.8699 37.5947C26.8211 37.7108 26.6169 38.059 26.5703 38.1588L26.5348 38.2238C26.5236 38.2449 26.511 38.2651 26.497 38.2842C26.4815 38.3283 26.4238 38.4258 26.3772 38.5163C26.3638 38.5488 26.3927 38.4931 26.4082 38.4722L26.3017 38.6718C26.2595 38.7484 26.244 38.7647 26.2884 38.6718C26.0087 39.1918 24.6702 41.6896 24.3661 42.2397C24.4105 42.1701 24.4993 42.0076 24.5437 41.9357C24.4682 42.0865 24.4238 42.1515 24.395 42.2212C24.3661 42.2908 24.2174 42.5438 24.1441 42.6483L24.1286 42.6947L24.0864 42.7667C23.7446 43.4213 24.0087 42.9176 23.7002 43.4933C23.5226 43.8276 23.4472 43.9924 23.3451 44.1758C23.3606 44.1479 23.4028 44.0782 23.3584 44.1641C23.3473 44.1641 23.2318 44.4148 23.2008 44.459C23.1519 44.5518 22.9788 44.8536 23.0543 44.7538C23.0395 44.7756 23.0269 44.7989 23.0165 44.8234L22.9988 44.8698V44.9186C22.9988 44.9789 23.0143 45.0091 22.9988 44.9186C23.0115 45.0111 23.0331 45.1021 23.0631 45.1902L23.0298 45.0602C23.0644 45.1991 23.1074 45.3356 23.1586 45.4687C23.1946 45.5732 23.2407 45.6736 23.2962 45.7682L23.2452 45.6568C23.3384 45.8355 23.4028 45.9817 23.4405 46.0491C23.4033 45.9936 23.3699 45.9354 23.3406 45.875C23.4036 45.9982 23.4733 46.1175 23.5493 46.2325C23.616 46.3386 23.6902 46.4395 23.7712 46.5342L23.7135 46.4599L24.0087 46.836C24.1552 46.9939 24.3284 47.1888 24.5126 47.3699C24.6969 47.551 24.8944 47.7158 25.0542 47.8528L25.4182 48.1197L25.3117 48.0292L25.5226 48.1824C25.4982 48.1638 25.4094 48.1244 25.3894 48.1081C25.5953 48.2714 25.8102 48.4218 26.0331 48.5584L26.5259 48.8718L27.0852 49.1713C27.4559 49.3825 27.8488 49.5473 28.1685 49.6889L28.5902 49.877C28.7078 49.928 28.8122 49.9582 28.8632 49.9814C29.0541 50.0557 28.8943 50.0046 28.8921 50.0046C29.1274 50.0882 28.9942 50.0348 29.194 50.1091C29.2472 50.13 29.1806 50.1091 29.1496 50.1091C29.2383 50.1393 29.3183 50.1718 29.3271 50.1718C29.2184 50.13 29.2672 50.1393 29.2206 50.1161L29.4781 50.2112H29.4448C29.5025 50.2345 29.5935 50.253 29.8465 50.3482C30.275 50.4898 30.7477 50.6221 31.1784 50.7544L30.9875 50.7034L31.1872 50.7637C31.0829 50.7289 31.3715 50.8148 31.2894 50.7893C31.6112 50.8705 32.0307 50.968 32.3171 51.033H32.4281C32.5017 51.0443 32.5764 51.0443 32.65 51.033C32.7233 51.0189 32.7976 51.0119 32.872 51.0121C32.9297 51.0121 32.9652 51.0121 32.9674 51.0121L33.1583 51.1119C33.1384 51.1119 32.9741 51.0098 32.8853 50.9703H32.8698C32.6678 50.8775 32.8232 50.9425 32.6256 50.8473C32.7403 50.8891 32.8516 50.9403 32.9586 51.0005C32.8467 50.938 32.7318 50.8815 32.6145 50.831C32.4791 50.7614 32.6301 50.831 32.4702 50.7405C32.3548 50.6848 32.2017 50.6268 32.0707 50.5571C31.7555 50.3807 31.569 50.3645 31.2916 50.1904H31.3227C31.225 50.1254 31.0208 50.0441 30.8432 49.935C30.8942 49.9675 30.9342 50.0093 30.8232 49.9559C30.619 49.8329 30.4703 49.7841 30.326 49.6866L30.1684 49.6448C29.8177 49.4406 28.9254 49.0018 28.093 48.5074C27.871 48.396 27.6868 48.2474 27.4892 48.129C27.2917 48.0106 27.1008 47.8969 26.9454 47.7715C26.628 47.5394 26.3483 47.349 26.2173 47.219L26.244 47.2306C25.6726 46.7771 25.1665 46.24 24.7412 45.6359C24.643 45.4828 24.5533 45.3239 24.4727 45.16C24.4305 45.0764 24.4305 45.0787 24.4216 45.0625C24.4113 45.0467 24.4031 45.0295 24.3972 45.0114L24.3861 44.9859C24.3861 44.9859 24.3861 44.972 24.4016 44.965L24.4416 44.9302L24.4593 44.9139L24.4727 44.8838L24.5037 44.8211L24.6192 44.5889C24.7656 44.4053 24.8957 44.2079 25.0076 43.9993C24.9277 44.0922 24.9122 44.0341 24.9588 43.9529C25.2717 43.3772 24.9432 43.8949 25.2318 43.296C25.3872 42.9431 25.8178 42.1353 26.2395 41.3182C26.6613 40.5011 27.0808 39.7118 27.2451 39.417C27.3361 39.0479 27.5802 38.6649 27.689 38.3144V38.3561C27.7578 38.1751 28.0375 37.5994 28.3083 37.0121C28.5791 36.4248 28.8477 35.8212 28.9276 35.6193L28.8965 35.6703C28.9676 35.4665 29.0646 35.2736 29.1851 35.097C29.1185 35.097 29.2184 34.7766 29.265 34.6559C29.3294 34.4725 29.4603 34.0454 29.578 33.7483L29.5957 33.7738C29.6734 33.5138 29.871 33.0565 29.9398 32.8754C30.1151 32.4762 30.3726 31.8541 30.5569 31.29C30.6079 31.1762 30.6523 31.0578 30.6967 30.9394L30.7122 30.8837L30.7278 30.6516C30.7278 30.5889 30.6834 30.6098 30.4903 30.9394L30.417 31.0718C30.3282 31.2296 30.2927 31.3039 30.2949 31.3039L30.4148 31.0857C30.326 31.2435 30.3859 31.1321 30.4148 31.0694L30.3105 31.2528C30.2949 31.2853 30.326 31.2319 30.3393 31.2064L30.1706 31.5198C30.0818 31.6823 30.1706 31.5198 30.0552 31.7171L28.4459 34.6954C28.4304 34.7186 28.4459 34.6954 28.4615 34.6606L27.9975 35.5241C27.9531 35.6007 27.9376 35.6193 27.9243 35.6402C27.9376 35.6193 27.729 36.0069 27.5159 36.4039L27.0764 37.2048Z" fill="#1D1D1D"/>
<path d="M48.8828 48.208C48.9228 48.1523 48.9827 48.0501 49.0382 47.9526L48.8828 48.208Z" fill="#1D1D1D"/>
<path d="M49.0377 47.9502L49.0359 47.952L49.0377 47.9502Z" fill="#1D1D1D"/>
<path d="M48.9605 42.7734H48.9427C48.8732 42.6857 48.7991 42.602 48.7208 42.5227C48.6431 42.4647 48.4278 42.2372 48.3545 42.1954C48.3257 42.1724 48.2983 42.1476 48.2724 42.1211C48.2391 42.1049 48.1769 42.0422 48.1126 42.0028C48.0881 41.9888 48.1281 42.0167 48.1436 42.0306L47.9994 41.9354C47.9461 41.8937 47.935 41.8821 47.9994 41.9215C47.5824 41.6313 47.1357 41.3907 46.6675 41.2042C46.3723 41.0719 46.066 40.986 45.8107 40.8955C45.5555 40.805 45.349 40.733 45.2336 40.7075C45.3178 40.7302 45.4002 40.7597 45.48 40.7957C45.4073 40.7689 45.3332 40.7464 45.258 40.7283C45.2181 40.7005 44.9961 40.6517 44.9095 40.6123H44.874L44.8163 40.5914C44.288 40.4544 44.6942 40.5589 44.2281 40.4312C43.9551 40.3709 43.8219 40.3546 43.6709 40.3152C43.6954 40.3152 43.7531 40.3407 43.6709 40.3268C43.6709 40.3151 43.4823 40.2896 43.449 40.2734C43.3802 40.2594 43.156 40.2084 43.227 40.2362C43.1915 40.22 42.9895 40.1828 43.1094 40.1991L42.9273 40.1666L43.0139 40.1852C42.7919 40.1457 42.661 40.1155 42.51 40.0969L42.5944 40.1178C42.4911 40.1028 42.3888 40.0811 42.2881 40.0528L42.4301 40.076C42.2082 40.0343 42.0661 40.0087 41.873 39.9902H41.9418L41.0539 39.8834C40.6766 39.8462 40.3014 39.8137 40.1882 39.8091L40.2926 39.8253L40.0972 39.8114C40.1216 39.8114 40.1927 39.7975 40.2126 39.8114C40.0062 39.7859 39.3625 39.7418 38.7232 39.707C38.0839 39.6721 37.4469 39.6675 37.256 39.6605C37.1006 39.6605 37.2271 39.6605 37.2294 39.6489C37.0407 39.6489 37.1495 39.6489 36.9874 39.6489C36.9452 39.6489 36.9874 39.6489 37.0229 39.6489H36.8809C36.9697 39.6489 36.9319 39.6489 36.9697 39.6629H36.7632C36.7166 39.6629 36.6456 39.6768 36.4436 39.6768C36.104 39.6768 35.7333 39.6884 35.3892 39.7046H35.538H35.3804C35.4625 39.7046 35.2361 39.7046 35.3004 39.7046C35.0496 39.7232 34.7255 39.7371 34.5036 39.7557L34.4237 39.7882C34.3671 39.8023 34.3136 39.8275 34.2661 39.8625C34.2173 39.8948 34.1661 39.9227 34.1129 39.9461L34.0441 39.9716L33.8843 39.9344C33.902 39.9344 34.0397 39.9762 34.1062 39.9878H34.1196C34.286 40.0157 34.1595 40.0018 34.3216 40.0343C34.2294 40.0262 34.138 40.0099 34.0485 39.9855C34.1684 40.011 34.286 40.0482 34.3349 40.0482C34.4459 40.076 34.3349 40.0482 34.457 40.0923C34.5524 40.1132 34.6789 40.1248 34.7877 40.1573C35.0541 40.2362 35.1917 40.2153 35.4336 40.2873H35.4381C35.5246 40.3175 35.6911 40.3291 35.8443 40.3801C35.7999 40.3639 35.7621 40.3384 35.8443 40.3546C36.0196 40.408 36.1395 40.4126 36.2682 40.4614H36.3903C37.0052 40.5914 39.3736 40.9605 39.964 41.0533H39.9396C40.8541 41.188 42.6854 41.5571 43.6043 41.7103C43.7525 41.7869 43.908 41.8468 44.0683 41.889C43.995 41.8426 44.0305 41.8078 44.0927 41.8263C44.5366 41.9563 44.1326 41.7962 44.5855 41.8913C45.0871 41.9996 45.5811 42.1439 46.0638 42.3231C46.4916 42.4705 46.9008 42.6716 47.2824 42.922C47.5044 43.001 47.7144 43.1128 47.9061 43.254H47.8773C48.1062 43.4165 48.3073 43.6182 48.4721 43.8506C48.6403 44.0894 48.7797 44.3491 48.8872 44.6236V44.5887C48.9982 44.8046 48.9272 44.7861 48.9583 44.9694C49.016 44.9369 49.0892 45.1459 49.1048 45.2294H49.0914C49.1092 45.2898 49.1314 45.3943 49.1558 45.5103C49.1779 45.629 49.1905 45.7493 49.1935 45.8701L49.1669 45.8585C49.1835 46.0848 49.1746 46.3123 49.1403 46.5364C49.0914 46.8451 48.9849 47.3233 48.8784 47.7551C48.8451 47.8433 48.814 47.9315 48.7829 48.022V48.0638V48.2472C48.7829 48.2982 48.8317 48.2936 48.9893 48.0452L49.0448 47.9431C49.1114 47.8224 49.1381 47.762 49.1358 47.7736L49.0471 47.9408C49.1136 47.8177 49.0692 47.9059 49.0471 47.9547L49.1247 47.8108L49.1048 47.8479C49.1381 47.7783 49.1824 47.6877 49.2224 47.6018C49.2823 47.4718 49.2335 47.6018 49.3023 47.444C49.4837 47.0425 49.6222 46.6214 49.7152 46.1881C49.8132 45.7488 49.8447 45.296 49.8084 44.8464C49.8084 44.8255 49.8084 44.8464 49.8084 44.8766C49.7882 44.6177 49.7421 44.3617 49.6708 44.1129L49.6464 44.0038C49.5687 43.7891 49.4767 43.5805 49.3711 43.3793L49.2402 43.1472L49.107 42.9592C49.0613 42.8946 49.0124 42.8326 48.9605 42.7734Z" fill="#1D1D1D"/>
<path d="M32.6035 16.6167C32.7175 16.6625 32.837 16.6914 32.9587 16.7026C32.8451 16.6554 32.7254 16.6265 32.6035 16.6167Z" fill="#1D1D1D"/>
<ellipse cx="35.9158" cy="14.0369" rx="5.3052" ry="2.6526" fill="#F6C0C6"/>
<path d="M32.5212 15.1475H32.4502C32.4738 15.151 32.4977 15.151 32.5212 15.1475Z" fill="#1D1D1D"/>
<path d="M39.5554 16.6816L39.5665 16.6213C39.8995 16.5377 39.6775 16.6607 39.9861 16.5609C40.0837 16.4541 40.5077 16.4008 40.6032 16.3033C40.6032 16.3033 40.7585 16.2452 40.7585 16.2708C40.7874 16.215 40.9139 16.1872 41.0049 16.1199C41.036 16.0897 40.9738 16.1199 40.9428 16.1199L41.1647 15.9806C41.258 15.9365 41.2935 15.9411 41.2003 16.0108C41.2735 15.962 41.3823 15.8877 41.5132 15.7926C41.5798 15.7415 41.6509 15.6695 41.7241 15.5999L41.8395 15.4885C41.8773 15.4444 41.915 15.3956 41.9527 15.3445C42.0384 15.243 42.1129 15.1316 42.1747 15.0126C42.2465 14.884 42.3032 14.7469 42.3434 14.604C42.3891 14.4587 42.4189 14.3084 42.4322 14.156C42.4466 14.0063 42.4466 13.8554 42.4322 13.7057C42.4222 13.5653 42.4037 13.4257 42.3767 13.2878C42.3434 13.1602 42.3123 13.0325 42.2768 12.9095C42.2413 12.7864 42.1836 12.6773 42.137 12.5543C42.0854 12.4459 42.0284 12.3406 41.966 12.2386C41.7881 11.9442 41.5628 11.6842 41.3001 11.4702C41.3601 11.5515 41.5399 11.7023 41.5687 11.8115C41.4067 11.6884 41.3667 11.5793 41.2802 11.5561C41.2802 11.505 41.1914 11.4308 41.1004 11.3542C41.0116 11.2947 40.9309 11.2228 40.8606 11.1406H40.7918L40.723 11.0686C40.3412 10.8992 40.2968 10.8945 40.2658 10.8806C40.1435 10.8192 40.0166 10.7687 39.8862 10.7297C39.7362 10.6843 39.5823 10.6547 39.4267 10.6415C39.3177 10.6308 39.2095 10.613 39.1026 10.5881C39.1337 10.5881 39.2136 10.6345 39.1026 10.6276C39.1026 10.5881 38.8407 10.609 38.7985 10.5695C38.7031 10.5695 38.3968 10.5254 38.4967 10.5881C38.4478 10.5579 38.177 10.5301 38.3391 10.5185C38.2575 10.5064 38.175 10.5017 38.0927 10.5045C38.1326 10.5045 38.1704 10.5185 38.2103 10.5254C37.9892 10.4967 37.7655 10.4967 37.5444 10.5254L37.6554 10.5463C37.5197 10.5645 37.3819 10.5518 37.2514 10.5092C37.3113 10.5092 37.3735 10.4929 37.4356 10.4883C37.1917 10.4891 36.9481 10.5108 36.7076 10.5533H36.7964C36.6388 10.5858 36.1504 10.6531 35.6754 10.746C35.3104 10.8085 34.9505 10.9001 34.5989 11.0199L34.7343 11.0315L34.5123 11.1127C34.5389 11.1127 34.6033 10.9642 34.6299 10.9711C34.5012 10.9967 34.2371 11.057 33.9041 11.1406L33.6422 11.2126C33.5201 11.2451 33.4424 11.2752 33.3425 11.31C33.1538 11.3774 32.9585 11.4516 32.7676 11.5422C32.3991 11.6919 32.0396 11.8648 31.6911 12.0598C31.3803 12.2339 31.1406 12.4057 31.0251 12.4846C30.8365 12.6123 30.9563 12.4614 30.9563 12.4545C30.7344 12.6471 30.8875 12.5636 30.7033 12.7307C30.6478 12.7748 30.6922 12.6982 30.7166 12.6657C30.6389 12.7493 30.5568 12.8143 30.5634 12.8375C30.6722 12.74 30.6633 12.8212 30.7255 12.8003C30.6465 12.8789 30.5724 12.9627 30.5035 13.0511L30.488 13.0186C30.4607 13.073 30.4377 13.1297 30.4192 13.188C30.3881 13.2785 30.337 13.3807 30.2616 13.5803C30.1749 13.835 30.1656 14.1115 30.2349 14.3719C30.324 14.696 30.4499 15.0077 30.6101 15.3004C30.5923 15.3004 30.5257 15.2099 30.468 15.1147C30.4946 15.1797 30.5546 15.2726 30.5745 15.3469C30.5568 15.2819 30.5879 15.3283 30.6212 15.3794C30.6544 15.4304 30.6922 15.4815 30.67 15.4351C30.801 15.5813 30.9519 15.7601 31.1139 15.9156C31.267 16.0663 31.4506 16.179 31.6511 16.2452C31.8401 16.1127 32.0091 15.9516 32.1528 15.767C32.2894 15.5939 32.3954 15.3965 32.4657 15.1844C32.5212 15.1844 32.5834 15.1844 32.6011 15.2006C32.541 15.1767 32.4765 15.1672 32.4125 15.1728L32.3969 15.2122C32.266 15.2122 32.3681 15.1867 32.2504 15.1588C32.2504 15.124 32.3547 15.1588 32.4724 15.1588C32.3747 15.1588 32.3015 15.1008 32.2504 15.131C32.1838 15.0915 32.2682 15.0915 32.1905 15.0497C32.1128 15.0079 32.0462 15.0335 32.004 14.9708C31.8975 14.8431 31.7665 14.8153 31.6866 14.6133L31.7066 14.6272C31.6495 14.5139 31.6013 14.3959 31.5623 14.2744C31.5623 14.3162 31.5623 14.3626 31.5268 14.2744C31.4913 14.1862 31.478 14.0864 31.4602 14.0423C31.4602 14.0423 31.4602 14.0423 31.4757 14.0423C31.4647 14.0443 31.4535 14.0443 31.4424 14.0423C31.4424 14.0423 31.4424 14.0423 31.4424 14.0283C31.4424 14.0144 31.4602 13.9935 31.4735 13.9657C31.5371 13.8719 31.6116 13.7869 31.6955 13.7126C31.9974 13.4623 32.3277 13.2518 32.6788 13.0859C33.0581 12.8986 33.4481 12.7359 33.8464 12.5984L33.9063 12.5775L33.9551 12.5636L34.0817 12.5264L34.3281 12.4104L34.6876 12.3245L34.661 12.3361C35.4026 12.1659 36.1547 12.0503 36.9118 11.9902C37.652 11.9234 38.3973 11.9499 39.1315 12.0691C39.2869 12.1364 39.5044 12.1898 39.6509 12.2572C39.571 12.2107 39.6087 12.1991 39.6753 12.227C39.9106 12.3152 39.9084 12.3291 39.9217 12.3198C39.935 12.3105 39.955 12.3013 40.1636 12.4243C40.3884 12.5445 40.5835 12.7175 40.7337 12.9298C40.8839 13.142 40.9851 13.3877 41.0293 13.6476C41.0594 13.7671 41.0659 13.8917 41.0483 14.0138C41.0308 14.136 40.9896 14.2531 40.9272 14.358C40.8259 14.5023 40.6966 14.6225 40.5477 14.7108C40.3109 14.8972 40.045 15.0394 39.7619 15.131L39.7863 15.1101C39.3949 15.245 38.9908 15.3361 38.581 15.3817C38.0327 15.4583 37.4578 15.4815 37.2647 15.5001H37.318C37.1302 15.5249 36.9398 15.5178 36.7542 15.4792C36.7897 15.5349 36.4967 15.5744 36.3835 15.5767V15.5651C36.2148 15.5767 35.8308 15.6231 35.5489 15.6208V15.5906C35.267 15.6028 34.9846 15.5982 34.7032 15.5767C34.3192 15.5419 33.7287 15.442 33.2115 15.4258L32.8919 15.3004H32.8431C32.739 15.4664 32.6561 15.6459 32.5967 15.8343C32.5079 16.1175 32.5057 16.4449 32.8475 16.6004L32.832 16.6282L32.9718 16.6422C33.1383 16.6747 33.2204 16.6422 33.2049 16.677L32.9829 16.6491C33.1494 16.6747 33.0317 16.6793 32.9652 16.6886C33.0362 16.6886 33.1028 16.7118 33.1583 16.7257C33.2138 16.7397 33.1339 16.7118 33.1094 16.7025C33.2186 16.6888 33.3288 16.6888 33.438 16.7025C33.6089 16.7211 33.438 16.7536 33.6444 16.7745C34.6997 16.907 35.7625 16.9636 36.8252 16.944C36.8496 16.9579 36.8252 16.9579 36.7897 16.9625C37.116 16.9439 37.4112 16.9347 37.7109 16.8975C37.7579 16.9005 37.8039 16.9131 37.8463 16.9347C37.8196 16.9231 38.2347 16.8882 38.6653 16.8232C38.8873 16.7931 39.1093 16.7513 39.2669 16.7211L39.5554 16.6816Z" fill="#1D1D1D"/>
</g>
<path d="M20.3138 27.2664C20.6092 32.4214 12.8421 41.7242 12.5293 42.8648C12.2563 43.7481 11.9195 44.6099 11.5215 45.4432C9.50758 50.6228 13.5458 56.2733 19.7786 56.3999C19.9523 56.3999 21.2243 56.5475 21.9506 56.4842C27.4779 56.0062 31.398 49.6122 29.5266 45.0038C29.5144 44.9739 29.5005 44.9441 29.4866 44.9159C29.4866 44.9159 20.0166 22.0798 20.3138 27.2664Z" fill="white"/>
<path d="M10.7768 44.1986L10.7992 44.2693C10.7081 44.4693 10.6531 44.5762 10.6119 44.6555L10.5637 44.7728C10.5554 44.7893 10.5462 44.8054 10.5362 44.821C10.4482 44.9889 10.3818 45.1674 10.3386 45.3521C10.323 45.481 10.2971 45.6084 10.2612 45.7331L10.1478 46.2504C10.1152 46.4331 10.0877 46.6142 10.0636 46.7676C10.0488 46.8889 10.0424 47.011 10.0447 47.1331C10.0394 47.154 10.0365 47.1754 10.0361 47.1969C10.0361 47.2366 10.0241 47.29 10.0223 47.3435C10.0223 47.4504 10.0103 47.5538 10 47.54C10.0163 47.6438 10.0221 47.7489 10.0172 47.8538C10.0172 47.9849 10.0258 48.1366 10.0395 48.2745C10.055 48.3763 10.0395 48.2004 10.0533 48.1245C10.0636 48.3366 10.098 48.547 10.1272 48.7573C10.1512 49.0056 10.1444 49.0694 10.0962 48.8021C10.2013 49.5454 10.4078 50.2706 10.7098 50.9573C11.1769 52.0056 11.843 52.9525 12.6708 53.7453C13.5019 54.5373 14.4691 55.1717 15.5256 55.6178C16.2261 55.914 16.9586 56.1275 17.7083 56.254L17.2271 56.1368C17.0689 56.1046 16.9149 56.0542 16.7682 55.9867L17.2958 56.1092C17.4082 56.1406 17.5233 56.1613 17.6396 56.1712C17.8356 56.2406 18.0393 56.2857 18.2463 56.3057C18.5213 56.3385 18.8169 56.3747 18.9922 56.4109L19.1262 56.3799L19.3565 56.4126L20.2159 56.4609L20.4702 56.4712L20.6851 56.4868C20.7538 56.4868 20.8466 56.4868 20.9824 56.4971C21.1692 56.5032 21.3562 56.4997 21.5427 56.4868C21.9633 56.4468 22.3797 56.3701 22.787 56.2574C22.9469 56.2109 23.093 56.1712 23.2339 56.1281C23.3748 56.085 23.5072 56.0368 23.6498 55.9954C23.5656 56.023 23.337 56.073 23.5948 55.9799C23.6532 56.0023 24.2685 55.7005 24.3974 55.6661C24.6466 55.5643 25.3994 55.135 25.1227 55.2436C25.1915 55.2143 25.3908 55.1005 25.5249 55.0264C25.659 54.9522 25.726 54.9126 25.5404 55.0454C25.7383 54.9221 25.9294 54.788 26.1127 54.6436C26.0233 54.7109 25.9271 54.7678 25.8343 54.8281C26.3676 54.4721 26.8544 54.0504 27.2831 53.5729C27.2075 53.6488 27.1233 53.716 27.0425 53.7867C27.2333 53.6143 27.3862 53.4264 27.5289 53.285C27.6302 53.1679 27.7399 53.0584 27.8572 52.9574C27.7437 53.0953 27.6372 53.2402 27.5134 53.3729C27.9909 52.8541 28.4041 52.2792 28.744 51.6608L28.6082 51.8798C28.8253 51.5059 29.0226 51.1209 29.1994 50.7263C29.4722 50.1098 29.6806 49.4668 29.8216 48.8073C29.9629 48.1477 30.0206 47.4728 29.9935 46.7987C29.9833 46.5398 29.9569 46.2818 29.9144 46.0262C29.8955 45.9193 29.8801 45.8228 29.8663 45.7417L29.8147 45.5417C29.8333 45.672 29.8442 45.8033 29.8474 45.9348L29.8165 45.7624L29.7718 45.59C29.7408 45.4728 29.7185 45.3521 29.679 45.2366C29.7486 45.3654 29.8117 45.4978 29.868 45.6331C29.8332 45.4435 29.7884 45.2559 29.734 45.071C29.6996 44.9538 29.6687 44.8228 29.6154 44.6865L29.5363 44.4727L29.4933 44.3589C29.4796 44.321 29.4487 44.2589 29.4246 44.2089L29.4435 44.2503C28.9279 43.0279 28.1356 41.1899 27.4086 39.5278L25.7965 35.8726C25.5868 35.3657 25.805 35.7605 25.8119 35.764C25.5249 35.1622 25.6607 35.5174 25.4286 34.9984C25.3702 34.8553 25.4665 35.0174 25.506 35.095C25.4439 34.9406 25.3721 34.7903 25.2912 34.645C25.4097 34.9329 25.3169 34.8312 25.3462 34.9622L25.0454 34.2967L25.0832 34.3139C24.8868 33.9919 24.7106 33.6579 24.5556 33.3139C24.0537 32.2122 23.4779 31.0311 22.9314 29.938C23.033 30.0842 23.1233 30.2381 23.2012 30.3984C23.129 30.2518 23.0139 30.0311 22.9555 29.8914C23.0655 30.1673 22.7063 29.4432 22.8008 29.6535C22.3367 28.8863 21.8418 27.8362 21.3657 27.1742C21.0593 27.0213 20.7442 26.8865 20.4221 26.7707C20.3206 26.7367 20.2146 26.7181 20.1076 26.7155C20.0876 26.7163 20.0679 26.7204 20.0492 26.7276L20.0285 26.7397V26.7483V26.7379C20.053 26.6878 20.072 26.6352 20.0853 26.581C20.0889 26.5576 20.0889 26.5338 20.0853 26.5103C20.0853 26.5 20.0853 26.5017 20.0853 26.5103C20.0896 26.5178 20.0955 26.5243 20.1024 26.5293C20.1119 26.54 20.1222 26.5498 20.1334 26.5586C20.161 26.5775 20.1897 26.5948 20.2193 26.6103L20.3224 26.6569C20.3538 26.6694 20.3859 26.6797 20.4187 26.6879L20.5063 26.7172L20.5459 26.7276C20.535 26.7879 20.5298 26.8491 20.5304 26.9104V27.0828C20.539 27.0569 20.5304 26.9328 20.5441 26.8241C20.5429 26.8006 20.5429 26.777 20.5441 26.7535C20.5441 26.7414 20.5441 26.7362 20.5441 26.731V26.7224H20.5166C20.4754 26.7121 20.429 26.6948 20.3946 26.6845C20.3617 26.6762 20.3295 26.6652 20.2984 26.6517C20.2468 26.6319 20.1973 26.6071 20.1506 26.5776C20.1159 26.56 20.0868 26.5331 20.0663 26.5C20.0663 26.5 20.0663 26.5 20.0663 26.5103C20.0654 26.5166 20.0654 26.523 20.0663 26.5293C20.0681 26.5425 20.0681 26.5558 20.0663 26.569C20.0663 26.581 20.0663 26.6052 20.0543 26.6224C20.0423 26.6397 20.0251 26.6983 20.0062 26.7397L19.9357 26.8638C19.924 26.8848 19.9108 26.905 19.8962 26.9241L19.879 26.9483L19.9014 26.969C19.9123 26.9796 19.9216 26.9918 19.9289 27.0052C19.9392 27.031 19.9409 27.0293 20.0921 27.219C20.0921 27.2414 20.0131 27.1517 19.9203 27.0621C19.8979 27.0414 19.8739 27.019 19.8584 27.0069L19.8446 26.9966L19.8584 26.9759C19.8661 26.9638 19.8748 26.9522 19.8842 26.9414L19.9289 26.8741C19.9564 26.8259 19.9821 26.7759 20.0028 26.7431C20.0234 26.7103 20.0371 26.6552 20.0492 26.631C20.0571 26.6038 20.0634 26.5762 20.0681 26.5483C20.0681 26.4966 20.0681 26.4966 20.0681 26.5052C20.171 26.6081 20.303 26.6767 20.4462 26.7017C20.3105 26.6745 20.1843 26.6121 20.0801 26.5207C20.0748 26.5167 20.0706 26.5113 20.0681 26.5052C20.0688 26.5097 20.0688 26.5144 20.0681 26.519C20.0676 26.5608 20.0601 26.6022 20.0457 26.6414C20.0354 26.6621 20.0217 26.7052 20.0045 26.7379L19.9443 26.85C19.9205 26.8904 19.8947 26.9295 19.867 26.9673C19.8206 27.0345 19.8429 27.0052 19.8378 27.0138L19.8756 27.05C19.9478 27.1241 20.032 27.2224 20.087 27.2742C20.2812 27.5621 20.0354 27.2569 20.2674 27.619C20.4884 27.9181 20.6877 28.2327 20.8638 28.5604H20.8758C21.2969 29.3742 21.5908 29.7776 21.9483 30.5484L21.9071 30.4621C22.0274 30.738 22.3127 31.2587 22.5327 31.7553C22.4708 31.6139 22.4313 31.4828 22.5773 31.7742C22.8334 32.3449 23.0345 32.7225 23.2081 33.1536L23.4229 33.5398C23.8578 34.4657 24.8838 36.6829 25.8944 38.9623C26.905 41.2417 27.9173 43.5762 28.3899 44.6952L28.414 44.7452C28.4179 44.7558 28.4225 44.7662 28.4278 44.7762L28.4535 44.8434L28.4982 44.9659L28.567 45.1503C28.5962 45.2538 28.6151 45.3228 28.6306 45.3762L28.6048 45.3038C28.8633 46.1997 28.919 47.1422 28.7681 48.0625C28.5803 49.2115 28.1579 50.3092 27.5272 51.2867C26.8965 52.281 26.0793 53.143 25.121 53.8246C24.6949 54.126 24.2415 54.3863 23.7667 54.6022C23.3598 54.7836 22.9384 54.9301 22.5069 55.0402C22.3866 55.0678 22.2508 55.0816 22.1133 55.1057C21.9758 55.1298 21.828 55.1471 21.6802 55.1626L21.4602 55.1867H21.2574C21.1199 55.1867 20.979 55.1867 20.8466 55.1867C21.1371 55.204 21.0391 55.2247 20.8088 55.2178C19.9959 55.1798 19.9495 55.1678 19.9289 55.1764C19.8791 55.1811 19.8291 55.1811 19.7793 55.1764L19.5061 55.1591L18.9904 55.1385C18.2496 55.1017 17.516 54.9743 16.806 54.7591C16.3187 54.6038 15.845 54.4083 15.3898 54.1747C14.9016 53.922 14.4408 53.6193 14.0149 53.2712C13.2035 52.616 12.5353 51.8002 12.0521 50.8746C11.7316 50.2631 11.5061 49.6061 11.3835 48.9263C11.1532 48.078 11.2254 46.9676 11.4007 46.1297V46.2176C11.4347 46.0431 11.4777 45.8704 11.5296 45.7004C11.5571 45.5883 11.607 45.4676 11.6517 45.3348L11.6877 45.2348C11.6958 45.2084 11.7056 45.1825 11.717 45.1572L11.8218 44.9296C12.1705 44.1943 12.4679 43.4355 12.7121 42.6589L12.7241 42.6193V42.5986V42.5882C12.8547 42.6244 12.5523 42.5365 12.5866 42.5469H12.6072L12.6897 42.5675H12.7276V42.5572C12.7405 42.5275 12.7554 42.4987 12.7722 42.471C12.8049 42.402 12.8633 42.3124 12.9097 42.2331C13.0129 42.0606 13.1229 41.9003 13.2346 41.7365C13.4614 41.4072 13.6797 41.0916 13.8774 40.802C14.2812 40.2244 14.6078 39.7554 14.7676 39.514L14.6748 39.6399C15.2265 38.7899 15.1904 38.9295 15.6459 38.2761C15.5479 38.3364 16.0068 37.5968 16.1821 37.3157V37.333C16.4485 36.9088 17.0208 35.9278 17.4333 35.2088V35.2502C17.7667 34.645 18.4044 33.5088 18.6192 33.0553C19.1348 32.0449 19.9323 30.4363 20.2107 28.8638C20.3057 28.5283 20.378 28.1867 20.4273 27.8414V27.6862C20.4172 27.6617 20.4051 27.6381 20.3912 27.6155C20.3582 27.5561 20.3221 27.4986 20.2829 27.4431C20.1949 27.3089 20.0773 27.1968 19.9392 27.1155C19.88 27.0775 19.8086 27.0636 19.7395 27.0768C19.6705 27.0899 19.6091 27.1291 19.5679 27.1862C19.4528 27.3173 19.3754 27.5655 19.2809 28.0138L19.2568 27.9828C19.2568 28.1018 19.2242 28.2224 19.2104 28.3414C19.1761 28.5569 19.1365 28.7156 19.1194 28.8156C19.1022 28.9156 19.0919 28.9604 19.0833 28.9432C19.1245 28.7449 19.1778 28.5483 19.2036 28.3518C19.1262 28.7828 19.1623 28.4776 19.1726 28.3104C19.1474 28.4782 19.1107 28.6442 19.0626 28.8069C19.0626 28.8949 19.0884 28.7466 19.109 28.6811C19.0867 28.7983 19.0678 28.9397 19.0369 29.0863C19.0059 29.2328 18.9629 29.3863 18.9183 29.5276C18.7756 29.9673 18.8684 29.5432 18.7 30.0552C18.1925 31.4024 17.5691 32.7027 16.8369 33.9415C16.1151 35.1984 15.3245 36.426 14.4926 37.6709C14.4462 37.7209 14.4926 37.6537 14.5356 37.5795C14.0441 38.3347 13.5817 38.9933 13.1211 39.6778C13.0489 39.7755 12.969 39.8671 12.8822 39.952C12.9063 39.9278 12.7568 40.1485 12.5162 40.502C12.3976 40.6744 12.2549 40.8916 12.102 41.121C11.9268 41.3797 11.765 41.6473 11.6173 41.9227C11.5629 42.0271 11.5181 42.1361 11.4832 42.2486L11.4265 42.4399C11.387 42.5693 11.3457 42.6951 11.3028 42.8193C11.2151 43.0658 11.1309 43.2986 11.0415 43.4986C10.9075 43.9107 10.7854 44.1814 10.7768 44.1986Z" fill="#1D1D1D"/>
<path fill-rule="evenodd" clip-rule="evenodd" d="M26.6182 45.5C26.7409 45.5306 26.8193 45.5449 26.8937 45.5674C27.8449 45.8533 28.1767 46.4475 27.9113 47.4053C27.7645 47.9301 27.6378 48.461 27.4648 48.9777C27.3515 49.3129 27.1989 49.6331 27.0103 49.9313C26.8878 50.1429 26.7019 50.3092 26.4799 50.4062C26.2578 50.5031 26.0111 50.5256 25.7756 50.4705C25.3734 50.3561 25.0215 49.8578 25.0013 49.331C24.9923 49.0844 25.0167 48.8377 25.0737 48.5978C25.2165 47.9852 25.3774 47.3726 25.5544 46.76C25.665 46.3801 25.7213 45.9431 26.3005 45.9676C26.3889 45.9676 26.5016 45.696 26.6182 45.502" fill="#1D1D1B"/>
<path fill-rule="evenodd" clip-rule="evenodd" d="M25 51.997C24.5056 52.733 23.7198 53.2313 22.5843 53.462C22.2482 53.5163 21.8963 53.5124 21.5632 53.4507C21.0688 53.37 20.8162 52.9652 21.1551 52.7274C21.7467 52.3155 22.3662 51.8852 23.0981 51.6106C23.7285 51.3756 24.4603 51.52 24.9935 51.997" fill="#1D1D1B"/>
<g clip-path="url(#clip1_1348_10180)">
<path d="M20.8186 43.5312C20.7879 43.5695 20.7956 43.5312 20.8186 43.5312V43.5312Z" fill="#1D1D1D"/>
<path d="M37.9372 26.2288C37.9353 26.2033 37.9353 26.1778 37.9372 26.1523V26.2288Z" fill="#1D1D1D"/>
<path d="M40.812 23.568H40.8312C40.8312 23.568 40.812 23.5336 40.812 23.568Z" fill="#1D1D1D"/>
<path d="M31.7046 32.7505C31.6861 32.7635 31.6726 32.7824 31.6663 32.804C31.676 32.7842 31.689 32.7661 31.7046 32.7505Z" fill="#1D1D1D"/>
<path d="M15.8625 48.6006C15.9392 48.5509 15.8625 48.6388 15.8625 48.6694C15.9478 48.6231 16.0223 48.5592 16.081 48.482C16.0389 48.4553 15.9124 48.5891 15.8625 48.6006Z" fill="#1D1D1D"/>
<path d="M6.69381 57.9401V57.9019C6.69288 57.9146 6.69288 57.9273 6.69381 57.9401Z" fill="#1D1D1D"/>
<path d="M33.2071 33.7104L33.1726 33.7563C33.1876 33.744 33.1994 33.7283 33.2071 33.7104Z" fill="#1D1D1D"/>
<path d="M8.16961 56.5183L8.14661 56.4609C8.14598 56.4716 8.14771 56.4823 8.15169 56.4922C8.15566 56.5021 8.16178 56.511 8.16961 56.5183Z" fill="#1D1D1D"/>
<path d="M37.9487 26.1369V26.1025C37.9468 26.1139 37.9468 26.1255 37.9487 26.1369Z" fill="#1D1D1D"/>
<path d="M43.3955 21.0293C43.4104 21.0343 43.4266 21.0343 43.4415 21.0293H43.3955Z" fill="#1D1D1D"/>
<path d="M56.9378 8.7959H56.9149L56.8918 8.87236C56.9114 8.84966 56.927 8.8238 56.9378 8.7959Z" fill="#1D1D1D"/>
<path d="M47.083 17.7075C47.083 17.7075 47.083 17.7075 47.083 17.6846C46.9269 17.808 46.7808 17.9435 46.646 18.0898L46.6843 18.151L47.083 17.7075Z" fill="#1D1D1D"/>
<path d="M52.0622 15.0162L51.5907 15.2914C52.7407 14.049 53.4038 13.5864 54.3544 12.4816L54.3199 12.558C54.4924 12.4319 54.3544 12.1298 56.2786 10.7459C56.3226 10.6772 56.3832 10.6207 56.4549 10.5815L56.1061 10.8033C56.249 10.5852 56.4065 10.377 56.5776 10.1801C56.6389 10.1419 56.6734 10.1457 56.6964 10.1572L57.2407 9.57992L57.4745 9.47289C57.6125 9.26645 57.3978 9.21293 57.9306 8.83063C57.6661 8.90709 58.1031 8.54772 57.9996 8.55537C58.0341 8.55537 58.1032 8.50949 58.1607 8.48273C58.4634 8.17456 58.7403 7.84213 58.9886 7.48877C58.9886 7.48877 57.7275 8.35659 57.3404 8.54391C57.7505 8.18455 57.4324 8.4292 57.3404 8.47508V8.52478C57.0874 8.73122 57.0299 8.67006 56.8996 8.76945H56.9225V8.74652C56.9455 8.74652 56.9455 8.74652 56.9225 8.77711C56.8995 8.80769 56.9226 8.80768 56.8689 8.86503C56.7631 8.98252 56.6491 9.09238 56.5278 9.1938L56.4779 9.14792C56.4013 9.41171 55.19 10.1457 54.9447 10.3713C54.6534 10.5395 54.4464 10.8988 54.1282 11.1359C53.6529 11.5755 53.8254 11.2926 53.5571 11.4799C53.239 11.7361 53.6721 11.4799 53.5571 11.5946L53.147 11.8699C53.3424 11.6673 53.2044 11.7437 53.147 11.7628C52.8441 12.0496 52.2845 12.428 52.2922 12.6154C51.8437 12.9671 51.8054 12.9288 51.6291 13.0971C51.7019 13.055 51.8322 12.9594 51.8552 12.9785C51.6482 13.0932 51.7862 13.0665 51.8552 13.0091C51.6521 13.2959 50.4063 14.0987 50.4638 14.2554L50.4446 14.2363C50.4676 14.3739 50.6363 14.3586 50.5098 14.5727L50.3603 14.653L50.2223 14.8556C50.0805 14.9474 50.115 14.8556 50.1073 14.8556C49.7883 15.2078 49.445 15.5374 49.0801 15.8419L49.6589 15.7043C49.3215 15.9375 48.7044 16.3504 48.7159 16.4689L48.4706 16.5683C47.7577 17.0003 48.1333 17.0271 47.8611 17.2106L47.4778 17.4208L47.7653 17.1341C47.5189 17.318 47.263 17.489 46.9987 17.6464C46.9987 17.6464 47.0332 17.6464 47.037 17.6464L47.0025 17.6846C47.0025 17.7611 46.8837 17.9369 46.6805 18.1357C46.3792 18.4795 46.0426 18.7909 45.6763 19.0647L45.6418 19.2597L45.2585 19.5541L45.1933 19.489C45.5345 19.1564 46.1401 18.4989 46.5694 18.0669V18.0287C46.3126 18.2848 46.0481 18.606 45.8718 18.7665C45.7759 18.8353 45.4885 18.9806 45.6073 18.7665L45.5115 18.9882C44.9447 19.5917 44.3377 20.1562 43.6946 20.678L43.8057 20.6321C43.6486 20.8271 43.4876 21.0144 43.3879 21.0144C42.9041 21.4964 42.3768 21.9328 41.8126 22.3181V22.471C41.6937 22.578 41.4292 22.6315 41.4599 22.7959L41.2529 23.0712C41.0919 23.2203 41.0421 23.3579 40.8198 23.4879C40.8072 23.499 40.793 23.508 40.7776 23.5146C40.3943 23.8281 40.8504 23.5796 40.3943 23.9352C40.2103 24.0078 40.3483 24.176 40.1375 24.3519L39.8308 24.4398C39.413 24.7303 39.4475 24.8986 38.9492 25.4108C38.6618 25.6173 38.4509 25.644 38.5314 25.4108C38.4784 25.6022 38.3798 25.778 38.244 25.9231C38.1558 25.9231 38.1788 25.8849 38.2094 25.7817C37.8951 25.9996 38.083 25.9843 37.8798 26.164C37.9028 26.2978 37.9603 26.4889 37.8798 26.5463L37.9833 26.4927C37.8037 26.7652 37.578 27.0045 37.3163 27.2L37.2857 27.1503L37.0442 27.4294L36.979 27.3988L36.6226 27.7811L36.6839 27.7428C36.5214 27.9382 36.3404 28.1174 36.1434 28.2781L36.1204 28.2475C35.5723 28.6298 35.304 29.1153 34.7674 29.6696V29.5396C34.5259 29.6696 34.8057 29.6773 34.5565 29.8684L34.4722 29.8111C34.3725 30.0978 34.2039 30.0405 34.0352 30.1399L34.1886 30.1704L33.9164 30.4036C33.6098 30.6483 33.6327 30.4571 33.6251 30.3692L33.5063 30.6292L33.3913 30.5833C33.3453 30.8165 33.238 30.7056 33.0463 31C32.9965 31 33.0463 30.9083 32.9428 30.9771L32.6592 31.4893L32.847 31.1988L32.9351 31.3479C32.7741 31.6881 32.5863 31.6729 32.4368 31.8831L32.525 31.7264C32.3871 31.9052 32.2101 32.0504 32.0075 32.1507C32.0804 32.1201 32.1915 32.0743 32.088 32.2081C31.9845 32.3419 31.9999 32.2081 31.904 32.2845C31.9615 32.3801 31.7967 32.6324 31.5667 32.7853C31.563 32.7776 31.5611 32.7691 31.5611 32.7605C31.5611 32.7519 31.563 32.7434 31.5667 32.7356C31.5379 32.8071 31.4868 32.8674 31.4211 32.9077L31.3827 32.7701L31.3061 33.0185C31.1719 33.1026 31.0761 33.3206 31.0339 33.2479L31.0761 33.1715L30.3363 34.0278L30.252 33.9704C30.252 34.1463 29.769 34.3795 29.9185 34.4713C29.6962 34.5592 29.355 35.125 29.3091 34.8994C28.7609 35.427 28.5999 35.8475 27.8793 36.4286C27.5305 36.5471 26.9287 37.22 26.4956 37.629C25.7289 38.4968 25.2306 39.0703 24.4295 39.9457C23.7626 40.286 23.2221 41.257 22.5897 41.7082L22.5053 41.9184C22.0415 42.1784 21.6122 42.855 21.0066 43.2603C20.9531 43.35 20.8928 43.4357 20.8264 43.5164C20.845 43.5036 20.8671 43.4967 20.8897 43.4967C20.9123 43.4967 20.9343 43.5036 20.9529 43.5164C20.7804 43.6311 20.5236 43.9599 20.4623 43.8567L20.4891 43.8146C20.4316 43.7114 20.1058 44.2887 19.8567 44.3804H20.0522L19.7608 44.6365L19.8183 44.5486C18.8217 45.9287 18.0053 46.1925 17.0624 47.4808C17.116 47.24 16.8937 47.7522 16.7749 47.6643C16.3609 47.8134 16.2804 48.211 16.0849 48.4786C16.0849 48.4786 16.0849 48.4786 16.0849 48.513L15.6709 48.8953C15.7821 48.513 15.487 49.2776 15.5981 48.9641C14.4482 49.9161 13.1679 51.3879 11.903 52.5615H11.9912C11.6982 52.8875 11.3804 53.1904 11.0406 53.4676C10.7531 53.6511 10.6113 54.0678 10.527 54.1634C10.3276 54.4768 9.97883 54.5954 10.0938 54.4922C9.8585 54.8574 9.57914 55.1925 9.26202 55.4899C9.02054 55.4899 8.32676 56.6368 8.1926 56.526C7.61764 56.9082 7.30332 57.539 6.69769 57.9825C6.69497 57.9673 6.69497 57.9518 6.69769 57.9366L6.00391 59.3855L6.72453 59.4964L7.99328 58.9077L10.4388 56.3233L12.5853 54.4501L17.4303 49.5223L17.6872 49.0826C18.8141 48.2875 19.8567 46.8691 21.0104 45.9516L20.9491 45.8484C21.0524 45.715 21.1942 45.6162 21.3554 45.5655C24.0386 42.8397 26.7409 39.9419 29.2899 37.6061C29.5773 37.4226 30.2635 36.6771 30.505 36.5509C31.2272 35.6614 32.0097 34.8222 32.847 34.0393L32.824 34.0775L33.1843 33.6952C33.2073 33.6952 33.2188 33.6952 33.2111 33.6952C33.707 33.1224 34.2535 32.5953 34.844 32.1201L34.8248 32.1584C37.8568 29.165 40.5055 26.2213 43.6103 23.3655C45.1435 22.1078 46.5694 20.3072 48.2751 18.8315C48.6469 18.6174 51.8131 15.3373 52.0622 15.0162Z" fill="#1D1D1D"/>
<path d="M56.7078 10.1685C56.7308 10.2143 56.7346 10.1799 56.7078 10.1685V10.1685Z" fill="#1D1D1D"/>
<path d="M49.103 15.8877H49.126L48.9995 15.9183L49.103 15.8877Z" fill="#1D1D1D"/>
<path d="M53.3501 11.5981C53.1469 11.7816 53.1469 11.7969 53.1852 11.7855C53.248 11.7303 53.3034 11.6674 53.3501 11.5981Z" fill="#1D1D1D"/>
<path d="M58.2104 8.53994C58.3139 8.44054 58.2564 8.45966 58.1721 8.49406L58.0034 8.67373C58.0686 8.62786 58.1453 8.58964 58.2104 8.53994Z" fill="#1D1D1D"/>
<path d="M57.3364 8.48621V8.41357C57.2866 8.49386 57.2981 8.5015 57.3364 8.48621Z" fill="#1D1D1D"/>
</g>
<defs>
<clipPath id="clip0_1348_10180">
<rect width="33.5996" height="44.21" fill="white" transform="translate(20 10.5)"/>
</clipPath>
<clipPath id="clip1_1348_10180">
<rect width="53" height="52" fill="white" transform="translate(6 7.5)"/>
</clipPath>
</defs>
</svg>
