<svg width="64" height="64" viewBox="0 0 64 64" fill="none" xmlns="http://www.w3.org/2000/svg">
<circle cx="32" cy="32" r="32" fill="#FAC3C8"/>
<mask id="mask0_1348_10232" style="mask-type:luminance" maskUnits="userSpaceOnUse" x="9" y="9" width="47" height="51">
<path fill-rule="evenodd" clip-rule="evenodd" d="M9.0141 9.91553H55.3176V59.3983H9.0141V9.91553Z" fill="white"/>
</mask>
<g mask="url(#mask0_1348_10232)">
<path fill-rule="evenodd" clip-rule="evenodd" d="M54.0947 27.0912C54.101 27.4906 54.0785 27.8854 54.0433 28.2847C54.0208 28.5407 54.0559 28.821 54.0081 29.0743C53.9063 29.6251 53.9487 30.1894 53.7594 30.7356C53.5935 31.2134 53.5719 31.7389 53.4637 32.2374C53.3681 32.6827 53.2158 33.1153 53.132 33.5606C52.9959 34.2845 52.6425 34.9425 52.5118 35.6663C52.501 35.7303 52.4604 35.7889 52.4109 35.9025C51.788 35.9025 51.1732 35.8827 50.5594 35.907C49.3334 35.9548 48.1093 36.0278 46.8834 36.0909C46.4282 36.1152 45.9721 36.136 45.5169 36.1639C44.7038 36.2153 43.8907 36.2784 43.0777 36.3244C42.2646 36.3703 41.4497 36.401 40.6367 36.4406C40.6267 36.4406 40.6141 36.4433 40.6033 36.4406C39.948 36.3027 39.2818 36.4163 38.6229 36.3622C38.3002 36.3352 38.046 36.2459 37.8513 35.971C37.6575 35.6979 37.3943 35.5428 37.0427 35.6654C36.9616 35.6934 36.8661 35.7276 36.8174 35.7889C36.6687 35.9782 36.4938 36.1639 36.4145 36.383C36.2576 36.8129 36.0476 37.2077 35.7979 37.5881C35.7537 37.6566 35.7276 37.7387 35.6708 37.864C35.5969 37.7567 35.5203 37.6945 35.5094 37.6233C35.4554 37.2249 35.2462 36.8923 35.0831 36.5389C35.0371 36.4406 35.0182 36.3271 34.9632 36.2351C34.8081 35.9782 34.6225 35.7177 34.3232 35.6519C33.9942 35.5789 33.6868 35.797 33.5597 36.1423C33.4236 36.5082 33.3199 36.8841 33.1919 37.251C33.018 37.7486 32.8287 38.2417 32.652 38.7392C32.569 38.9763 32.4942 39.2197 32.4203 39.4604C32.3094 39.8209 32.2004 40.1824 32.094 40.5439C31.9444 41.0513 31.8001 41.5615 31.6532 42.0699C31.4657 42.7144 31.2773 43.359 31.0898 44.0035C31.0502 44.1369 31.0123 44.2703 30.9546 44.4713C30.8888 44.355 30.8401 44.3063 30.832 44.2514C30.7158 43.5176 30.6121 42.7821 30.4922 42.0483C30.4435 41.7572 30.3507 41.4741 30.2957 41.1839C30.1199 40.2572 29.9586 39.3288 29.7828 38.4021C29.671 37.8063 29.534 37.2159 29.424 36.62C29.3041 35.9548 29.2077 35.2859 29.0896 34.6216C29.0364 34.3169 28.9499 34.0177 28.8904 33.713C28.8282 33.3903 28.7759 33.0667 28.7263 32.7431C28.656 32.277 28.5992 31.8101 28.4685 31.3522C28.3459 30.915 28.2847 30.4607 28.1828 30.0181C28.1098 29.7107 28.0665 29.3889 27.797 29.16C27.5437 28.9454 27.3039 28.9049 27.0497 29.114C26.892 29.2447 26.745 29.4106 26.6486 29.5899C26.3574 30.1227 26.0807 30.6626 25.8229 31.2116C25.5696 31.7524 25.3325 32.3023 25.1108 32.8584C24.7683 33.7238 24.4573 34.6018 24.1111 35.4653C23.9624 35.8349 23.7668 36.1846 23.628 36.5614C23.381 37.2348 23.0871 37.8901 22.8113 38.5517C22.7635 38.6653 22.704 38.7735 22.649 38.888C22.54 38.8943 22.439 38.9186 22.3417 38.9051C21.8765 38.8447 21.4168 38.9159 20.9544 38.9421C20.3694 38.9736 19.7799 38.9592 19.193 38.9727C18.9839 38.9781 18.7757 39.0169 18.5648 39.025C18.3773 39.0322 18.1889 39.0169 18.0014 39.0142C17.658 39.0106 17.3154 39.0033 16.9711 39.0052C16.8512 39.0061 16.7313 39.0358 16.6096 39.043C15.6045 39.1025 14.5968 39.1548 13.5926 39.2206C13.4466 39.2305 13.3835 39.1584 13.3321 39.0601C13.1599 38.7248 12.9787 38.3931 12.8318 38.0461C12.5181 37.3033 12.2089 36.556 11.9259 35.8015C11.7546 35.3472 11.6519 34.8659 11.486 34.4089C11.2805 33.8419 11.1561 33.2569 11.0263 32.6719C10.9109 32.1517 10.7829 31.6352 10.6675 31.1142C10.5792 30.7059 10.4764 30.2993 10.4296 29.8847C10.3683 29.3484 10.3547 28.8048 10.3214 28.264C10.3196 28.2423 10.3295 28.218 10.325 28.1982C10.1519 27.5068 10.316 26.8028 10.2376 26.106C10.1997 25.7617 10.2619 25.4074 10.2826 25.0577C10.3196 24.4095 10.3601 23.7623 10.4025 23.1151C10.4106 22.9826 10.4278 22.851 10.444 22.7185C10.4674 22.5364 10.49 22.3534 10.5206 22.1714C10.6035 21.6909 10.6747 21.2086 10.7811 20.7336C10.8758 20.3063 10.9965 19.8845 11.1327 19.468C11.2372 19.1552 11.3841 18.8569 11.5094 18.5495C11.5662 18.408 11.605 18.2574 11.6699 18.1177C11.8394 17.7499 11.9989 17.375 12.1972 17.0234C12.6389 16.2329 13.0869 15.4441 13.7044 14.7717C14.0613 14.3832 14.3894 13.9649 14.7734 13.6053C15.07 13.3276 15.4279 13.1131 15.7677 12.8841C15.994 12.7327 16.2355 12.6038 16.4735 12.4704C16.551 12.428 16.6367 12.4055 16.7178 12.3685C16.8178 12.3244 16.9188 12.2784 17.0143 12.2261C17.063 12.2 17.0991 12.1468 17.1496 12.1288C17.4705 12.0107 17.7995 11.9088 18.1177 11.7808C18.7171 11.5392 19.3526 11.4329 19.9818 11.3238C20.446 11.2427 20.9093 11.1219 21.3952 11.2057C21.6404 11.2481 21.9009 11.2003 22.1542 11.2147C22.3173 11.2237 22.4796 11.2769 22.6436 11.3049C22.7194 11.3184 22.796 11.3229 22.8726 11.3283C22.9483 11.3319 23.0321 11.3121 23.1025 11.3364C23.5847 11.4951 24.0769 11.6177 24.5465 11.8295C25.0477 12.0548 25.4849 12.3649 25.904 12.703C26.2231 12.9608 26.5269 13.2384 26.828 13.5187C26.9542 13.6377 27.0578 13.7846 27.1714 13.9199C27.5446 14.3688 27.9493 14.796 28.2847 15.2729C28.6759 15.829 29.0103 16.4249 29.3627 17.0072C29.5286 17.2821 29.689 17.5615 29.8315 17.8482C29.9351 18.0573 30.0054 18.2809 30.0893 18.4999C30.2335 18.8749 30.384 19.2481 30.5192 19.6267C30.6283 19.9304 30.7067 20.2459 30.8203 20.5479C30.9249 20.8255 31.0556 21.0942 31.18 21.3637C31.3377 21.7062 31.4874 22.0515 31.6613 22.3859C31.8164 22.6834 32.2436 22.7555 32.5159 22.5707C32.7719 22.3967 32.8746 22.1236 32.9972 21.8694C33.1811 21.4926 33.3668 21.1104 33.4831 20.7111C33.5732 20.3983 33.7256 20.1098 33.7986 19.7889C33.8644 19.4987 34.0456 19.2355 34.1609 18.9569C34.2538 18.7334 34.3259 18.4999 34.4079 18.2719C34.6152 17.695 34.9307 17.1739 35.2453 16.6529C35.4995 16.2275 35.7645 15.8083 36.0296 15.3892C36.0755 15.3152 36.1467 15.2557 36.2035 15.1881C36.5425 14.7798 36.8769 14.3697 37.2167 13.9649C37.3862 13.7621 37.552 13.553 37.7449 13.3736C38.2407 12.9112 38.7698 12.4902 39.3521 12.1342C39.9534 11.7664 40.6168 11.541 41.2911 11.4103C41.7174 11.3265 42.1582 11.2292 42.6044 11.2418C43.3508 11.2616 44.0981 11.2742 44.8264 11.4834C44.9742 11.5248 45.1311 11.5383 45.2816 11.5708C45.8053 11.679 46.3038 11.8538 46.7906 12.0765C47.1088 12.2216 47.4432 12.3298 47.7641 12.4704C47.9435 12.547 48.1192 12.6426 48.2824 12.7516C48.6943 13.0266 49.1225 13.2889 49.5011 13.6071C49.8527 13.9018 50.1727 14.2462 50.4674 14.6004C50.8559 15.0655 51.2111 15.5604 51.5743 16.0472C51.6474 16.1454 51.6987 16.259 51.7555 16.3681C52.053 16.945 52.373 17.5129 52.6425 18.1033C52.9382 18.7523 53.2293 19.4067 53.3663 20.1152C53.3925 20.2432 53.4592 20.3631 53.4889 20.4929C53.5989 20.9878 53.7035 21.4836 53.8017 21.9812C53.8369 22.1641 53.8522 22.3534 53.8684 22.5391C53.945 23.4504 54.0379 24.3609 54.0893 25.274C54.1226 25.8779 54.0866 26.4846 54.0947 27.0912ZM51.3445 38.4859C51.0867 39.0088 50.8343 39.5352 50.5503 40.0418C50.3115 40.4663 50.0347 40.8711 49.7652 41.2767C49.4551 41.7463 49.1423 42.2142 48.8142 42.6712C48.5663 43.0191 48.2932 43.3508 48.0309 43.6907C47.8434 43.9341 47.6568 44.1774 47.4693 44.4208C47.2341 44.7273 47.0024 45.0365 46.7653 45.3412C46.4931 45.6891 46.2245 46.0415 45.9387 46.3787C45.3465 47.0746 44.7453 47.7641 44.1458 48.4537C43.7826 48.872 43.4256 49.2965 43.0479 49.7013C42.746 50.0249 42.4151 50.3241 42.0987 50.636C41.8076 50.9218 41.5218 51.2129 41.228 51.4942C40.8909 51.8178 40.5483 52.1333 40.2067 52.4533C39.9426 52.7003 39.6839 52.9535 39.4116 53.1924C39.0998 53.4655 38.7734 53.7206 38.4607 53.992C38.2209 54.1993 37.9928 54.4201 37.7594 54.6347C37.6223 54.76 37.4844 54.888 37.342 55.007C36.9409 55.3369 36.5452 55.6731 36.1323 55.9895C35.7627 56.2734 35.3598 56.5114 35.0029 56.808C34.5467 57.1848 34.0401 57.4786 33.5489 57.7995C33.1892 58.0366 32.8332 58.2782 32.4753 58.5197C32.4032 58.5693 32.3356 58.6243 32.2436 58.6946C31.957 58.5125 31.6667 58.3332 31.381 58.1457C31.0123 57.9032 30.6472 57.6535 30.2831 57.4056C29.6872 57 29.0896 56.5997 28.5334 56.1409C28.3198 55.9652 28.08 55.8227 27.8655 55.647C27.5491 55.3901 27.2426 55.116 26.9316 54.8501C26.6567 54.6175 26.3755 54.3877 26.1023 54.1524C25.8878 53.9676 25.6805 53.7729 25.4687 53.5845C24.9765 53.1465 24.4789 52.7165 23.9949 52.2685C23.6036 51.907 23.2287 51.5293 22.8483 51.1543C22.4552 50.7676 22.0649 50.3755 21.6746 49.9843C21.5259 49.8347 21.3763 49.685 21.232 49.53C20.7489 49.0108 20.2648 48.4943 19.7889 47.9688C19.559 47.7137 19.3445 47.4459 19.1245 47.18C18.8523 46.851 18.5801 46.5202 18.3106 46.1876C17.8716 45.6485 17.4308 45.1104 17.0008 44.5641C16.6556 44.1243 16.3149 43.6808 15.9885 43.2264C15.6866 42.8064 15.4098 42.3674 15.1151 41.9428C14.8365 41.5408 14.5454 41.1487 14.2678 40.7467C14.1866 40.6295 14.1289 40.4979 14.0253 40.3059C14.5021 40.3059 14.9204 40.3113 15.3386 40.305C15.6145 40.2996 15.8912 40.2734 16.1688 40.2626C16.9116 40.2365 17.6534 40.2175 18.3962 40.1878C19.1155 40.1581 19.8349 40.1148 20.5542 40.0832C20.83 40.0715 21.1076 40.0877 21.3844 40.0742C21.7711 40.0571 22.156 40.0138 22.5427 40.0012C22.7816 39.9931 22.9285 39.8732 23.0547 39.6929C23.5036 39.052 23.8678 38.3615 24.204 37.6594C24.5817 36.8724 24.9422 36.0774 25.2947 35.2778C25.5534 34.6901 25.7841 34.0889 26.032 33.4975C26.2222 33.0414 26.4178 32.5871 26.6189 32.1364C26.7793 31.7768 26.9506 31.4225 27.1309 31.0322C27.3012 31.2521 27.2742 31.4856 27.3156 31.6929C27.4004 32.1067 27.4509 32.5294 27.5085 32.9486C27.5464 33.2289 27.5689 33.5102 27.6906 33.7734C27.7123 33.8221 27.7132 33.8825 27.7132 33.9383C27.7204 34.5531 27.9088 35.1336 28.0287 35.7276C28.1341 36.2505 28.2017 36.7814 28.2874 37.3078C28.327 37.5449 28.3685 37.7837 28.4163 38.019C28.5361 38.6157 28.6614 39.2116 28.7822 39.8074C28.9174 40.4772 29.0608 41.1451 29.1816 41.8175C29.3258 42.6171 29.4285 43.4266 29.5926 44.2234C29.7684 45.0779 29.8342 45.9568 30.1064 46.7933C30.138 46.8889 30.1569 46.9925 30.2092 47.0746C30.3417 47.2756 30.5247 47.4378 30.7752 47.4225C31.0772 47.4054 31.3305 47.2693 31.4738 46.9817C31.7235 46.4778 31.8164 45.9235 31.975 45.3889C32.213 44.5858 32.4582 43.7844 32.6925 42.9813C32.7926 42.6378 32.8665 42.2872 32.9639 41.9428C33.0585 41.6138 33.173 41.2902 33.2685 40.963C33.3452 40.6989 33.3965 40.4276 33.4759 40.1644C33.6661 39.5388 33.8698 38.9159 34.0627 38.2921C34.1249 38.092 34.1736 37.8883 34.2457 37.6206C34.3448 37.836 34.4512 37.9902 34.4809 38.156C34.535 38.4535 34.7216 38.6716 34.8622 38.9177C35.0416 39.2305 35.3733 39.2909 35.7105 39.2179C36.0368 39.1494 36.2919 38.9592 36.4803 38.6797C36.7687 38.2516 37.0518 37.8216 37.1933 37.3159C37.214 37.2438 37.2771 37.1852 37.3177 37.1257C37.3393 37.1284 37.3528 37.1257 37.3591 37.1311C37.7666 37.4737 38.2596 37.5422 38.7644 37.5638C39.2512 37.5836 39.738 37.5863 40.2256 37.6044C40.8909 37.6287 41.557 37.6675 42.2213 37.6846C42.6477 37.6954 43.075 37.6729 43.5013 37.672C43.8565 37.672 44.2143 37.6873 44.5704 37.6819C45.0004 37.6756 45.4321 37.653 45.863 37.6377C46.4958 37.6161 47.1277 37.599 47.7605 37.5728C48.2373 37.5557 48.716 37.5214 49.1937 37.5088C49.9455 37.4872 50.6982 37.4791 51.4509 37.4628C51.5581 37.4601 51.6663 37.4421 51.8394 37.425C51.6582 37.8117 51.5085 38.1533 51.3445 38.4859ZM55.2882 27.6871C55.326 27.0696 55.326 26.453 55.2972 25.8356C55.2755 25.3831 55.2746 24.9297 55.2503 24.4781C55.2314 24.1274 55.1845 23.7795 55.1584 23.4288C55.1277 23.0097 55.1196 22.5896 55.079 22.1714C55.0511 21.8721 54.9916 21.5737 54.9357 21.279C54.9033 21.1077 54.851 20.94 54.8077 20.7715C54.6923 20.3253 54.6004 19.871 54.4562 19.4338C54.1605 18.5414 53.8125 17.6688 53.3718 16.8341C53.1185 16.3546 52.8877 15.8678 52.5857 15.4135C52.1287 14.7248 51.6744 14.0352 51.0876 13.4493C50.7505 13.1104 50.3773 12.8111 50.0429 12.4713C49.6679 12.0909 49.1883 11.8755 48.7475 11.6041C48.368 11.3725 47.9615 11.1742 47.5324 11.0272C47.0655 10.8686 46.6103 10.673 46.1398 10.5243C45.763 10.4062 45.3763 10.3178 44.9878 10.2466C44.5118 10.1574 44.0323 10.0826 43.5509 10.0339C43.2012 9.99873 42.8469 10.0068 42.4954 10.0104C42.1231 10.0159 41.7445 9.99603 41.383 10.0636C40.8395 10.1628 40.3085 10.3259 39.7731 10.472C39.6027 10.5179 39.4315 10.5738 39.2755 10.6541C39.0123 10.7902 38.7617 10.9461 38.5066 11.0975C38.2696 11.2391 38.0163 11.3608 37.8026 11.5329C37.4186 11.8421 37.0563 12.1765 36.6894 12.5074C36.3532 12.8129 36.0485 13.1464 35.779 13.5133C35.6212 13.727 35.4445 13.9253 35.2805 14.1326C35.1579 14.2876 35.0362 14.4436 34.9226 14.6067C34.7054 14.9213 34.4809 15.2296 34.2862 15.5577C34.0131 16.0201 33.7274 16.4717 33.5047 16.9684C33.3416 17.3344 33.1874 17.7112 33.0071 18.0699C32.7683 18.5486 32.6358 19.0579 32.4465 19.5501C32.3689 19.752 32.286 19.953 32.2031 20.1558C32.1832 20.154 32.1616 20.154 32.1409 20.154C32.039 19.8268 31.9768 19.4797 31.8254 19.1769C31.628 18.7803 31.6036 18.3151 31.3215 17.9564C31.3152 17.9483 31.3188 17.9338 31.3152 17.9239C31.1259 17.4786 30.9573 17.0234 30.7419 16.5916C30.5607 16.2275 30.3318 15.8867 30.1091 15.546C29.8414 15.1341 29.6377 14.6734 29.2383 14.3552C29.2221 14.3417 29.2077 14.321 29.1996 14.3012C29.0445 13.9226 28.7083 13.6783 28.4902 13.3448C28.3946 13.1996 28.2648 13.077 28.1512 12.9436C27.9403 12.6939 27.6852 12.4902 27.459 12.2622C27.0335 11.8349 26.5657 11.4725 26.0708 11.139C25.9635 11.066 25.8445 11.0128 25.731 10.9488C25.4614 10.7983 25.2072 10.6036 24.9197 10.5071C24.3861 10.3277 23.8326 10.2024 23.2872 10.0609C23.1376 10.0213 22.9826 9.99603 22.8266 9.9798C22.6319 9.95907 22.4318 9.95096 22.2353 9.94284C21.8847 9.93113 21.5331 9.90859 21.1834 9.9176C20.8652 9.92842 20.547 9.96358 20.2315 10.0123C19.8186 10.0744 19.4049 10.1439 18.9992 10.2403C18.6044 10.3332 18.2132 10.4503 17.8292 10.5783C17.3569 10.7361 16.8809 10.8875 16.4302 11.0921C16.0246 11.2769 15.6577 11.5474 15.2575 11.7502C14.7158 12.026 14.256 12.4163 13.8207 12.8228C13.1338 13.4637 12.5181 14.1741 12.0133 14.9727C11.8195 15.281 11.5825 15.5658 11.4121 15.8867C11.1399 16.4059 10.901 16.9423 10.6585 17.475C10.4629 17.905 10.2619 18.3341 10.1032 18.7757C9.90223 19.3382 9.6913 19.9007 9.60297 20.4965C9.57322 20.703 9.54888 20.9175 9.47497 21.1077C9.33615 21.4565 9.3722 21.8297 9.28567 22.1831C9.16308 22.6906 9.27666 23.2233 9.12522 23.7272C9.10629 23.7867 9.12973 23.8579 9.13243 23.9237C9.13513 24.0228 9.14595 24.1211 9.13874 24.2194C9.12161 24.4826 9.08736 24.7449 9.07654 25.009C9.0513 25.5796 8.9837 26.1538 9.02967 26.719C9.08646 27.3986 9.02697 28.0837 9.15677 28.7606C9.2442 29.2159 9.2415 29.6882 9.3037 30.1488C9.3722 30.6617 9.45423 31.171 9.55519 31.6785C9.64984 32.1554 9.76432 32.6304 9.88871 33.1018C10.0338 33.6535 10.1862 34.2052 10.3565 34.7496C10.572 35.4437 10.8009 36.1342 11.0416 36.821C11.1723 37.1969 11.3229 37.5674 11.4878 37.9289C11.8736 38.7762 12.2576 39.6235 12.7281 40.4276C13.05 40.9792 13.3681 41.5345 13.7026 42.079C13.9009 42.399 14.1235 42.7045 14.3462 43.0083C14.6842 43.4716 15.0294 43.9314 15.3792 44.3893C15.6604 44.7579 15.9534 45.1212 16.2391 45.489C16.4194 45.7206 16.5952 45.9586 16.7782 46.1885C17.1712 46.6797 17.5849 47.1557 17.9581 47.6596C18.3466 48.1887 18.8136 48.6466 19.2354 49.1433C19.642 49.6201 20.0845 50.0681 20.5109 50.5288C20.7994 50.8434 21.0743 51.1706 21.3763 51.4716C21.7521 51.8421 22.1515 52.1901 22.54 52.5488C22.9474 52.9247 23.3531 53.3024 23.7641 53.6738C24.0174 53.9027 24.2806 54.1209 24.5411 54.3426C25.0062 54.7356 25.4714 55.1314 25.9392 55.5208C26.1835 55.7227 26.4323 55.9183 26.682 56.1139C26.9938 56.3564 27.3021 56.6061 27.623 56.8368C27.9376 57.0649 28.2612 57.2812 28.5902 57.4876C29.0482 57.7752 29.5079 58.0618 29.9802 58.3241C30.5544 58.6423 31.1574 58.9092 31.719 59.2463C32.0264 59.4311 32.3067 59.4428 32.6051 59.3067C33.0207 59.1192 33.4353 58.9281 33.831 58.7027C34.5819 58.2764 35.3382 57.8536 36.0557 57.375C36.7985 56.8801 37.5088 56.3365 38.2119 55.784C38.8519 55.2792 39.4684 54.7428 40.0841 54.2056C40.5267 53.8207 40.9549 53.4169 41.3803 53.013C41.7066 52.7012 42.0356 52.3911 42.3674 52.0882C42.8487 51.6483 43.3003 51.1805 43.7546 50.7163C44.1224 50.3404 44.4731 49.9483 44.8246 49.557C45.1067 49.2425 45.3672 48.908 45.6593 48.6052C46.0424 48.2085 46.3687 47.7668 46.7131 47.3378C47.2169 46.7095 47.7127 46.074 48.213 45.4421C48.4456 45.1465 48.6808 44.8544 48.908 44.5524C49.246 44.0999 49.5849 43.6483 49.9094 43.1877C50.3286 42.5919 50.7613 42.0023 51.139 41.3795C51.5572 40.6908 51.9304 39.9715 52.3027 39.2548C52.5316 38.8105 52.7489 38.3561 52.9229 37.8874C53.1915 37.1645 53.4998 36.4551 53.7116 35.7096C53.9198 34.9777 54.174 34.2592 54.4012 33.5318C54.4507 33.3741 54.4598 33.2046 54.4994 33.0423C54.5733 32.7476 54.6959 32.4645 54.7004 32.1517C54.7004 32.0877 54.723 32.0237 54.7383 31.9588C54.8212 31.6037 54.9249 31.2539 54.9844 30.8952C55.0628 30.4192 55.1043 29.9361 55.1638 29.4574C55.2088 29.1095 55.2007 28.7579 55.2782 28.41C55.3314 28.181 55.2719 27.9286 55.2882 27.6871Z" fill="#1D1D1B"/>
</g>
<path fill-rule="evenodd" clip-rule="evenodd" d="M51.9172 22.1495C51.8676 22.6273 51.6693 23.0689 51.4241 23.4845C51.2835 23.7207 51.1393 23.9523 50.9464 24.1542C50.6282 24.4878 50.2126 24.6239 49.7953 24.7131C49.5348 24.769 49.2499 24.6897 48.9957 24.5572C48.3512 24.2236 48.1935 23.6368 48.1394 22.9878C48.0934 22.5029 48.3242 22.1035 48.5099 21.6934C48.5802 21.5429 48.6748 21.404 48.7514 21.2544C48.9849 20.7974 49.359 20.4792 49.8115 20.271C50.2036 20.0907 50.6111 20.1042 50.9869 20.3683C51.3439 20.6207 51.6134 20.9533 51.7865 21.3391C51.8956 21.5816 51.9451 21.8854 51.9172 22.1495ZM48.3837 27.1676C48.3656 27.622 48.3936 28.0817 48.3494 28.5342C48.2728 29.3346 47.9249 29.9981 47.2344 30.4488C47.1262 30.5182 46.9874 30.5425 46.8639 30.5885C46.2843 30.803 45.6903 30.9274 45.2062 30.8634C44.3345 30.8382 43.6098 30.7408 42.8887 30.6128C42.1333 30.4785 41.396 30.2856 40.6847 30.0035C40.4305 29.9034 40.1935 29.7637 39.9537 29.6339C39.8158 29.56 39.6932 29.4599 39.5535 29.3941C39.1379 29.1985 38.7593 28.9425 38.4484 28.6108C37.866 27.9906 37.6894 27.2434 37.876 26.4186C38.0121 25.8119 38.3167 25.272 38.6836 24.7879C39.0298 24.33 39.43 23.9055 39.8527 23.5151C40.8055 22.6336 41.8476 21.8827 43.1095 21.4906C43.8757 21.2517 44.6131 21.3391 45.3441 21.6492C45.8606 21.8692 46.2735 22.2072 46.625 22.6363C46.7864 22.8301 46.9793 23.0004 47.1361 23.1987C47.7229 23.9388 48.0042 24.8168 48.2431 25.7119C48.3711 26.1887 48.4035 26.6746 48.3837 27.1676ZM37.4225 22.8165C37.2909 22.7471 37.1882 22.62 37.0683 22.5218C36.8835 22.3695 36.7907 22.163 36.6906 21.9485C36.4544 21.4365 36.3318 20.9038 36.3345 20.2376C36.3201 19.6887 36.44 19.0739 36.8411 18.5403C37.0304 18.2897 37.2296 18.0373 37.5235 17.9156C37.9111 17.7569 38.3095 17.8282 38.6494 18.0409C39.0829 18.3131 39.4083 18.6908 39.5463 19.2091C39.7004 19.7923 39.8428 20.3737 39.7942 20.9849C39.7563 21.4455 39.6499 21.8881 39.3876 22.2712C39.0649 22.7399 38.625 23.0581 38.0346 23.0464C37.8282 23.041 37.6154 22.9184 37.4225 22.8165ZM41.6682 15.5142C42.2009 14.9545 42.6165 14.9788 43.2943 15.4818C43.8802 15.9145 44.0443 16.3489 44.1119 17.3522C44.0876 17.5595 44.0569 17.8913 44.0091 18.2221C43.9442 18.6629 43.8135 19.073 43.5458 19.4489C43.0518 20.143 42.383 20.2755 41.6898 19.9086C41.5934 19.8572 41.4969 19.7869 41.4311 19.7022C41.0056 19.1496 40.7379 18.5159 40.7478 17.8255C40.7596 16.9556 41.0642 16.1524 41.6682 15.5142ZM46.2275 16.5328C46.6584 16.1362 47.21 15.9902 47.7887 16.1119C48.3296 16.2245 48.5838 16.6374 48.7145 17.1449C48.8136 17.5244 48.7578 17.9021 48.6947 18.2762C48.6532 18.5159 48.5703 18.7503 48.5045 18.9874C48.4441 19.2073 48.3197 19.384 48.1592 19.5498C47.8735 19.8455 47.6175 20.1583 47.2443 20.3656C46.3582 20.8578 45.4523 20.3602 45.1891 19.5796C45.1179 19.3642 45.1242 19.1208 45.0908 18.8567C45.2008 17.967 45.5451 17.1584 46.2275 16.5328ZM54.0896 25.2738C54.0382 24.3607 53.9454 23.4502 53.8678 22.5389C53.8516 22.3532 53.8372 22.1639 53.802 21.9809C53.7038 21.4834 53.5983 20.9876 53.4893 20.4927C53.4595 20.3629 53.3919 20.243 53.3667 20.115C53.2287 19.4074 52.9376 18.7521 52.6428 18.1031C52.3733 17.5127 52.0533 16.9448 51.7549 16.3679C51.6991 16.2588 51.6477 16.1452 51.5747 16.047C51.2105 15.5602 50.8562 15.0653 50.4677 14.6002C50.1721 14.246 49.853 13.9016 49.5014 13.6069C49.1219 13.2887 48.6947 13.0264 48.2818 12.7514C48.1187 12.6424 47.9438 12.5468 47.7644 12.4702C47.4435 12.3296 47.1091 12.2214 46.7909 12.0763C46.3041 11.8536 45.8056 11.6787 45.2819 11.5706C45.1314 11.5381 44.9745 11.5246 44.8267 11.4831C44.0984 11.274 43.3511 11.2614 42.6047 11.2416C42.1576 11.2298 41.7169 11.3263 41.2914 11.4101C40.6171 11.5408 39.9537 11.7662 39.3525 12.134C38.7693 12.49 38.241 12.911 37.7453 13.3734C37.5524 13.5528 37.3865 13.7619 37.2161 13.9656C36.8763 14.3695 36.5419 14.7796 36.2038 15.1879C36.1471 15.2555 36.0758 15.315 36.0299 15.3889C35.764 15.8081 35.4998 16.2273 35.2447 16.6527C34.9311 17.1746 34.6156 17.6947 34.4082 18.2716C34.3253 18.4997 34.2541 18.7332 34.1613 18.9567C34.045 19.2362 33.8647 19.4985 33.798 19.7887C33.7259 20.1096 33.5735 20.3981 33.4825 20.7109C33.3671 21.1102 33.1805 21.4933 32.9975 21.8692C32.8749 22.1243 32.7722 22.3965 32.5162 22.5705C32.244 22.7553 31.8167 22.6831 31.6616 22.3857C31.4877 22.0513 31.338 21.706 31.1803 21.3635C31.0559 21.094 30.9252 20.8253 30.8197 20.5477C30.7071 20.2457 30.6286 19.9302 30.5196 19.6265C30.3844 19.2479 30.2338 18.8747 30.0896 18.4997C30.0058 18.2816 29.9354 18.0571 29.8318 17.848C29.6885 17.5613 29.528 17.2819 29.3622 17.007C29.0106 16.4247 28.6762 15.8288 28.285 15.2727C27.9496 14.7958 27.5449 14.3685 27.1717 13.9196C27.0582 13.7844 26.9545 13.6375 26.8274 13.5185C26.5272 13.2382 26.2234 12.9605 25.9044 12.7027C25.4843 12.3647 25.048 12.0546 24.5459 11.8293C24.0772 11.6175 23.585 11.4949 23.1019 11.3362C23.0325 11.3119 22.9486 11.3317 22.8729 11.3281C22.7963 11.3227 22.7197 11.3182 22.644 11.3047C22.479 11.2767 22.3176 11.2244 22.1545 11.2145C21.9012 11.2001 21.6407 11.2479 21.3955 11.2055C20.9096 11.1217 20.4463 11.2434 19.9821 11.3236C19.3529 11.4327 18.7174 11.5399 18.1171 11.7806C17.7989 11.9086 17.4699 12.0105 17.149 12.1285C17.0994 12.1466 17.0633 12.2007 17.0147 12.2259C16.9191 12.2782 16.8173 12.3242 16.7181 12.3683C16.637 12.4053 16.5504 12.4278 16.4738 12.4702C16.2349 12.6036 15.9943 12.7325 15.7671 12.8839C15.4273 13.1129 15.0703 13.3274 14.7738 13.6051C14.3898 13.9656 14.0616 14.383 13.7047 14.7715C13.0872 15.4439 12.6392 16.2327 12.1966 17.0232C11.9983 17.3747 11.8397 17.7497 11.6693 18.1184C11.6053 18.2572 11.5656 18.4078 11.5089 18.5493C11.3836 18.8567 11.2366 19.155 11.133 19.4678C10.9969 19.8843 10.8752 20.3061 10.7814 20.7334C10.6751 21.2084 10.6029 21.6907 10.5209 22.1711C10.4903 22.3532 10.4668 22.5362 10.4443 22.7183C10.4281 22.8508 10.41 22.9824 10.4019 23.1149C10.3605 23.7621 10.3199 24.4093 10.282 25.0575C10.2622 25.4072 10.2 25.7614 10.2379 26.1058C10.3163 26.8026 10.1513 27.5066 10.3253 28.198C10.3298 28.2187 10.3199 28.2421 10.3217 28.2638C10.3551 28.8046 10.3686 29.3482 10.429 29.8845C10.4767 30.2991 10.5786 30.7057 10.6678 31.1149C10.7823 31.635 10.9103 32.1515 11.0266 32.6716C11.1564 33.2567 11.2799 33.8426 11.4863 34.4087C11.6522 34.8657 11.7549 35.347 11.9262 35.8013C12.2093 36.5567 12.5175 37.3031 12.8321 38.0458C12.9791 38.3929 13.1593 38.7246 13.3324 39.0599C13.3838 39.1582 13.4469 39.2303 13.592 39.2204C14.5971 39.1546 15.604 39.1023 16.6099 39.0428C16.7316 39.0356 16.8515 39.0058 16.9714 39.0049C17.3148 39.0031 17.6574 39.0104 18.0017 39.014C18.1892 39.0167 18.3776 39.032 18.5651 39.0248C18.7751 39.0167 18.9842 38.9779 19.1934 38.9725C19.7802 38.959 20.3688 38.9743 20.9547 38.9418C21.4171 38.9157 21.8769 38.8445 22.342 38.9049C22.4384 38.9184 22.5403 38.8941 22.6494 38.8878C22.7044 38.7733 22.7638 38.6651 22.8107 38.5515C23.0874 37.8899 23.3813 37.2346 23.6283 36.5621C23.7671 36.1844 23.9627 35.8347 24.1105 35.4651C24.4576 34.6016 24.7686 33.7236 25.1111 32.8582C25.332 32.3021 25.5699 31.7522 25.8232 31.2114C26.081 30.6624 26.3569 30.1225 26.648 29.5897C26.7454 29.4104 26.8923 29.2445 27.05 29.1138C27.3033 28.9047 27.5431 28.9452 27.7973 29.1598C28.0668 29.3887 28.1101 29.7105 28.1822 30.0179C28.285 30.4605 28.3454 30.9148 28.4689 31.352C28.5996 31.8099 28.6564 32.2768 28.7258 32.7429C28.7762 33.0665 28.8285 33.3901 28.8907 33.7128C28.9502 34.0174 29.0358 34.3167 29.0899 34.6214C29.2071 35.2866 29.3045 35.9546 29.4244 36.6198C29.5334 37.2156 29.6713 37.8061 29.7831 38.4019C29.958 39.3285 30.1202 40.2579 30.2951 41.1836C30.351 41.4739 30.4438 41.7569 30.4925 42.0481C30.6124 42.7818 30.7161 43.5174 30.8324 44.2511C30.8405 44.3061 30.8891 44.3548 30.9549 44.4711C31.0126 44.2701 31.0505 44.1367 31.0893 44.0033C31.2767 43.3587 31.466 42.7142 31.6535 42.0697C31.8005 41.5613 31.9447 41.052 32.0943 40.5436C32.2007 40.1822 32.3098 39.8207 32.4206 39.4611C32.4945 39.2195 32.5685 38.977 32.6523 38.739C32.829 38.2414 33.0174 37.7484 33.1913 37.2508C33.3193 36.8839 33.4239 36.508 33.56 36.1421C33.6862 35.7968 33.9936 35.5787 34.3226 35.6517C34.6219 35.7175 34.8085 35.978 34.9635 36.2358C35.0185 36.3269 35.0374 36.4404 35.0834 36.5387C35.2465 36.892 35.4557 37.2247 35.5098 37.6231C35.5206 37.6943 35.5972 37.7565 35.6711 37.8638C35.7279 37.7385 35.7531 37.6564 35.7982 37.5879C36.047 37.2075 36.2579 36.8127 36.4139 36.3827C36.4941 36.1637 36.669 35.978 36.8177 35.7887C36.8655 35.7274 36.9619 35.6932 37.0422 35.6652C37.3946 35.5426 37.6569 35.6977 37.8516 35.9708C38.0454 36.2466 38.3005 36.335 38.6223 36.362C39.2822 36.4161 39.9483 36.3025 40.6036 36.4404C40.6144 36.4431 40.6262 36.4404 40.637 36.4404C41.45 36.4017 42.2649 36.3701 43.078 36.3242C43.8911 36.2782 44.7032 36.2151 45.5163 36.1637C45.9724 36.1358 46.4285 36.115 46.8837 36.0916C48.1096 36.0276 49.3338 35.9546 50.5597 35.9068C51.1726 35.8825 51.7874 35.9023 52.4103 35.9023C52.4607 35.7887 52.5013 35.7301 52.5121 35.6661C52.6428 34.9423 52.9962 34.2843 53.1323 33.5604C53.2152 33.1151 53.3676 32.6825 53.464 32.2381C53.5713 31.7387 53.5929 31.2132 53.7588 30.7354C53.949 30.1892 53.9057 29.6249 54.0085 29.0741C54.0553 28.8208 54.0202 28.5405 54.0436 28.2845C54.0788 27.8852 54.1013 27.4904 54.095 27.091C54.0869 26.4844 54.1229 25.8777 54.0896 25.2738Z" fill="#FEFEFE"/>
<path fill-rule="evenodd" clip-rule="evenodd" d="M14.0247 40.3068C14.5024 40.3068 14.9198 40.3122 15.338 40.305C15.6147 40.3005 15.8915 40.2735 16.1691 40.2636C16.911 40.2365 17.6537 40.2176 18.3956 40.1869C19.1158 40.1581 19.8342 40.1139 20.5545 40.0833C20.8303 40.0716 21.1079 40.0869 21.3847 40.0743C21.7705 40.0562 22.1563 40.013 22.5421 40.0012C22.7809 39.994 22.9279 39.8732 23.055 39.6921C23.5039 39.0521 23.8671 38.3625 24.2034 37.6594C24.5811 36.8725 24.9425 36.0774 25.295 35.2788C25.5537 34.6901 25.7835 34.0898 26.0314 33.4967C26.2225 33.0415 26.4181 32.5872 26.6182 32.1365C26.7787 31.7768 26.95 31.4216 27.1311 31.0322C27.3006 31.2522 27.2745 31.4856 27.3159 31.6921C27.3998 32.1076 27.4511 32.5286 27.5079 32.9486C27.5458 33.229 27.5692 33.5111 27.69 33.7734C27.7125 33.8221 27.7125 33.8834 27.7134 33.9384C27.7198 34.5522 27.9091 35.1336 28.0289 35.7277C28.1335 36.2505 28.2011 36.7814 28.2876 37.3078C28.3273 37.5458 28.3688 37.7829 28.4156 38.019C28.5364 38.6158 28.6617 39.2107 28.7825 39.8074C28.9177 40.4772 29.0602 41.1451 29.1809 41.8167C29.3261 42.6171 29.4288 43.4257 29.5929 44.2225C29.7687 45.0789 29.8345 45.9568 30.1058 46.7934C30.1373 46.8889 30.1563 46.9935 30.2094 47.0746C30.3411 47.2765 30.524 47.4379 30.7755 47.4225C31.0775 47.4045 31.3317 47.2684 31.4732 46.9817C31.7229 46.477 31.8167 45.9226 31.9744 45.389C32.2124 44.5858 32.4585 43.7845 32.6928 42.9804C32.7929 42.6379 32.8659 42.2872 32.9642 41.9429C33.0579 41.6139 33.1724 41.2912 33.2679 40.9621C33.3445 40.698 33.3968 40.4267 33.4762 40.1644C33.6672 39.5388 33.8692 38.9168 34.063 38.2922C34.1243 38.0921 34.1738 37.8892 34.2469 37.6206C34.3442 37.8361 34.4506 37.9893 34.4803 38.1561C34.5344 38.4535 34.7219 38.6717 34.8625 38.9177C35.041 39.2305 35.3727 39.29 35.7107 39.2188C36.0371 39.1494 36.2912 38.9592 36.4796 38.6798C36.7681 38.2516 37.0511 37.8207 37.1936 37.315C37.2134 37.2438 37.2765 37.1852 37.3171 37.1248C37.3387 37.1276 37.3531 37.1248 37.3603 37.1312C37.7669 37.4737 38.2599 37.5422 38.7638 37.5638C39.2506 37.5846 39.7382 37.5864 40.225 37.6035C40.8911 37.6278 41.5564 37.6675 42.2216 37.6846C42.648 37.6954 43.0743 37.6729 43.5016 37.672C43.8577 37.6711 44.2137 37.6882 44.5698 37.6819C45.0007 37.6756 45.4315 37.6522 45.8633 37.6377C46.4952 37.6161 47.128 37.5981 47.7599 37.5737C48.2376 37.5557 48.7154 37.5215 49.194 37.5079C49.9458 37.4872 50.6985 37.4791 51.4502 37.4629C51.5593 37.4602 51.6666 37.4421 51.8378 37.4241C51.6585 37.8117 51.5088 38.1525 51.3448 38.486C51.0861 39.0088 50.8346 39.5352 50.5497 40.0427C50.3109 40.4673 50.0341 40.8702 49.7655 41.2767C49.4545 41.7464 49.1417 42.2133 48.8145 42.6712C48.5657 43.0201 48.2935 43.3509 48.0312 43.6907C47.8437 43.9341 47.6562 44.1775 47.4696 44.4217C47.2343 44.7282 47.0027 45.0365 46.7647 45.3412C46.4925 45.6891 46.2248 46.0416 45.939 46.3787C45.3468 47.0755 44.7447 47.7642 44.1452 48.4537C43.782 48.872 43.4259 49.2966 43.0482 49.7013C42.7453 50.0258 42.4154 50.3242 42.0981 50.6352C41.807 50.9218 41.5212 51.2121 41.2274 51.4951C40.8902 51.8178 40.5477 52.1342 40.207 52.4533C39.9429 52.7003 39.6842 52.9536 39.4119 53.1925C39.1009 53.4656 38.7737 53.7207 38.4609 53.992C38.2212 54.1993 37.994 54.4211 37.7596 54.6347C37.6217 54.7609 37.4856 54.888 37.3414 55.0061C36.9412 55.3369 36.5445 55.6731 36.1326 55.9895C35.7639 56.2735 35.3592 56.5123 35.0022 56.808C34.547 57.1848 34.0395 57.4786 33.5492 57.7995C33.1886 58.0357 32.8325 58.2782 32.4756 58.5198C32.4026 58.5685 32.3359 58.6252 32.2439 58.6937C31.9573 58.5117 31.6661 58.3332 31.3813 58.1457C31.0126 57.9023 30.6475 57.6535 30.2834 57.4056C29.6875 57 29.0899 56.5998 28.5328 56.141C28.3201 55.9661 28.0803 55.8228 27.8658 55.6479C27.5485 55.3901 27.2438 55.1161 26.931 54.851C26.6561 54.6167 26.3758 54.3886 26.1026 54.1525C25.8881 53.9677 25.6799 53.7739 25.468 53.5846C24.9768 53.1465 24.4792 52.7156 23.9951 52.2685C23.6039 51.907 23.228 51.5294 22.8485 51.1553C22.4555 50.7677 22.0652 50.3755 21.6749 49.9843C21.5253 49.8347 21.3756 49.6842 21.2314 49.5291C20.7492 49.0108 20.2642 48.4943 19.7892 47.9688C19.5584 47.7146 19.3439 47.4451 19.1248 47.1801C18.8517 46.851 18.5804 46.5202 18.3109 46.1876C17.8728 45.6477 17.4311 45.1104 17.0011 44.5633C16.655 44.1243 16.3151 43.6808 15.9888 43.2265C15.6869 42.8064 15.4101 42.3683 15.1145 41.9429C14.8359 41.5417 14.5457 41.1487 14.268 40.7476C14.1869 40.6304 14.1292 40.4979 14.0247 40.3068Z" fill="#FEFEFE"/>
<path fill-rule="evenodd" clip-rule="evenodd" d="M47.4893 28.7724C47.3937 29.3079 47.0485 29.6567 46.5077 29.7793C46.02 29.8902 45.5278 29.9172 45.0221 29.8947C44.283 29.8595 43.5709 29.6865 42.8506 29.563C42.4198 29.4872 42.0087 29.2997 41.5905 29.1564C41.2588 29.0437 40.9225 28.9347 40.6007 28.7977C40.1473 28.6066 39.7444 28.3298 39.3577 28.0297C38.7628 27.5645 38.6528 26.7596 38.98 26.1025C39.4289 25.2047 40.0509 24.4511 40.7639 23.7543C41.2642 23.2675 41.8005 22.8466 42.4153 22.5167C42.8056 22.3057 43.2112 22.1372 43.6475 22.1372C44.4624 22.1399 45.2123 22.3517 45.7865 22.9845C46.084 23.3135 46.3833 23.6407 46.6816 23.9679C46.7195 24.0103 46.7628 24.0508 46.7844 24.0995C47.0999 24.8207 47.4731 25.5219 47.5704 26.3188C47.6056 26.6045 47.6164 26.893 47.6488 27.3058C47.6065 27.7142 47.5821 28.2496 47.4893 28.7724ZM48.2429 25.7121C48.004 24.8161 47.7228 23.9391 47.1359 23.1981C46.98 22.9998 46.7871 22.8303 46.6248 22.6365C46.2733 22.2075 45.8604 21.8694 45.3439 21.6495C44.6129 21.3394 43.8755 21.2511 43.1102 21.4899C41.8483 21.883 40.8053 22.6338 39.8526 23.5154C39.4307 23.9048 39.0296 24.3294 38.6834 24.7882C38.3166 25.2723 38.0119 25.8113 37.8758 26.4179C37.6901 27.2436 37.8668 27.99 38.4491 28.6111C38.7591 28.9419 39.1377 29.1988 39.5533 29.3944C39.693 29.4602 39.8156 29.5603 39.9535 29.6342C40.1933 29.7631 40.4313 29.9037 40.6846 30.0037C41.3958 30.285 42.134 30.4779 42.8885 30.6131C43.6105 30.7411 44.3344 30.8385 45.2069 30.8637C45.691 30.9268 46.2841 30.8033 46.8637 30.5888C46.9881 30.5428 47.1269 30.5185 47.2342 30.4481C47.9247 29.9983 48.2726 29.3349 48.3492 28.5336C48.3943 28.0819 48.3655 27.6222 48.3835 27.1679C48.4033 26.6748 48.3709 26.189 48.2429 25.7121Z" fill="#1D1D1B"/>
<path fill-rule="evenodd" clip-rule="evenodd" d="M38.8883 21.0413C38.8099 21.3983 38.5954 21.6822 38.2078 21.8553C37.8896 21.6471 37.6507 21.3956 37.5344 21.0188C37.401 20.587 37.3658 20.1498 37.3902 19.7082C37.4136 19.2791 37.6615 18.9663 37.9932 18.7157C38.1005 18.6328 38.1942 18.6724 38.2952 18.7437C38.6549 19.0015 38.8153 19.3764 38.8928 19.7875C38.9695 20.203 38.9803 20.6285 38.8883 21.0413ZM39.5464 19.2088C39.4084 18.6914 39.0821 18.3137 38.6495 18.0415C38.3096 17.8287 37.9112 17.7566 37.5236 17.9162C37.2297 18.0369 37.0305 18.2893 36.8412 18.5399C36.4401 19.0745 36.3202 19.6892 36.3346 20.2373C36.3319 20.9034 36.4545 21.4362 36.6907 21.9491C36.7907 22.1627 36.8836 22.3691 37.0684 22.5215C37.1883 22.6206 37.2901 22.7468 37.4226 22.8171C37.6155 22.9181 37.8283 23.0407 38.0347 23.0461C38.6251 23.0587 39.065 22.7405 39.3868 22.2709C39.65 21.8878 39.7564 21.4461 39.7942 20.9846C39.8429 20.3743 39.6996 19.7929 39.5464 19.2088Z" fill="#1D1D1B"/>
<path fill-rule="evenodd" clip-rule="evenodd" d="M46.8286 19.4598C46.5843 19.6176 46.258 19.4743 46.1624 19.1912C45.9226 18.48 46.1895 17.886 46.6077 17.3388C46.7474 17.1558 46.9394 17.0116 47.1107 16.8521C47.2333 16.7376 47.3487 16.7565 47.4514 16.8872C47.6615 17.154 47.8183 17.4425 47.7994 17.9238C47.7038 18.4836 47.4325 19.0713 46.8286 19.4598ZM48.7152 17.145C48.5845 16.6375 48.3294 16.2256 47.7886 16.112C47.2098 15.9903 46.6591 16.1363 46.2273 16.533C45.5449 17.1585 45.2015 17.9671 45.0906 18.8568C45.124 19.1218 45.1177 19.3643 45.1889 19.5797C45.4521 20.3603 46.358 20.8579 47.2441 20.3657C47.6173 20.1584 47.8733 19.8456 48.159 19.55C48.3195 19.3841 48.4439 19.2074 48.5043 18.9875C48.571 18.7504 48.653 18.5161 48.6945 18.2763C48.7576 17.9022 48.8135 17.5254 48.7152 17.145Z" fill="#1D1D1B"/>
<path fill-rule="evenodd" clip-rule="evenodd" d="M50.9369 22.492C50.7701 22.7994 50.57 23.0978 50.3384 23.3574C50.2086 23.5034 49.9967 23.608 49.8029 23.6558C49.5577 23.7162 49.2486 23.4412 49.18 23.1744C49.0088 22.5038 49.3297 21.5843 49.9228 21.1652C50.0824 21.0534 50.2834 20.9939 50.4745 20.9389C50.5403 20.9182 50.6602 20.9578 50.7088 21.0128C50.918 21.2463 51.0802 21.5104 51.1145 21.8773C51.0649 22.0576 51.0424 22.2982 50.9369 22.492ZM51.786 21.3391C51.6139 20.9533 51.3443 20.6207 50.9865 20.3683C50.6106 20.1042 50.2031 20.0907 49.811 20.271C49.3594 20.4792 48.9844 20.7974 48.751 21.2544C48.6744 21.404 48.5797 21.5429 48.5103 21.6934C48.3237 22.1035 48.093 22.5029 48.1389 22.9878C48.193 23.6368 48.3508 24.2236 48.9953 24.5581C49.2504 24.6897 49.5343 24.769 49.7948 24.7131C50.2131 24.6239 50.6277 24.4878 50.9459 24.1542C51.1388 23.9523 51.283 23.7207 51.4237 23.4845C51.6688 23.0689 51.8671 22.6273 51.9167 22.1495C51.9456 21.8854 51.896 21.5816 51.786 21.3391Z" fill="#1D1D1B"/>
<path fill-rule="evenodd" clip-rule="evenodd" d="M43.2945 17.4749C43.1855 17.8932 43.0899 18.3151 42.9935 18.736C42.9466 18.946 42.7835 19.047 42.623 19.1416C42.4671 19.2345 42.2426 19.1957 42.1299 19.0704C41.7306 18.6287 41.5738 18.0978 41.5593 17.5164C41.5711 16.8467 41.9487 16.3716 42.3949 15.9389C42.55 15.7866 42.6672 15.792 42.8411 15.9218C43.0232 16.0579 43.1747 16.2301 43.2215 16.4554C43.2909 16.7899 43.3865 17.1243 43.2945 17.4749ZM43.2945 15.4819C42.6167 14.9789 42.2011 14.9546 41.6684 15.5144C41.0645 16.1526 40.7598 16.9557 40.7472 17.8256C40.7382 18.5161 41.005 19.1498 41.4313 19.7023C41.4971 19.7871 41.5927 19.8574 41.69 19.9087C42.3832 20.2756 43.0521 20.1431 43.5451 19.449C43.8138 19.0731 43.9445 18.663 44.0094 18.2222C44.0562 17.8914 44.0878 17.5597 44.1112 17.3523C44.0445 16.3491 43.8796 15.9146 43.2945 15.4819Z" fill="#1D1D1B"/>
<path fill-rule="evenodd" clip-rule="evenodd" d="M47.6481 27.3051C47.6057 27.7143 47.5823 28.2497 47.4885 28.7735C47.393 29.308 47.0478 29.6568 46.5078 29.7794C46.0193 29.8912 45.528 29.9173 45.0214 29.8939C44.2822 29.8597 43.571 29.6866 42.8508 29.5622C42.4199 29.4874 42.008 29.2999 41.5906 29.1575C41.258 29.0439 40.9236 28.9339 40.6 28.7978C40.1484 28.6067 39.7436 28.3309 39.3578 28.0298C38.762 27.5647 38.652 26.7597 38.9802 26.1026C39.4282 25.2039 40.051 24.4512 40.764 23.7544C41.2634 23.2668 41.8007 22.8467 42.4154 22.5159C42.8057 22.3058 43.2114 22.1373 43.6485 22.1382C44.4625 22.14 45.2125 22.3518 45.7867 22.9846C46.0851 23.3127 46.3843 23.6399 46.6818 23.9689C46.7187 24.0095 46.762 24.0501 46.7836 24.0997C47.0991 24.8208 47.4741 25.5221 47.5706 26.3189C47.6048 26.6047 47.6165 26.8931 47.6481 27.3051Z" fill="#F6C0C6"/>
<path fill-rule="evenodd" clip-rule="evenodd" d="M38.2076 21.8564C37.8894 21.6464 37.6506 21.3958 37.5343 21.019C37.4009 20.5872 37.3666 20.15 37.3901 19.7084C37.4126 19.2793 37.6614 18.9665 37.9931 18.715C38.1013 18.633 38.1941 18.6717 38.2951 18.7438C38.6547 19.0016 38.8152 19.3766 38.8918 19.7877C38.9693 20.2032 38.9792 20.6296 38.8891 21.0406C38.8098 21.3985 38.5952 21.6824 38.2076 21.8564Z" fill="#F6C0C6"/>
<path fill-rule="evenodd" clip-rule="evenodd" d="M47.7999 17.9236C47.7035 18.4833 47.4321 19.0719 46.8282 19.4605C46.5839 19.6173 46.2585 19.4749 46.163 19.1909C45.9223 18.4797 46.1891 17.8857 46.6082 17.3385C46.748 17.1556 46.9391 17.0104 47.1103 16.8518C47.2338 16.7382 47.3483 16.7553 47.452 16.8869C47.662 17.1537 47.8179 17.4422 47.7999 17.9236Z" fill="#F6C0C6"/>
<path fill-rule="evenodd" clip-rule="evenodd" d="M51.1151 21.8771C51.0655 22.0574 51.0421 22.2971 50.9366 22.4918C50.7689 22.7992 50.5697 23.0967 50.3381 23.3572C50.2092 23.5032 49.9964 23.6087 49.8026 23.6555C49.5574 23.7159 49.2483 23.441 49.1798 23.1742C49.0094 22.5044 49.3294 21.5841 49.9225 21.1659C50.0821 21.0532 50.2831 20.9937 50.4742 20.9378C50.5409 20.918 50.6599 20.9576 50.7085 21.0126C50.9186 21.2461 51.0799 21.5102 51.1151 21.8771Z" fill="#F6C0C6"/>
<path fill-rule="evenodd" clip-rule="evenodd" d="M41.5597 17.5167C41.5714 16.847 41.9491 16.3729 42.3944 15.9393C42.5503 15.7878 42.6675 15.7923 42.8415 15.9221C43.0236 16.0583 43.175 16.2304 43.221 16.4549C43.2904 16.7902 43.3859 17.1246 43.294 17.4753C43.1849 17.8935 43.0894 18.3145 42.9947 18.7363C42.947 18.9464 42.7829 19.0464 42.6225 19.142C42.4665 19.2348 42.243 19.1952 42.1294 19.0699C41.7301 18.6291 41.5741 18.0982 41.5597 17.5167Z" fill="#F6C0C6"/>
</svg>
