<svg width="64" height="64" viewBox="0 0 64 64" fill="none" xmlns="http://www.w3.org/2000/svg">
<path d="M32 64C49.6731 64 64 49.6731 64 32C64 14.3269 49.6731 0 32 0C14.3269 0 0 14.3269 0 32C0 49.6731 14.3269 64 32 64Z" fill="#FAC3C8"/>
<mask id="mask0_1348_10235" style="mask-type:luminance" maskUnits="userSpaceOnUse" x="10" y="2" width="45" height="60">
<path fill-rule="evenodd" clip-rule="evenodd" d="M10 2H54.0373V62H10V2Z" fill="white"/>
</mask>
<g mask="url(#mask0_1348_10235)">
<path fill-rule="evenodd" clip-rule="evenodd" d="M40.1645 56.692C40.1835 56.7777 40.2026 56.854 40.2217 56.9397C40.2312 56.9493 40.2312 56.9588 40.2312 56.9683C40.2693 57.0827 40.3074 57.2066 40.3551 57.3209C40.4122 57.5687 40.4504 57.8165 40.5743 58.0452C40.6028 58.0833 40.6219 58.1024 40.6314 58.1214C40.7172 58.3787 40.9173 58.6074 41.0984 58.8171C41.1556 58.8838 41.2127 58.96 41.2604 59.0268L41.2794 59.0458C41.4319 59.2936 41.5939 59.5509 41.7559 59.7987C41.775 59.8177 41.7845 59.8368 41.7941 59.8654C41.9656 60.1799 42.1371 60.5039 42.3468 60.7993C42.4421 61.5045 42.3944 61.8571 42.242 61.9714H42.2324C41.9846 62.1239 41.4986 61.6474 40.9459 60.9708C40.9364 60.9613 40.9269 60.9518 40.9269 60.9422C40.8887 60.8946 40.8601 60.8469 40.8316 60.7898C40.5647 60.2752 40.1645 59.8368 39.8119 59.3698C39.6213 59.1221 39.4307 58.8743 39.2401 58.6265C39.2115 58.5884 39.1829 58.5503 39.1543 58.5121C38.9065 58.1595 38.7064 57.8927 38.5825 57.7688L38.5921 57.7593C38.5921 57.7498 38.5825 57.7402 38.573 57.7307C38.5349 57.6259 38.4587 57.3591 38.3824 57.3781C23.5351 61.5903 8.45906 49.0205 10.1268 33.9636C12.0041 26.3207 14.2627 21.7083 18.0078 19.0686C18.9227 18.4873 17.579 14.9803 17.3598 13.3317C17.4742 12.8838 17.6457 12.5503 17.8649 12.312C17.884 12.3025 17.903 12.2834 17.9221 12.2739C18.2175 12.1119 18.4653 11.9213 18.8179 11.8641H18.8465C19.4373 11.8641 20.0949 12.2358 20.5904 12.7885V12.798C20.6857 12.9696 20.7715 13.1411 20.8668 13.3222C21.0288 13.6557 21.2003 13.9702 21.3909 14.3514C21.6768 14.2084 21.9436 14.0655 22.2486 13.9225C22.2105 13.8654 22.1819 13.8177 22.1533 13.7605C22.1342 13.7415 22.1247 13.7129 22.1152 13.6938C22.0961 13.6557 22.0866 13.6271 22.0961 13.5985C22.1438 13.2269 21.9436 12.9696 21.7435 12.7218C21.6673 12.636 21.591 12.5503 21.5529 12.455C21.2098 11.7688 20.8572 11.0636 20.5237 10.3584C20.4665 10.2441 20.4189 10.1297 20.3712 10.0058C20.3522 9.9677 20.3426 9.93911 20.3426 9.91052C19.5421 7.12784 20.295 5.36484 21.3242 4.92647C21.3718 4.90741 21.4195 4.88835 21.4671 4.87882C21.5243 4.85976 21.5815 4.85023 21.6387 4.8407C22.5345 4.71681 23.516 5.56496 23.8496 7.58526V7.61385V7.63291C23.8591 7.87115 23.9163 8.11893 23.9258 8.35717C23.9449 8.53824 23.9449 8.73836 23.9544 8.94801C23.9544 9.03378 23.9449 9.11955 23.9353 9.19579C23.84 9.97723 23.659 10.7396 23.6399 11.521C23.6113 12.1309 23.516 12.7123 23.3636 13.3793C23.6494 13.265 23.8782 13.1792 24.1164 13.0934C24.1641 13.0744 24.2117 13.0553 24.2594 13.0363L24.2689 13.0267C24.4309 12.96 24.612 12.8838 24.7835 12.8076C24.8502 12.5693 24.8883 12.3311 24.9074 12.0833V12.0738C25.1266 11.3972 25.1456 10.5395 25.2886 9.73898C25.3743 9.4245 25.4982 9.11955 25.6412 8.82413C25.7174 8.66212 25.765 8.52871 25.7746 8.33811L26.2129 7.19454C26.3559 7.00395 26.4702 6.78477 26.6132 6.59417C26.7371 6.4417 26.8038 6.27016 26.8133 6.07004C26.8133 6.01286 26.8228 5.95568 26.8324 5.8985C26.9277 5.70791 27.0325 5.52684 27.1469 5.34578C27.2422 5.26001 27.3184 5.12659 27.3756 5.00271C27.3756 4.99318 27.3851 4.97412 27.3946 4.96459C27.6805 4.51669 28.0141 4.09738 28.3762 3.71619C28.4238 3.65901 28.481 3.60184 28.5382 3.54466C28.7383 3.30641 29.0052 3.10629 29.1481 2.82993C29.1672 2.80134 29.1862 2.77275 29.1958 2.74416C29.2339 2.66792 29.3006 2.58215 29.3768 2.55356C29.6341 2.45827 29.8819 2.31532 30.1392 2.22955C30.1487 2.22002 30.1583 2.22002 30.1583 2.22002C30.2345 2.19143 30.3107 2.16285 30.387 2.15332C30.4346 2.13426 30.4727 2.12473 30.5204 2.12473C30.5585 2.1152 30.6062 2.1152 30.6538 2.1152C30.8349 2.1152 30.9969 2.05802 31.1684 2.0199C31.197 2.01037 31.2256 2.01037 31.2542 2.00084C32.0356 1.98178 32.7885 2.28673 33.2649 2.93475C33.2745 2.95381 33.284 2.9824 33.284 3.01099C33.3126 3.28735 33.3984 3.54466 33.5985 3.75431C33.6652 3.83055 33.7033 3.94491 33.7319 4.06879C33.7414 4.10691 33.7414 4.15456 33.751 4.19268C33.8844 5.03129 33.9416 5.86991 33.5794 6.67994C33.4746 6.92771 33.3793 7.18501 33.284 7.44232C33.284 7.46138 33.2745 7.48044 33.2649 7.48997C32.6836 8.56683 31.8355 9.55792 31.2161 10.549C31.0255 10.8063 30.8253 11.0731 30.6252 11.3304C30.4632 11.5401 30.4537 11.5401 30.6157 11.8069C30.73 11.7879 30.8349 11.7783 30.9492 11.7783C32.7694 11.7783 34.4562 14.1703 36.2668 14.5038C44.8436 16.0667 52.4864 22.7852 53.7443 31.7717C55.3453 42.3116 50.3327 52.9277 40.1645 56.692Z" fill="#FEFEFE"/>
</g>
<mask id="mask1_1348_10235" style="mask-type:luminance" maskUnits="userSpaceOnUse" x="10" y="2" width="45" height="60">
<path fill-rule="evenodd" clip-rule="evenodd" d="M10 2H54.0372V61.9999H10V2Z" fill="white"/>
</mask>
<g mask="url(#mask1_1348_10235)">
<path fill-rule="evenodd" clip-rule="evenodd" d="M39.1548 55.234C36.477 50.6311 33.9516 45.4374 31.7884 40.5772C31.5406 40.0245 30.8259 38.7571 31.4453 38.271C32.484 37.5658 32.646 36.489 33.8277 35.8886C38.1637 31.9719 42.4617 26.6066 46.9883 22.8519C50.1426 25.5298 53.0968 30.6568 52.3821 37.6516C51.8008 45.161 46.5118 52.7658 39.1548 55.234ZM36.934 56.044C35.5998 56.0154 34.2275 56.5586 32.8076 56.5586C30.3394 56.5586 27.8807 56.2251 25.6317 55.4246C24.6215 55.0624 23.4113 55.0529 22.5726 54.2905C21.5339 53.6711 20.1902 53.2137 19.3421 52.2702C17.4266 51.0314 19.5517 50.5453 20.6 49.0111C22.525 47.1337 24.4691 45.3421 26.3083 43.3504C27.0326 42.3307 29.9963 42.7595 28.7956 40.8822C28.948 40.6821 29.1196 40.5677 29.2435 40.4152C32.0261 44.8275 34.5134 51.3649 37.3723 55.9106C37.2103 55.9582 37.0388 55.9582 36.934 56.044ZM25.1274 40.3104C24.9559 40.7012 24.7367 40.9489 24.4984 41.1014C24.1268 41.3492 23.6979 41.3397 23.25 41.2158C23.2024 41.2062 23.1643 41.1872 23.1166 41.1681C22.6115 41.0156 22.0969 40.7298 21.6109 40.4725C21.4203 40.3772 21.2393 40.2914 21.0487 40.1961C20.9629 40.1484 20.8867 40.1103 20.7914 40.0722C20.1433 39.5099 19.8765 39.1288 19.8765 38.881C19.8765 38.8238 19.8956 38.7666 19.9242 38.7285H19.9337C20.2386 38.3378 21.6776 38.6142 22.9737 39.0716C22.9927 39.0811 23.0118 39.0906 23.0308 39.1002C23.9838 39.4432 24.851 39.9102 25.1274 40.3104ZM35.5991 29.9229C35.5801 29.9801 35.5515 30.0372 35.5229 30.0944C35.5134 30.123 35.5038 30.1516 35.4848 30.1802C35.4276 30.3327 35.3514 30.4851 35.2656 30.6186C35.2465 30.6471 35.2275 30.6757 35.2179 30.7043C34.9225 31.1713 34.5413 31.562 34.103 31.9051C34.0934 31.9146 34.0934 31.9241 34.0839 31.9241C33.5979 32.2958 33.0452 32.6007 32.4638 32.8485C32.3971 32.8771 32.34 32.9057 32.2732 32.9343C31.8158 33.1249 31.3584 33.2869 30.901 33.4298C31.2059 32.9248 31.6252 32.21 32.1303 31.5334C32.1303 31.5239 32.1303 31.5144 32.1398 31.5144C32.6735 30.7996 33.2739 30.1516 33.9219 29.8466C33.9219 29.8466 33.9314 29.8276 33.941 29.8276C34.4746 29.5703 35.0369 29.5417 35.5991 29.9229ZM17.112 50.0784C11.4418 43.7316 10.403 34.6688 13.6527 27.7026C16.7594 20.0407 15.2346 26.0349 22.2866 27.9884C28.1474 30.1517 20.6952 20.2884 18.713 19.8786C19.4563 17.6201 25.0979 27.2737 22.1246 16.7529C22.8584 16.2383 23.6494 16.0668 24.5356 16.143C24.7739 16.7243 24.9454 17.3723 25.441 17.8679C27.1468 17.4772 26.9467 14.9518 28.9193 15.4569C28.176 17.5629 26.9752 19.8215 26.899 21.9085C28.1855 22.9853 29.2814 20.8602 30.3774 20.3551C31.7878 19.0591 33.6365 18.2014 34.8468 16.772C35.6187 14.6468 37.6009 17.5915 38.7159 16.4194C39.3925 16.9244 39.8785 17.5534 40.8219 17.4772V17.4581H40.8124C40.7934 17.3628 40.7838 17.2961 40.7838 17.2389V17.2294C40.7838 17.2103 40.7838 17.1913 40.7934 17.1817C40.7838 17.1627 40.7934 17.1436 40.8029 17.1341C40.8124 17.1055 40.8315 17.0769 40.8601 17.0674C40.9458 17.0293 41.0602 17.115 41.1174 17.2199C41.1269 17.2389 41.1269 17.258 41.1269 17.2675C41.146 17.3247 41.1269 17.3819 41.0602 17.42C41.0602 17.4295 41.0507 17.4295 41.0411 17.4295C41.0221 17.439 41.003 17.4486 40.9744 17.4581C40.9458 17.4676 40.9172 17.4676 40.8791 17.4676H40.8315C42.4611 18.1728 44.996 20.0883 45.7869 21.5654C43.9286 23.2903 42.7755 25.1772 40.8505 26.4065C39.9929 27.0736 39.0971 28.5031 37.9916 29.3131C37.8773 29.3988 37.2578 28.4459 37.0577 28.2839C33.5126 25.1867 28.9765 31.3239 29.6245 34.7069C26.9562 30.6472 26.9657 24.7865 25.2218 20.4981C23.2205 25.4631 26.7465 31.7527 28.1665 36.7844C28.2427 37.1179 28.2332 37.0989 27.9187 37.2799C27.0229 37.6516 26.6798 38.5474 26.1938 39.3193C24.0401 38.6903 21.2479 35.8695 19.0942 37.623C16.8451 40.1103 21.7815 42.7881 23.9543 43.1502C22.5916 45.1324 20.1138 46.5714 18.713 48.4393C18.5033 48.9253 17.8362 49.2588 17.112 50.0784ZM16.826 21.3463C17.1786 21.0794 17.5598 21.0508 17.9601 21.1938C18.0363 21.2224 18.103 21.2605 18.1792 21.2986C18.6271 21.5273 19.0846 21.9562 19.5134 22.4708C19.5229 22.4803 19.5325 22.4803 19.5325 22.4898C19.7517 22.7567 19.9708 23.0426 20.171 23.338C20.171 23.3475 20.1805 23.3475 20.1805 23.357C20.4759 23.7763 20.7332 24.2052 20.9619 24.6054C21.2383 25.101 21.4575 25.5489 21.5814 25.8443C21.2574 25.6156 20.8571 25.3964 20.4283 25.1772C20.4092 25.1677 20.3997 25.1582 20.3806 25.1486C19.7421 24.8151 19.0369 24.472 18.427 24.0622C18.3984 24.0432 18.3603 24.0241 18.3317 23.9955L18.3222 23.986C17.8076 23.6429 17.3788 23.2617 17.1024 22.8043C17.0929 22.7853 17.0833 22.7757 17.0738 22.7567C16.8356 22.3469 16.7307 21.8799 16.826 21.3463ZM19.352 13.6653C19.6855 14.1132 19.9904 15.0281 20.2477 15.9429C20.2668 15.981 20.2763 16.0287 20.2954 16.0668C20.5813 17.077 20.81 18.0776 20.9529 18.4302H20.9625V18.4397L20.9529 18.4302C20.7242 18.2491 20.4955 18.049 20.2859 17.8203C20.0476 17.5534 19.8189 17.258 19.6093 16.934C19.5902 16.9054 19.5807 16.8768 19.5711 16.8578C19.3234 16.4671 19.1232 16.0477 18.9803 15.6094C18.9708 15.6094 18.9708 15.5999 18.9708 15.5903C18.8183 15.1615 18.723 14.6945 18.6944 14.2562C18.6944 14.1227 18.6944 13.9893 18.7039 13.8654C18.7039 13.732 18.7135 13.6081 18.7325 13.4747H18.742V13.4652C18.9517 13.2937 19.1614 13.389 19.352 13.6653ZM22.1916 10.8159C22.001 10.2918 21.7437 9.6914 21.5626 9.09102C21.5531 9.0815 21.5531 9.07197 21.5531 9.06244C21.353 8.42394 21.2386 7.77592 21.3625 7.19461C21.3625 7.14696 21.3721 7.09931 21.3911 7.05166C21.4578 6.80389 21.5722 6.57518 21.7628 6.36552C22.001 6.65141 22.144 6.99448 22.2488 7.35661C22.2583 7.36614 22.2583 7.36614 22.2488 7.37567C22.2678 7.47097 22.2869 7.56627 22.306 7.66157C22.325 7.71874 22.325 7.77592 22.325 7.8331C22.3346 7.89028 22.3346 7.94746 22.3346 8.00464C22.4013 8.46206 22.3822 8.93855 22.3346 9.41504C22.3346 9.44362 22.3346 9.48174 22.325 9.51033C22.2964 9.95823 22.2297 10.4157 22.1916 10.8159ZM26.8994 9.92966C26.909 9.92013 26.909 9.92013 26.909 9.9106C26.9375 9.79625 26.9757 9.67236 27.0233 9.558C27.0424 9.4913 27.0614 9.42459 27.0805 9.35788C27.2234 8.88139 27.395 8.39538 27.5856 7.91889C28.1574 6.4799 28.9483 5.10762 30.0157 4.269C30.0252 4.269 30.0252 4.25947 30.0252 4.25947C30.5303 3.85922 31.102 3.58286 31.7405 3.47804C31.7405 3.47804 31.7501 3.46851 31.7501 3.48756C32.3123 4.72643 32.1408 5.89859 31.6071 7.0231C31.5881 7.08027 31.5595 7.12792 31.5214 7.17557C30.94 8.37632 29.9394 9.53895 28.9483 10.6825C28.9483 10.692 28.9388 10.692 28.9293 10.7016C27.881 11.9309 26.8423 13.1602 26.3562 14.4182C26.2705 14.2466 26.2228 14.0656 26.2228 13.8654C26.2133 13.8559 26.2228 13.8369 26.2228 13.8273C26.1942 13.4843 26.28 13.1126 26.3562 12.7409C26.3658 12.7028 26.3658 12.6742 26.3753 12.6456C26.4325 12.3216 26.4801 12.0071 26.442 11.7022V11.6927C26.5659 11.159 26.7184 10.5586 26.8994 9.92966ZM30.702 15.8857C30.8926 15.4759 31.2642 15.028 31.674 14.6563L31.6835 14.6468C32.1791 14.218 32.7413 13.8844 33.1702 13.8654H33.1797C33.4275 13.8558 33.6276 13.9511 33.7229 14.1989C33.7324 14.2084 33.742 14.218 33.742 14.2275C33.8468 14.4848 33.8468 14.9041 33.6943 15.5235V15.5331C33.6752 15.5712 33.6467 15.5998 33.6181 15.6379C33.275 16.0572 32.8652 16.4479 32.4268 16.81C32.4078 16.8196 32.3792 16.8386 32.3506 16.8482C31.674 17.3818 30.9116 17.8488 30.1683 18.3253C29.7299 18.6112 29.3011 18.8971 28.8913 19.202L28.8818 19.2115C28.8627 19.2211 28.8532 19.2306 28.8341 19.2401C28.8341 19.2497 28.8246 19.2497 28.8246 19.2497V19.2401H28.8341V19.2306C28.9008 19.0876 28.9676 18.9542 29.0247 18.8018C29.0724 18.716 29.101 18.6207 29.1486 18.5349C29.1677 18.4873 29.1963 18.4492 29.2058 18.4015C29.4059 17.9441 29.606 17.4771 29.8538 17.0388C29.8729 17.0102 29.8824 16.9816 29.9015 16.953C30.1207 16.5527 30.378 16.1906 30.702 15.8857ZM53.7443 31.7717C52.4864 22.7852 44.8436 16.0667 36.2668 14.5038C34.4562 14.1703 32.7694 11.7783 30.9492 11.7783C30.8349 11.7783 30.73 11.7879 30.6157 11.8069C30.7491 11.3876 30.9683 10.9683 31.2161 10.549C31.8355 9.55792 32.6836 8.56683 33.2649 7.48997C33.2745 7.48044 33.284 7.46138 33.284 7.44232C33.8177 6.46075 34.1036 5.39342 33.751 4.19268C33.7414 4.15456 33.7414 4.10691 33.7319 4.06879C33.6557 3.61136 33.4937 3.23971 33.2649 2.93475C32.7885 2.28673 32.0356 1.98178 31.2542 2.00084C31.0159 2.01037 30.7682 2.04849 30.5204 2.12473C30.4727 2.12473 30.4346 2.13426 30.387 2.15332C30.3107 2.16285 30.2345 2.19143 30.1583 2.22002C30.1583 2.22002 30.1487 2.22002 30.1392 2.22955C29.7866 2.36297 29.4435 2.57262 29.1481 2.82993C28.9194 3.03005 28.7097 3.26829 28.5382 3.54466C28.481 3.60184 28.4238 3.65901 28.3762 3.71619C28.0141 4.09738 27.6805 4.51669 27.3946 4.96459C27.3851 4.97412 27.3756 4.99318 27.3756 5.00271C27.2898 5.11706 27.2136 5.22189 27.1469 5.34578C27.0325 5.52684 26.9277 5.70791 26.8324 5.8985C26.6037 6.31781 26.394 6.75618 26.2129 7.19454L25.7746 8.33811C25.5173 8.74789 25.3743 9.23391 25.2886 9.73898C25.1456 10.5395 25.1266 11.3972 24.9074 12.0738V12.0833C24.774 12.4645 24.5834 12.7885 24.2689 13.0267L24.2594 13.0363C24.0306 13.1983 23.7447 13.3222 23.3636 13.3793C23.8019 11.6068 23.9639 10.1392 23.9544 8.94801C23.9449 8.73836 23.9449 8.53824 23.9258 8.35717C23.9163 8.11893 23.8591 7.87115 23.8496 7.63291V7.61385V7.58526C23.516 5.56496 22.5345 4.71681 21.6387 4.8407C21.5815 4.85023 21.5243 4.85976 21.4671 4.87882C21.4195 4.88835 21.3718 4.90741 21.3242 4.92647C20.295 5.36484 19.5421 7.12784 20.3426 9.91052C20.3426 9.93911 20.3522 9.9677 20.3712 10.0058C20.6762 11.0922 21.2384 12.3311 22.1152 13.6938C22.1247 13.7129 22.1342 13.7415 22.1533 13.7605C22.1819 13.8177 22.2105 13.8654 22.2486 13.9225C21.9436 14.0655 21.6768 14.2084 21.3909 14.3514C21.2765 13.7796 20.9811 13.2269 20.5904 12.798V12.7885C20.0949 12.2358 19.4373 11.8641 18.8465 11.8641H18.8179C18.4653 11.8736 18.1317 12.0071 17.8649 12.312C17.6457 12.5503 17.4742 12.8838 17.3598 13.3317C17.579 14.9803 18.9227 18.4873 18.0078 19.0686C14.2627 21.7083 12.0041 26.3207 10.1268 33.9636C8.45906 49.0205 23.5351 61.5903 38.3824 57.3781C38.4587 57.3591 38.5349 57.6259 38.573 57.7307C38.5825 57.7402 38.5921 57.7498 38.5921 57.7593L38.5825 57.7688C38.7064 57.8927 38.9065 58.1595 39.1543 58.5121C39.1829 58.5503 39.2115 58.5884 39.2401 58.6265C39.7166 59.3031 40.3455 60.237 40.9269 60.9422C40.9269 60.9518 40.9364 60.9613 40.9459 60.9708C41.4986 61.6474 41.9846 62.1239 42.2324 61.9714H42.242C42.3944 61.8571 42.4421 61.5045 42.3468 60.7993C42.1848 60.4848 41.9942 60.1799 41.7941 59.8654C41.7845 59.8368 41.775 59.8177 41.7559 59.7987C41.5939 59.5509 41.4319 59.2936 41.2794 59.0458L41.2604 59.0268C40.9078 58.474 40.5742 57.9118 40.3551 57.3209C40.3074 57.2066 40.2693 57.0827 40.2312 56.9683C40.2312 56.9588 40.2312 56.9493 40.2217 56.9397C40.2026 56.854 40.1835 56.7777 40.1645 56.692C50.3327 52.9277 55.3453 42.3116 53.7443 31.7717Z" fill="#1D1D1B"/>
</g>
<path fill-rule="evenodd" clip-rule="evenodd" d="M31.8963 3.5344C32.1288 3.92511 32.1869 4.38349 32.1926 4.83425C32.2003 5.42033 32.0573 5.98544 31.8458 6.53912C31.6161 7.13949 31.2311 7.62837 30.8394 8.11915C30.3267 8.76145 29.753 9.35039 29.3394 10.0775C29.0202 10.6398 28.5942 11.142 28.2092 11.6671C27.8785 12.1188 27.5231 12.5524 27.2095 13.0165C26.9074 13.4634 26.6463 13.938 26.3538 14.424C26.1937 14.3078 26.1889 14.1581 26.2003 14.019C26.2613 13.2442 26.4386 12.4847 26.4395 11.6976C26.4405 11.2068 26.612 10.717 26.7064 10.2271C27.058 9.83164 27.0466 9.30846 27.2038 8.84341C27.342 8.43554 27.4745 8.02385 27.7575 7.67411C27.8881 7.51401 27.91 7.27005 28.0119 7.08041C28.2578 6.62298 28.5208 6.17413 28.7781 5.72242C28.8096 5.6662 28.8363 5.59377 28.8868 5.56137C29.3185 5.27643 29.5033 4.78088 29.8636 4.43496C30.0971 4.21196 30.2857 3.93369 30.5421 3.74596C30.9347 3.4572 31.3759 3.27805 31.8963 3.5344Z" fill="#F6C0C6"/>
<path fill-rule="evenodd" clip-rule="evenodd" d="M28.8233 19.2421C28.8233 19.1277 28.8014 19.0239 28.8272 19.0115C29.0244 18.9105 29.0644 18.7084 29.1474 18.5379C29.4685 17.8765 29.762 17.2008 30.1099 16.5547C30.2471 16.2984 30.4844 16.0868 30.7045 15.8857C31.241 15.394 31.5974 14.7708 32.0044 14.1485C32.2245 14.0627 32.4627 13.9522 32.7115 13.8807C32.8954 13.8283 33.0812 13.8254 33.2833 13.8978C33.9256 14.1294 33.9437 14.6145 33.8331 15.2434C33.815 15.3463 33.7531 15.4464 33.693 15.536C33.3071 16.1221 32.8659 16.6433 32.1921 16.9273C31.9586 17.0264 31.7575 17.2037 31.5469 17.3524C31.0371 17.7135 30.4625 17.9832 30.0327 18.4559C29.7087 18.8133 29.2712 18.9962 28.8233 19.2421Z" fill="#F6C0C6"/>
<path fill-rule="evenodd" clip-rule="evenodd" d="M21.5839 25.8464C21.2046 25.7158 20.9168 25.5719 20.6757 25.3699C20.3564 25.1021 20.0019 24.8982 19.6322 24.7209C19.2062 24.517 18.8679 24.1549 18.3904 24.0481C17.8387 23.504 17.1792 23.0551 16.8047 22.3528C16.6341 22.0336 16.6741 21.6714 16.8295 21.3484C16.9619 21.0739 17.3145 20.9395 17.6147 21.052C17.9988 21.1968 18.3819 21.3531 18.6449 21.7048C18.7726 21.8754 18.9193 22.0526 19.0975 22.1594C19.7465 22.5491 20.101 23.1647 20.4184 23.8109C20.5613 24.1034 20.7281 24.3598 20.9587 24.6047C21.2598 24.923 21.4371 25.3461 21.5839 25.8464Z" fill="#F6C0C6"/>
<path fill-rule="evenodd" clip-rule="evenodd" d="M25.1272 40.3145C24.8747 40.6309 24.6469 40.9206 24.4144 41.2055C24.3134 41.3294 24.1876 41.3761 24.0161 41.3771C23.5882 41.379 23.206 41.2084 22.8344 41.0511C22.1387 40.7586 21.4764 40.3888 20.7864 40.081C20.4834 39.9447 20.2661 39.7151 20.0183 39.5178C19.7734 39.3225 19.8306 39.0432 19.8964 38.7907C19.9535 38.5687 20.1708 38.5 20.3614 38.4924C20.9437 38.4686 21.5126 38.5105 22.0844 38.6935C22.9649 38.9756 23.6987 39.5378 24.5421 39.8866C24.7527 39.9743 24.9214 40.1601 25.1272 40.3145Z" fill="#F6C0C6"/>
<path fill-rule="evenodd" clip-rule="evenodd" d="M30.9045 33.4271C31.3314 32.5294 31.8022 31.7517 32.5322 31.1428C32.9295 30.8121 33.2698 30.4128 33.6538 30.065C34.3285 29.4551 34.5172 29.4198 35.332 29.7076C35.4254 29.741 35.4959 29.8343 35.6055 29.923C35.3539 30.4652 35.1271 30.9751 34.6973 31.4077C34.0512 32.0557 33.2564 32.4398 32.4693 32.8457C32.0662 33.0525 31.6297 33.1955 31.2066 33.3623C31.1313 33.3918 31.0465 33.3975 30.9045 33.4271Z" fill="#F6C0C6"/>
<path fill-rule="evenodd" clip-rule="evenodd" d="M20.8728 18.4459C20.6221 18.18 20.3839 17.9017 20.119 17.6511C19.7931 17.3433 19.5996 16.9659 19.449 16.5533C19.3528 16.2903 19.2642 16.0091 19.0983 15.7909C18.7457 15.3249 18.6962 14.7989 18.6943 14.2528C18.6933 13.9926 18.7019 13.7296 18.7381 13.4733C18.7496 13.3913 18.8553 13.2979 18.9402 13.2617C18.9964 13.2388 19.0945 13.3017 19.1679 13.338C19.2041 13.3551 19.2384 13.397 19.2527 13.4352C19.4405 13.9374 19.7893 14.3719 19.8712 14.9218C19.9198 15.243 19.9646 15.5689 20.1914 15.8338C20.2448 15.8957 20.2581 15.991 20.2915 16.0711C20.3239 16.1511 20.3668 16.2293 20.3896 16.3122C20.5821 17.0183 20.7708 17.7254 20.9614 18.4316C20.9319 18.4364 20.9023 18.4411 20.8728 18.4459Z" fill="#F6C0C6"/>
<path fill-rule="evenodd" clip-rule="evenodd" d="M22.1873 10.8221C21.9348 10.1513 21.6346 9.6214 21.5498 9.05819C21.4402 8.34156 21.2296 7.61349 21.4154 6.86826C21.4707 6.64717 21.5317 6.44991 21.7613 6.35938C21.8052 6.37462 21.869 6.37748 21.8814 6.40416C22.1225 6.9121 22.3388 7.4267 22.3293 8.00611C22.316 8.80947 22.3798 9.61568 22.2578 10.4152C22.2445 10.501 22.2283 10.5858 22.1873 10.8221Z" fill="#F6C0C6"/>
<path fill-rule="evenodd" clip-rule="evenodd" d="M40.8266 17.4747C40.8132 17.3928 40.7932 17.3108 40.7865 17.2289C40.7761 17.0935 40.8799 17.0211 40.9781 17.0469C41.0467 17.065 41.1344 17.1936 41.1296 17.266C41.1163 17.4452 40.9819 17.4986 40.8123 17.4604L40.8266 17.4747Z" fill="#FEFEFE"/>
<path fill-rule="evenodd" clip-rule="evenodd" d="M36.1719 22.3943C36.0766 22.5182 35.9718 22.6326 35.8574 22.7278C35.2189 23.2806 34.5042 23.7285 33.7704 24.1382C33.5512 24.2526 33.3416 24.3574 33.1129 24.4623C33.0843 24.4718 33.0652 24.4813 33.0366 24.4908C32.8365 24.5861 32.6268 24.6624 32.4172 24.7386C32.3981 24.7482 32.3695 24.7577 32.3505 24.7672C32.1218 24.853 31.8931 24.9292 31.6548 24.9959C31.4166 25.0626 31.1688 25.1293 30.921 25.1865C30.7971 25.2151 30.6828 25.2723 30.5589 25.3199C30.435 25.3581 30.2921 25.3962 30.1301 25.3962C30.0824 25.3962 30.0252 25.3962 29.9776 25.3866V25.3771H29.9871C30.0062 25.3485 30.0252 25.3199 30.0348 25.2913C30.0633 25.2532 30.0824 25.2151 30.1015 25.1865C30.1301 25.1579 30.1491 25.1293 30.1682 25.1198C30.3778 24.9959 30.5208 24.8339 30.6447 24.6433C30.6828 24.5766 30.7114 24.5004 30.74 24.4337L30.7685 24.3765C30.7781 24.3765 30.7781 24.367 30.7781 24.3574C30.7876 24.3384 30.7971 24.3098 30.8162 24.2907C30.8353 24.2621 30.8543 24.2431 30.8829 24.224C30.9591 24.1764 31.0258 24.1192 31.0926 24.0525C31.3022 23.8714 31.4737 23.6713 31.6548 23.4712C31.7692 23.3378 31.8835 23.2043 32.0169 23.0804C32.0836 23.0137 32.1504 22.9566 32.2171 22.8994C32.2838 22.8422 32.36 22.785 32.4362 22.7374C32.522 22.6897 32.5887 22.623 32.665 22.5563C32.7317 22.4896 32.7984 22.4134 32.8746 22.3467C32.9985 22.2418 33.1224 22.137 33.2463 22.0512C33.2558 22.0417 33.2749 22.0322 33.2844 22.0226C33.3797 21.9464 33.4845 21.8797 33.5893 21.8321C33.8943 21.6319 34.2278 21.489 34.5709 21.3746C34.7139 21.327 34.8568 21.2889 34.9997 21.2603C35.1618 21.2221 35.3333 21.184 35.5048 21.165C35.6382 21.1459 35.7526 21.1554 35.8574 21.1936C35.886 21.2031 35.9146 21.2126 35.9432 21.2317C35.9718 21.2412 36.0004 21.2603 36.0194 21.2793C36.0575 21.2984 36.0957 21.3365 36.1243 21.3746C36.1719 21.4127 36.21 21.4795 36.2481 21.5462C36.4197 21.8702 36.372 22.137 36.1719 22.3943ZM37.9439 21.508C37.8963 20.8028 37.4007 20.3454 36.991 19.8403C36.9052 19.745 36.7241 19.6783 36.5812 19.6688C35.9713 19.583 35.3709 19.4687 34.7705 19.726C34.6752 19.7641 34.5704 19.7736 34.4656 19.8022C33.6556 19.9928 32.8646 20.2025 32.2356 20.8124C32.1594 20.8886 32.0546 20.9267 31.9688 20.9934C31.4161 21.4413 30.9491 21.9941 30.3583 22.4134L30.3201 22.4515C29.8722 23.0042 29.5292 23.6427 28.9669 24.0906C28.9097 24.1382 28.9002 24.2145 28.8716 24.2621C28.5 24.9006 28.1474 25.5486 27.709 26.1395C27.6709 26.1776 27.6613 26.2253 27.6232 26.3206C27.7281 26.5874 27.8234 26.8542 27.9282 27.121C27.9377 27.1306 27.9377 27.1496 27.9472 27.1687C28.0807 27.4165 28.2713 27.588 28.519 27.7024C28.7287 27.8072 28.9288 27.7786 29.1385 27.6738C29.2052 27.6452 29.2909 27.6166 29.3767 27.6071C29.8627 27.5594 30.3106 27.3784 30.7585 27.1973C30.8919 27.1401 31.0444 27.0734 31.1778 27.0639C31.5876 27.0353 31.9497 26.8828 32.3119 26.7494C32.8932 26.5016 33.4745 26.2634 34.0558 26.0347C34.7896 25.7488 35.4662 25.3295 36.0856 24.8625C36.6574 24.4337 37.1434 23.9 37.639 23.3759C37.801 23.1948 37.9153 22.9184 37.9344 22.6802C37.9916 22.2895 37.963 21.8988 37.9439 21.508Z" fill="#1D1D1B"/>
<path fill-rule="evenodd" clip-rule="evenodd" d="M22.0954 33.3916C21.4855 33.1724 20.8756 32.9437 20.2657 32.715C19.856 32.553 19.5319 32.2576 19.2079 31.9621C18.9411 31.7239 18.6838 31.4571 18.417 31.1998C18.3884 31.1616 18.3503 31.1235 18.3121 31.0759C18.2836 31.0378 18.255 30.9901 18.2359 30.9425C18.1787 30.8376 18.1311 30.7233 18.0834 30.6184C17.95 30.2849 17.8357 29.9514 17.788 29.5988C17.7213 29.1509 18.1597 28.8173 18.5885 28.9793C18.7124 29.0365 18.8363 29.1032 18.9602 29.1795C19.0745 29.2557 19.1889 29.3415 19.3128 29.4082C19.3985 29.4654 19.4938 29.5225 19.5796 29.5892C19.6654 29.6464 19.7607 29.7036 19.8464 29.7703C19.9798 29.8751 20.1133 29.98 20.2181 30.1229C20.3515 30.2944 20.4849 30.466 20.6374 30.6184C20.7803 30.7805 20.9328 30.9329 21.0853 31.0854C21.4855 31.4857 21.8381 31.924 22.2193 32.3338C22.4766 32.6292 22.7435 32.9151 23.0008 33.2105C23.0865 33.2963 23.1342 33.4202 23.22 33.5345C22.7911 33.6298 22.4385 33.5155 22.0954 33.3916ZM26.2317 34.2684C26.0792 33.992 25.9077 33.7061 25.6694 33.4774C24.9642 32.7722 24.3639 31.9812 23.5729 31.3618C23.4776 31.2856 23.3918 31.1426 23.3823 31.0282C23.3251 30.5899 23.0297 30.3612 22.7057 30.1229C22.5723 30.0276 22.4579 29.8847 22.3245 29.7703C22.2387 29.6846 22.1434 29.5797 22.0386 29.5226C21.8766 29.4654 21.7908 29.3605 21.7051 29.2271C21.4287 28.7983 21.0475 28.4838 20.6282 28.1979C20.4948 28.1026 20.3518 27.9883 20.2375 27.8739C19.6181 27.2545 18.8271 27.1687 18.0266 27.1496C17.836 27.1401 17.6263 27.2259 17.4929 27.3402C17.1117 27.6452 16.7687 27.9692 16.4542 28.3313C16.2064 28.6077 16.0921 28.9508 16.1111 29.3605C16.1588 30.1515 16.4447 30.8758 16.7973 31.5714C17.0641 32.1051 17.2928 32.715 17.9504 32.9437C17.9599 32.9533 17.9694 32.9818 17.9885 33.0009C18.5507 33.5441 19.1606 34.0111 19.9421 34.2302C20.2089 34.3065 20.4757 34.4113 20.7426 34.5257C21.8385 35.0117 23.0011 35.2785 24.1828 35.431C24.5163 35.4691 24.8689 35.5168 25.3073 35.5644C25.4788 35.5263 25.7552 35.5168 25.9744 35.3833C26.2889 35.2023 26.4128 34.6019 26.2317 34.2684Z" fill="#1D1D1B"/>
<path fill-rule="evenodd" clip-rule="evenodd" d="M38.773 37.4232C38.3632 37.6995 37.9534 37.9854 37.5341 38.2618C37.3054 38.4143 37.0576 38.5477 36.8098 38.6811C36.4668 38.8621 36.1237 39.0337 35.7806 39.1957C35.752 39.2147 35.6949 39.1766 35.6091 39.148H35.5996C35.7235 38.9479 35.8283 38.7383 35.9426 38.5381C36.057 38.338 36.1904 38.1474 36.3715 37.9854C36.7241 37.6614 37.0386 37.2993 37.3816 36.9753C38.0773 36.3368 38.8683 35.8889 39.8594 35.6983C39.7259 36.4607 39.3733 37.0134 38.773 37.4232ZM40.9169 34.2021C40.8883 34.1544 40.8216 34.0972 40.7549 34.0877C40.4499 34.0019 40.1641 33.8685 39.8115 33.8876C39.1634 33.9352 38.544 34.1639 37.9246 34.3545C37.7149 34.4308 37.5434 34.5261 37.3909 34.6976C37.1908 34.9263 36.9907 35.1741 36.7334 35.3266C36.1711 35.6601 35.7708 36.1842 35.323 36.6417C34.8846 37.0705 34.5129 37.5375 34.1508 38.0235C33.8458 38.4237 33.5695 38.843 33.3598 39.2909C33.1502 39.7388 32.7976 40.1677 32.8929 40.7395C32.5879 41.1683 32.8929 41.4637 33.1406 41.7591C33.2931 41.9402 33.4837 42.0927 33.6648 42.2452C33.8363 42.4072 34.0269 42.4548 34.2556 42.4072C34.6178 42.3405 34.8941 42.1594 35.1514 41.9116C35.3897 41.6829 35.6374 41.4637 35.9043 41.2922C36.3808 40.9872 36.9144 40.7776 37.3718 40.4726C37.6673 40.263 38.0008 40.1677 38.2772 39.9771C38.7537 39.6531 39.2301 39.3195 39.7066 38.986C40.2784 38.5953 40.7549 38.0807 41.1266 37.4898C41.422 37.0324 41.6983 36.5464 41.6316 35.9746C41.6316 35.8984 41.6221 35.8316 41.6316 35.7745C41.6602 35.136 41.2504 34.6881 40.9169 34.2021Z" fill="#1D1D1B"/>
<path fill-rule="evenodd" clip-rule="evenodd" d="M40.8687 43.4078C40.7257 43.6555 40.5923 43.8843 40.4398 44.113C40.4112 44.1606 40.3826 44.2083 40.3541 44.2464C40.3159 44.3226 40.2683 44.3893 40.2206 44.4656C40.192 44.5132 40.173 44.5609 40.1539 44.6085C40.1349 44.6562 40.1063 44.7038 40.0682 44.7419C39.6584 45.1326 39.2772 45.552 38.8293 45.9046C38.6768 46.0094 38.5243 46.1142 38.3623 46.2095C38.2289 46.2857 38.1146 46.381 38.0002 46.4859C37.8763 46.5907 37.7524 46.7051 37.6 46.8289C37.5618 46.6669 37.5618 46.5335 37.5809 46.4096C37.5809 46.3525 37.6 46.3048 37.619 46.2667C37.6476 46.1714 37.6857 46.0856 37.7238 46.0094C37.7524 45.9617 37.7715 45.9046 37.8001 45.8569C37.8573 45.733 37.9144 45.5996 37.9716 45.4757C38.1622 45.0945 38.3814 44.7229 38.5911 44.3607C38.8579 43.9128 39.1724 43.5031 39.5631 43.1409V43.1314C39.6298 43.0647 39.706 43.0075 39.7823 42.9599C39.868 42.9027 39.9538 42.855 40.0396 42.8169C40.1063 42.7788 40.1825 42.7502 40.2588 42.7312C40.3541 42.7026 40.4398 42.6835 40.5351 42.6644C40.659 42.6454 40.8305 42.6359 40.9163 42.7026C41.0211 42.7883 41.0593 42.9503 41.0974 43.0266C41.0211 43.16 40.9449 43.2839 40.8687 43.4078ZM42.2801 42.1212C41.8131 41.6066 41.289 41.1968 40.5266 41.397C40.4409 41.416 40.3456 41.4065 40.2598 41.4065C39.8596 41.397 39.5546 41.5685 39.2497 41.7877C38.3634 42.4071 37.7535 43.2648 37.2961 44.1987C36.7433 45.3518 36.2954 46.5525 36.4574 47.8867C36.4574 47.9534 36.4289 48.0106 36.4098 48.1631C36.4098 48.1631 36.4003 48.2107 36.4003 48.2679C36.3907 48.6491 36.5051 48.8397 36.8767 48.9254C37.0197 48.9731 37.1817 48.9731 37.3246 48.9636C37.7249 48.9254 38.0203 48.7158 38.2586 48.4204C38.6397 47.9248 39.0876 47.5246 39.5832 47.1815C39.9263 46.9433 40.2407 46.686 40.5457 46.4001C40.8411 46.1523 41.0698 45.8283 41.3748 45.59C41.6607 45.3709 41.8322 45.085 41.9942 44.761C42.1372 44.4465 42.2992 44.1415 42.4516 43.827C42.5374 43.646 42.6899 43.4459 42.6804 43.2648C42.6518 42.855 42.566 42.4262 42.2801 42.1212Z" fill="#1D1D1B"/>
<path fill-rule="evenodd" clip-rule="evenodd" d="M29.8727 49.6878C29.6249 49.6021 29.3771 49.5163 29.1389 49.4115C28.9864 49.3448 28.8339 49.2685 28.6815 49.1923C28.4718 49.0875 28.2622 48.9731 28.062 48.8492C27.8714 48.7444 27.6808 48.6205 27.4902 48.4966C27.4617 48.4776 27.4426 48.4585 27.4331 48.4395C27.3759 48.3823 27.3187 48.3251 27.2806 48.2584C27.2044 48.1345 27.1186 48.0106 27.0614 47.8772C27.0328 47.8295 27.0138 47.7914 26.9947 47.7438C26.9661 47.6866 26.9375 47.639 26.9185 47.5818C26.8613 47.4293 26.7946 47.2768 26.7279 47.1243C26.6993 47.0481 26.6707 46.9814 26.6421 46.9052H26.6516C26.7755 46.8003 26.8994 46.7622 27.0138 46.7717C27.0709 46.7717 27.1281 46.7813 27.1758 46.8003C27.2139 46.8099 27.2425 46.8194 27.2711 46.8385C27.2997 46.848 27.3187 46.867 27.3378 46.8766C27.3854 46.9052 27.4426 46.9338 27.4902 46.9528C27.9286 47.1815 28.4242 47.334 28.7768 47.7247C28.9197 47.8867 29.1008 48.0106 29.2532 48.1631C29.5868 48.4966 29.8727 48.8683 30.2729 49.1447C30.5493 49.3352 30.7113 49.6688 31.0067 50.0404C30.5302 49.888 30.1967 49.8022 29.8727 49.6878ZM33.0359 50.1644C32.8167 49.8309 32.6356 49.4974 32.3211 49.2496C32.1305 49.1066 31.959 48.9256 31.797 48.7636C31.3396 48.2394 30.9012 47.7058 30.4342 47.1912C30.2436 46.991 29.9578 46.8767 29.7862 46.6575C29.5003 46.2954 29.1191 46.1143 28.7189 45.9523C28.433 45.8475 28.1471 45.7426 27.8898 45.5806C27.1179 45.1041 25.8504 45.39 25.3072 46.2191C25.1357 46.4764 25.069 46.7337 25.1357 47.0196C25.2596 47.458 25.4407 47.8773 25.717 48.2394C25.7742 48.3252 25.8886 48.3538 25.9553 48.43C26.0124 48.4777 26.0887 48.5539 26.0887 48.6206C26.1649 49.0971 26.2316 49.2496 26.6319 49.4592C26.7176 49.5069 26.7558 49.5259 26.8034 49.6117C26.8606 49.7165 26.9464 49.85 27.0607 49.8785C27.3371 49.9643 27.5467 50.1454 27.7945 50.2693C28.2615 50.5075 28.7284 50.7267 29.2526 50.8029C29.405 50.822 29.567 50.7934 29.7005 50.8506C30.2627 51.1269 30.8821 51.0507 31.5778 51.1555C31.9114 51.0983 32.3402 51.0507 32.7595 50.9649C32.8643 50.9459 32.9787 50.822 33.0359 50.7172C33.1407 50.5456 33.1502 50.3455 33.0359 50.1644Z" fill="#1D1D1B"/>
<path fill-rule="evenodd" clip-rule="evenodd" d="M29.9796 25.3804C30.0691 25.2565 30.1044 25.1612 30.1721 25.1212C30.4465 24.9592 30.618 24.719 30.7448 24.436C30.7801 24.3569 30.8182 24.2626 30.8839 24.2178C31.4795 23.808 31.8159 23.1276 32.4401 22.7454C32.6031 22.6454 32.7251 22.4805 32.8709 22.3509C33.6247 21.6819 34.5081 21.3007 35.5039 21.1673C35.8432 21.1216 36.0795 21.2378 36.2501 21.5504C36.4226 21.8658 36.3721 22.1346 36.171 22.3966C36.0795 22.5167 35.9738 22.6292 35.8604 22.7283C35.2219 23.2848 34.5081 23.7279 33.7667 24.1339C32.869 24.6256 31.9141 24.9525 30.9239 25.1927C30.6352 25.2632 30.3741 25.449 29.9796 25.3804Z" fill="#F6C0C6"/>
<path fill-rule="evenodd" clip-rule="evenodd" d="M23.2171 33.5373C22.795 33.6307 22.4414 33.5173 22.0945 33.3925C21.4827 33.1742 20.8738 32.9465 20.2667 32.713C19.8531 32.5539 19.5291 32.2603 19.2099 31.9659C18.9402 31.7171 18.68 31.4579 18.4208 31.1978C18.3465 31.1225 18.2769 31.0358 18.2312 30.9414C18.0225 30.5154 17.8538 30.0704 17.788 29.6015C17.7242 29.1489 18.1616 28.8125 18.5923 28.984C18.8477 29.085 19.0726 29.2661 19.308 29.4148C19.49 29.5291 19.674 29.6406 19.8446 29.7693C19.9808 29.8722 20.119 29.9846 20.2181 30.12C20.4773 30.4716 20.7794 30.7785 21.0863 31.0863C21.4827 31.4837 21.842 31.9192 22.2175 32.3385C22.4786 32.6291 22.7435 32.916 22.9998 33.2105C23.0799 33.3029 23.1371 33.4153 23.2171 33.5373Z" fill="#F6C0C6"/>
<path fill-rule="evenodd" clip-rule="evenodd" d="M39.86 35.6968C39.7303 36.4592 39.373 37.0128 38.7745 37.4188C38.3619 37.699 37.9559 37.9887 37.5385 38.2612C37.3041 38.4147 37.0573 38.549 36.8095 38.6805C36.4683 38.8606 36.1233 39.0303 35.7765 39.199C35.7498 39.2123 35.6993 39.1789 35.6078 39.1513C35.8441 38.7396 36.0147 38.3108 36.374 37.983C36.7256 37.6618 37.0363 37.2968 37.3851 36.9738C38.075 36.3362 38.8679 35.8874 39.86 35.6968Z" fill="#F6C0C6"/>
<path fill-rule="evenodd" clip-rule="evenodd" d="M37.6016 46.8266C37.4854 46.393 37.6817 46.1204 37.7941 45.8584C38.0171 45.3409 38.3087 44.8501 38.5965 44.3622C38.8615 43.9124 39.1778 43.5026 39.5609 43.1367C39.8478 42.8632 40.1737 42.7298 40.5406 42.665C40.6626 42.644 40.8284 42.6402 40.9142 42.7059C41.019 42.786 41.059 42.9489 41.1028 43.03C40.7893 43.5446 40.5091 44.0039 40.2309 44.4632C40.1747 44.5557 40.1432 44.67 40.0679 44.7424C39.5266 45.2647 39.0301 45.8355 38.3611 46.2167C38.1048 46.3625 37.8932 46.5884 37.6016 46.8266Z" fill="#F6C0C6"/>
<path fill-rule="evenodd" clip-rule="evenodd" d="M31.0061 50.0363C30.5296 49.8915 30.1979 49.7981 29.8711 49.6904C29.0201 49.4112 28.2358 48.9976 27.4991 48.4915C27.4133 48.4325 27.34 48.3438 27.2818 48.2552C27.1751 48.0922 27.0703 47.9245 26.9902 47.7473C26.8663 47.4757 26.7644 47.1936 26.6472 46.9029C26.8921 46.7038 27.1427 46.7562 27.3342 46.8705C27.8136 47.1564 28.3854 47.286 28.7771 47.7234C28.921 47.8835 29.0992 48.0122 29.2535 48.1637C29.5918 48.4934 29.8777 48.868 30.277 49.1472C30.5477 49.3368 30.7164 49.6713 31.0061 50.0363Z" fill="#F6C0C6"/>
</svg>
