<svg width="64" height="64" viewBox="0 0 64 64" fill="none" xmlns="http://www.w3.org/2000/svg">
<path d="M32 64C49.6731 64 64 49.6731 64 32C64 14.3269 49.6731 0 32 0C14.3269 0 0 14.3269 0 32C0 49.6731 14.3269 64 32 64Z" fill="#FAC3C8"/>
<g clip-path="url(#clip0_1348_10285)">
<path d="M45.6068 44.4203C45.9596 36.7732 41.0005 30.7478 41.0005 30.7478C41.0005 30.7478 46.5115 28.6117 46.5115 27.3691C47.9343 31.1045 50.7799 38.928 50.0704 42.4832C49.1356 47.1645 41.71 47.8178 39.9343 47.4649C39.9343 48.3246 39.9343 49.9576 39.8367 50.8773C39.8308 50.9459 39.8062 51.0115 39.7656 51.067C39.725 51.1225 39.6699 51.1658 39.6064 51.1921C39.5429 51.2185 39.4733 51.2268 39.4054 51.2164C39.3374 51.2059 39.2736 51.1769 39.221 51.1326L33.2595 46.425C33.2282 46.4 33.2029 46.3683 33.1856 46.3323C33.1682 46.2962 33.1592 46.2567 33.1592 46.2166C33.1592 46.1766 33.1682 46.1371 33.1856 46.101C33.2029 46.0649 33.2282 46.0333 33.2595 46.0083L38.9582 41.4508C38.9808 41.4327 39.008 41.4215 39.0367 41.4185C39.0655 41.4156 39.0944 41.4209 39.1202 41.434C39.146 41.4471 39.1674 41.4673 39.182 41.4922C39.1965 41.5172 39.2035 41.5458 39.2022 41.5747L39.4012 44.439C39.4012 44.439 44.5556 44.2626 47.0483 41.9501" fill="white"/>
<path d="M38.718 51.7971L38.6804 51.7671C38.6804 51.7671 38.6767 51.7971 38.718 51.7971Z" fill="#1D1D1D"/>
<path d="M49.0906 45.6293C49.1129 45.6125 49.1309 45.5906 49.1431 45.5654C49.128 45.5886 49.1104 45.61 49.0906 45.6293Z" fill="#1D1D1D"/>
<path d="M41.4923 29.7158C41.6462 29.667 41.4922 29.7571 41.4134 29.7871C41.5764 29.7516 41.7333 29.6921 41.8789 29.6107C41.8639 29.5769 41.5861 29.7045 41.4923 29.7158Z" fill="#1D1D1D"/>
<path d="M44.9873 42.8138V42.7725C44.9846 42.7861 44.9846 42.8001 44.9873 42.8138Z" fill="#1D1D1D"/>
<path d="M47.6603 44.6083L47.6978 44.5708C47.6826 44.5803 47.6697 44.5931 47.6603 44.6083Z" fill="#1D1D1D"/>
<path d="M44.7808 40.6738H44.7245C44.7333 40.6781 44.7429 40.6804 44.7527 40.6804C44.7624 40.6804 44.7721 40.6781 44.7808 40.6738Z" fill="#1D1D1D"/>
<path d="M35.1854 48.9782C35.1892 48.9634 35.1892 48.9479 35.1854 48.9331V48.9782Z" fill="#1D1D1D"/>
<path d="M44.8672 43.3242C44.8447 43.3467 44.8297 43.373 44.8071 43.3918C44.8315 43.3736 44.852 43.3506 44.8672 43.3242Z" fill="#1D1D1D"/>
<path d="M34.2619 44.4355C34.2619 44.4355 34.2619 44.4129 34.2619 44.4092C34.0819 44.5222 33.9101 44.6476 33.7476 44.7846L33.7738 44.8484L34.2619 44.4355Z" fill="#1D1D1D"/>
<path d="M38.2975 43.2531C38.3256 43.1815 38.3371 43.1045 38.3313 43.0278C38.3538 43.0091 38.3688 42.9828 38.3951 42.9753C38.4001 42.9745 38.4051 42.9749 38.4099 42.9766C38.4146 42.9783 38.4189 42.9811 38.4223 42.9848C38.4256 42.9886 38.428 42.9931 38.4291 42.998C38.4303 43.0029 38.4302 43.008 38.4289 43.0128C38.4328 43.0528 38.4328 43.093 38.4289 43.1329C38.4289 43.2118 38.4289 43.2869 38.4289 43.3507C38.4267 43.3618 38.4267 43.3733 38.4289 43.3845V43.5984L38.4552 44.0302C38.4552 44.323 38.5002 44.6008 38.534 44.8861C38.534 45.0288 38.5641 45.1714 38.5828 45.3178C38.7217 45.3178 38.8831 45.3178 39.0371 45.2953C39.3524 45.2778 39.6828 45.2478 40.0282 45.2052L39.8667 45.2465C39.9821 45.2439 40.0968 45.2275 40.2083 45.1977L40.7602 45.0813C41.1356 44.9987 41.8226 44.9499 43.1628 44.8185C43.2486 44.7779 43.342 44.7562 43.4369 44.7547C43.2792 44.7547 43.1215 44.7848 42.9676 44.7885C43.2266 44.6909 43.4444 44.5633 43.7935 44.4544C43.8723 44.4544 43.9061 44.4544 43.9212 44.4844C44.2065 44.3868 44.4918 44.2855 44.7771 44.1653H45.0699C45.3139 44.0039 45.1225 43.8988 45.8508 43.6623C45.5392 43.6848 46.1473 43.4145 46.031 43.4033C46.0723 43.4033 46.1623 43.377 46.2337 43.3619C46.4746 43.2091 46.7065 43.0424 46.9282 42.8627C47.1023 42.7128 47.2619 42.5469 47.405 42.3671L47.1572 42.5173C46.9697 42.6373 46.7726 42.7416 46.5678 42.8289C46.184 43.0105 45.7792 43.1441 45.3627 43.2268C45.9108 42.9865 45.4979 43.148 45.3627 43.1592V43.2043C45.186 43.253 45.005 43.2844 44.8222 43.2981V43.2794C44.8222 43.2794 44.8222 43.2981 44.8222 43.3131C44.8222 43.3281 44.8221 43.3507 44.732 43.3807C44.5753 43.4485 44.4149 43.5074 44.2515 43.5572L44.2252 43.4933C43.9197 43.6486 43.5841 43.7357 43.2416 43.7486C42.7949 43.8087 42.3294 43.8199 42.1642 43.8575C41.7888 43.8575 41.4134 44.0264 40.9667 44.0414C40.6213 44.079 40.5349 44.064 40.4861 44.0414C40.4348 44.0016 40.374 43.9757 40.3097 43.9664C40.0282 43.9664 40.3623 44.0415 40.2459 44.0602C40.1295 44.079 40.0131 44.0189 39.9193 43.9926C40.1182 43.9701 40.0244 43.9326 40.0094 43.91C39.9456 43.9139 39.8817 43.9139 39.8179 43.91C39.8179 43.91 39.7729 43.91 39.7804 43.91V43.8462V43.7299C39.7804 43.5872 39.7804 43.4896 39.7053 43.4671C39.7219 43.3678 39.7307 43.2674 39.7316 43.1667C39.7316 43.0353 39.7316 42.934 39.7316 42.8476C39.7431 42.6852 39.7431 42.5221 39.7316 42.3596C39.7302 42.5058 39.7152 42.6517 39.6865 42.7951C39.7203 42.4197 39.6603 42.6299 39.6565 42.7951C39.6289 42.571 39.6176 42.3451 39.6227 42.1193C39.6298 41.8328 39.5826 41.5475 39.4838 41.2784C39.4519 41.1806 39.4131 41.0853 39.3674 40.9931C39.3329 40.9517 39.2899 40.9182 39.2414 40.8949C39.1928 40.8716 39.1398 40.859 39.0859 40.858C38.9871 40.8554 38.8914 40.8918 38.8193 40.9593V40.9255C38.7029 41.0907 38.7968 41.1583 38.5415 41.3573C38.4885 41.363 38.4359 41.3717 38.3839 41.3835C38.3088 41.4474 38.2299 41.5149 38.1511 41.5938L38.1136 41.6351C37.9296 41.7327 38.016 41.6351 38.016 41.6088C37.7662 41.8395 37.5029 42.0551 37.2276 42.2545L36.5706 42.735L37.1863 42.6299C36.8109 42.8476 36.0976 43.2306 36.0901 43.3582L35.8235 43.4445C35.0164 43.82 35.3993 43.8913 35.0727 44.064L34.6598 44.2517L35.0052 43.9814C34.6297 44.2104 34.4683 44.293 34.1492 44.4544C34.1717 44.4544 34.1868 44.4544 34.1943 44.4544L34.1455 44.4957C34.1455 44.5708 33.984 44.7435 33.7438 44.9349L33.6124 45.0325L33.4397 45.1789L33.0643 45.4755C32.9279 45.5806 32.8021 45.6987 32.6889 45.8284C32.6316 45.8921 32.5788 45.9599 32.5312 46.0311C32.4795 46.1254 32.4537 46.2315 32.4561 46.339C32.5014 46.4154 32.5645 46.4798 32.6401 46.5267C32.7377 46.7121 32.8645 46.8806 33.0155 47.0259L32.9254 47.071C32.7662 46.94 32.6292 46.7841 32.5199 46.6093C32.4558 46.5159 32.4182 46.4069 32.4111 46.2939C32.4005 46.171 32.428 46.0477 32.4899 45.941C32.6176 45.7071 32.7943 45.5035 33.0079 45.3441L33.6086 44.8561V44.8148L32.9404 45.3742C32.7616 45.5206 32.6114 45.6988 32.4974 45.8997C32.4259 45.9843 32.3677 46.0792 32.3247 46.1813C32.2872 46.2751 32.2421 46.3127 32.2271 46.1362C32.2411 46.2577 32.2794 46.3752 32.3398 46.4816C32.4405 46.7363 32.6061 46.9602 32.8202 47.1311L33.4622 47.6379L33.7963 47.9194C34.0141 48.1071 34.2581 48.3286 34.6635 48.704L34.5997 48.5952C34.8287 48.7416 35.0577 48.888 35.0727 48.9931C35.6492 49.4493 36.1878 49.9515 36.6832 50.4947H36.8409C36.9723 50.6074 37.0774 50.8964 37.2163 50.8289L37.3777 50.9265L37.4566 50.9753L37.4979 51.0016L37.5654 51.0466C37.8798 51.2674 38.1807 51.5068 38.4664 51.7636L38.534 51.8275C38.6275 51.9053 38.7362 51.9628 38.8531 51.9964C38.8982 51.9964 38.8982 51.9964 38.9019 51.9964C38.9057 51.9964 38.9019 51.9739 38.9657 51.9964L39.2773 52.079C39.3188 52.0984 39.3652 52.1044 39.4102 52.0964C39.4553 52.0883 39.4967 52.0665 39.5288 52.0339C39.64 51.9553 39.7553 51.8826 39.8742 51.8162C39.9937 51.7883 40.1096 51.7467 40.2196 51.6923C40.3142 51.5947 40.3893 51.4801 40.4411 51.3544C40.4854 51.2117 40.5132 51.0643 40.5237 50.9152V50.3371C40.5237 50.1156 40.5237 49.8603 40.5237 49.5412C40.5837 49.1658 40.7152 48.9743 40.8278 49.2296C40.7884 49.1417 40.7546 49.0514 40.7264 48.9593C40.7242 48.9231 40.7242 48.8867 40.7264 48.8504C40.7264 48.8129 40.7264 48.6778 40.6964 48.689C40.7369 48.6913 40.7772 48.6976 40.8165 48.7078C40.8841 48.7078 40.7639 48.689 40.7677 48.659C40.6553 48.5955 40.5579 48.5084 40.4824 48.4037H40.4486C40.4351 48.3643 40.4238 48.3242 40.4148 48.2836V48.2235V48.1935H40.4373C40.5259 48.1971 40.6134 48.2148 40.6964 48.246V48.2986L40.8353 48.2761V48.3436H41.1131L41.4134 48.3211H41.3308C41.6174 48.2871 41.9057 48.2683 42.1943 48.2648V48.3024C42.9451 48.3474 43.5382 48.0959 44.3754 47.8819L44.2815 47.987C44.5931 47.987 44.3341 47.8519 44.687 47.7993L44.7283 47.8894C44.9986 47.6867 45.1262 47.8031 45.3477 47.788L45.2126 47.6942C45.3477 47.6679 45.4791 47.6304 45.6105 47.5966C46.0497 47.4877 45.9258 47.6529 45.8846 47.7392L46.1436 47.5365L46.2412 47.6191C46.4064 47.4126 46.4627 47.5515 46.8043 47.3263C46.8531 47.3488 46.7705 47.4164 46.9057 47.3713C47.0859 47.2287 47.2811 47.0823 47.4312 46.9283C47.3261 47.0109 47.2173 47.101 47.1046 47.1761L47.0783 47.0109C47.3862 46.7069 47.5814 46.7594 47.8292 46.5604L47.679 46.7106C47.897 46.5553 48.1342 46.4291 48.3848 46.3352C48.2947 46.3615 48.1595 46.399 48.3134 46.2676C48.4674 46.1362 48.411 46.2676 48.5349 46.1926C48.5124 46.14 48.565 46.0461 48.6551 45.9485C48.7556 45.8268 48.8747 45.7216 49.0079 45.6369C49.0116 45.6445 49.0135 45.6529 49.0135 45.6613C49.0135 45.6698 49.0116 45.6781 49.0079 45.6857C49.0495 45.6039 49.11 45.5331 49.1844 45.4793L49.2107 45.6257L49.3271 45.3404C49.4772 45.2202 49.5823 44.965 49.6311 45.0213L49.5823 45.1189C49.9012 44.745 50.1676 44.3295 50.3744 43.8838L50.4721 43.9063C50.4195 43.7261 50.8024 43.1555 50.6185 43.1555C50.8062 42.9002 50.7424 42.0856 50.9075 42.2695C50.9075 42.1494 50.9376 42.0367 50.9451 41.9316C50.9526 41.8265 50.9451 41.7289 50.9451 41.6313C50.9451 41.4436 50.9188 41.2559 50.9075 41.0719C50.8504 40.6499 50.8166 40.225 50.8062 39.7993C50.9301 39.4239 50.7273 38.3953 50.6072 37.7458C50.2806 36.4882 50.0103 35.7036 49.6086 34.4647C49.6086 33.6426 48.9704 32.6177 48.8278 31.7843L48.6701 31.5928C48.6288 31.0184 48.1896 30.2714 48.0507 29.4905C47.9899 29.395 47.9347 29.296 47.8855 29.1939C47.8937 29.2155 47.8949 29.2391 47.8888 29.2614C47.8827 29.2837 47.8697 29.3034 47.8517 29.3178C47.8189 29.1831 47.7788 29.0503 47.7316 28.9199C47.7316 28.8598 47.6715 28.7284 47.6602 28.6646C47.649 28.6008 47.6603 28.5483 47.679 28.5483L47.7241 28.6383C47.8217 28.6383 47.4162 27.8425 47.2473 27.3169H47.1271C47.1098 27.3201 47.092 27.3201 47.0746 27.3169C47.083 27.3384 47.0943 27.3587 47.1084 27.377C47.1315 27.3963 47.1528 27.4177 47.1722 27.4408C47.1001 27.4394 47.0285 27.4306 46.9582 27.4145L46.7818 27.3845H46.8869C46.7446 27.398 46.6013 27.398 46.4589 27.3845C46.3613 27.3619 46.4101 27.3845 46.3876 27.422C46.3666 27.4534 46.3382 27.4791 46.305 27.4971C46.0157 27.6474 45.7076 27.7585 45.389 27.8274C45.3127 27.8473 45.2375 27.8711 45.1637 27.8988C45.0962 27.9476 45.0286 27.9964 44.9611 28.0377L44.7208 28.1841L44.2365 28.4506C43.9024 28.6383 43.542 28.8486 43.1103 29.1339C43.2492 28.9199 42.8437 29.3404 42.7611 29.2202C42.5595 29.2301 42.3663 29.3038 42.2093 29.4305C42.1304 29.4868 42.0591 29.5468 41.9878 29.6069L41.8789 29.6895C41.8615 29.705 41.8426 29.7188 41.8226 29.7308L41.7325 29.7833C41.7325 29.7833 41.7325 29.7834 41.71 29.8209C41.4284 29.9373 41.0981 30.0687 40.7827 30.1963C40.9855 30.0161 40.8428 30.1137 40.7039 30.2151C40.565 30.3164 40.4411 30.4103 40.6138 30.2601C40.3134 30.3652 39.9756 30.4741 39.664 30.598C40.0394 31.101 40.4862 31.6642 40.8766 32.231C40.9967 32.4 41.0342 32.46 41.0905 32.5464L41.2595 32.8054C41.3796 32.9743 41.481 33.1508 41.5898 33.3272C42.0319 34.0247 42.4198 34.7552 42.7499 35.5121V35.422C42.8437 35.6322 42.9601 35.8612 43.0652 36.079C43.1597 36.2751 43.2303 36.4818 43.2755 36.6947C43.3161 36.8684 43.3943 37.0311 43.5045 37.1714C43.5793 37.2738 43.6482 37.3803 43.7109 37.4905C43.9136 37.8247 43.8761 38.2038 43.8311 38.0461C44.0537 38.4457 44.2204 38.8739 44.3266 39.3188C44.2215 39.5403 44.8221 40.7979 44.6269 40.8542C44.6318 41.2138 44.6784 41.5716 44.7658 41.9204C44.8308 42.2921 44.8559 42.6696 44.8409 43.0466C44.8293 43.0364 44.8203 43.0235 44.8146 43.0091C45.0211 43.5271 45.1675 44.0602 45.3477 44.6121C45.5392 44.4657 45.7231 44.3155 45.9258 44.1578C46.1004 43.6659 46.2471 43.1646 46.3651 42.6562C46.2505 41.3163 45.9989 39.9917 45.6143 38.7031C45.4979 38.1813 45.3853 37.6557 45.2389 37.1451C45.0924 36.6346 44.9235 36.124 44.7508 35.6172C44.3416 34.6755 43.8765 33.7592 43.358 32.873C43.099 32.4337 42.8287 31.9945 42.5471 31.5741L42.4458 31.4201V31.3976L42.4045 31.3526C42.4202 31.3417 42.4365 31.3317 42.4533 31.3225H42.4871L42.6898 31.2287L43.1365 30.8833C43.6579 30.7251 44.1613 30.5124 44.6382 30.2489C44.8934 30.1137 45.1487 29.9635 45.389 29.7984C45.5166 29.7195 45.648 29.6332 45.7644 29.5431L45.862 29.4755H45.8808L45.9033 29.453L45.9934 29.3742C45.9953 29.4042 45.9953 29.4343 45.9934 29.4643L46.0497 29.2991C46.06 29.3208 46.0654 29.3445 46.0654 29.3685C46.0654 29.3926 46.06 29.4163 46.0497 29.438L46.031 29.483L46.0685 29.5694L46.3313 30.2676L46.8644 31.7242C47.2135 32.6965 47.5438 33.6726 47.8404 34.6374C48.4462 36.4635 48.8417 38.3528 49.0192 40.2686C49.0192 40.4412 49.0192 40.7754 49.0192 41.102C49.0264 41.3539 49.005 41.6058 48.9554 41.8528C48.9626 41.9778 48.9626 42.1032 48.9554 42.2282C48.9559 42.3538 48.9471 42.4793 48.9291 42.6036C48.8934 42.8505 48.8252 43.0916 48.7264 43.3207C48.5208 43.7857 48.2218 44.2036 47.8479 44.5483V44.5107C47.7381 44.6299 47.6216 44.7427 47.4988 44.8486C47.4763 44.8486 47.465 44.8486 47.4725 44.8298C47.2359 45.0794 46.9561 45.2842 46.6466 45.4342C46.2991 45.6037 45.9404 45.7492 45.573 45.8697L45.6067 45.8434C44.6878 46.2061 43.7325 46.4691 42.7574 46.628C42.2694 46.7069 41.7813 46.7669 41.297 46.797H40.9216H40.6964C40.5709 46.7984 40.4456 46.7921 40.3209 46.7782L39.9455 46.7444L39.5701 46.6881L38.8193 46.5717C38.8193 46.9809 38.8193 47.4389 38.8193 47.8706V48.9969V49.7815C38.8193 49.8378 38.8193 49.9241 38.7668 49.9504C38.7142 49.9767 38.6579 49.8866 38.6091 49.8528L38.5415 49.789L38.5115 49.7664L38.4064 49.6801L38.1999 49.5074L37.3627 48.8092C36.886 48.3587 36.3566 47.9232 35.7973 47.484L34.9451 46.827L34.5096 46.4929C34.457 46.4553 34.4796 46.4929 34.4683 46.4666H34.4458C34.4458 46.4666 34.4007 46.4666 34.3932 46.4253C34.3857 46.384 34.4195 46.3915 34.4345 46.3765H34.4645L34.5359 46.3239L35.1065 45.911C35.6101 45.5763 36.094 45.2128 36.5556 44.8223L37.6818 43.9251L37.9559 43.6961L38.0234 43.6398C38.0226 43.631 38.0226 43.6222 38.0234 43.6135C37.9756 43.5771 37.9443 43.5233 37.9362 43.4638C37.9281 43.4043 37.9439 43.344 37.9803 43.2962C38.0166 43.2485 38.0704 43.2171 38.1299 43.209C38.1894 43.2009 38.2497 43.2167 38.2975 43.2531Z" fill="#1D1D1D"/>
<path d="M43.9437 44.4956C43.9399 44.5444 43.9624 44.5181 43.9437 44.4956V44.4956Z" fill="#1D1D1D"/>
<path d="M36.6457 42.7048L36.672 42.686L36.5369 42.7086L36.6457 42.7048Z" fill="#1D1D1D"/>
<path d="M40.2271 43.8872C40.0694 43.8872 40.0582 43.8872 40.0695 43.9172C40.1234 43.9163 40.1766 43.9061 40.2271 43.8872Z" fill="#1D1D1D"/>
<path d="M46.2788 43.4107C46.429 43.3318 46.3576 43.3393 46.2562 43.3581L46.0047 43.5045C46.0948 43.4707 46.1887 43.4482 46.2788 43.4107Z" fill="#1D1D1D"/>
<path d="M45.3927 43.1554L45.4228 43.0991C45.344 43.1367 45.3514 43.1592 45.3927 43.1554Z" fill="#1D1D1D"/>
<path d="M15.2511 38.2261C20.8372 43.4593 28.6682 43.5982 28.6682 43.5982C28.6682 43.5982 26.7123 49.1768 27.6583 49.9802C23.9042 48.64 16.0957 45.723 13.8545 42.8737C10.9038 39.1196 15.221 33.0529 16.6476 31.9305C15.9906 31.3711 14.7442 30.3162 14.1135 29.6404C14.0662 29.5913 14.033 29.5302 14.0178 29.4637C14.0025 29.3972 14.0057 29.3278 14.0269 29.2629C14.0481 29.1981 14.0866 29.1402 14.1383 29.0956C14.1899 29.051 14.2528 29.0213 14.32 29.0098L21.7682 27.5306C21.8073 27.5228 21.8477 27.5238 21.8864 27.5336C21.925 27.5434 21.961 27.5618 21.9917 27.5874C22.0223 27.6129 22.0467 27.6451 22.0633 27.6814C22.0798 27.7177 22.088 27.7573 22.0873 27.7972L21.8545 35.0952C21.8541 35.1246 21.8451 35.1532 21.8285 35.1775C21.812 35.2018 21.7887 35.2207 21.7615 35.2319C21.7344 35.2431 21.7045 35.2461 21.6757 35.2404C21.6468 35.2348 21.6202 35.2208 21.5992 35.2003L19.2942 33.4884C19.2942 33.4884 16.0807 37.5241 16.2234 40.9215" fill="white"/>
<path d="M14.1136 28.195H14.1624C14.1624 28.195 14.1399 28.165 14.1136 28.195Z" fill="#1D1D1D"/>
<path d="M12.0713 40.0918C12.0651 40.1177 12.0651 40.1447 12.0713 40.1706C12.0685 40.1444 12.0685 40.118 12.0713 40.0918Z" fill="#1D1D1D"/>
<path d="M29.1112 44.5104V44.5367L29.1488 44.4653L29.1112 44.5104Z" fill="#1D1D1D"/>
<path d="M29.1074 44.6382C29.0436 44.7883 29.1074 44.5931 29.1074 44.5293C29.0299 44.6782 28.9742 44.8375 28.9423 45.0023C28.9873 45.0136 29.0549 44.7245 29.1074 44.6382Z" fill="#1D1D1D"/>
<path d="M16.8766 38.8004H16.9179C16.9043 38.797 16.8901 38.797 16.8766 38.8004Z" fill="#1D1D1D"/>
<path d="M13.7757 39.668V39.7243C13.7803 39.7058 13.7803 39.6865 13.7757 39.668Z" fill="#1D1D1D"/>
<path d="M18.6373 40.0318L18.6861 39.998C18.6761 40.0001 18.6666 40.0041 18.6582 40.0099C18.6498 40.0157 18.6427 40.0232 18.6373 40.0318Z" fill="#1D1D1D"/>
<path d="M18.5509 27.3394C18.5526 27.3476 18.5562 27.3552 18.5614 27.3618C18.5666 27.3683 18.5733 27.3735 18.581 27.3769L18.5509 27.3394Z" fill="#1D1D1D"/>
<path d="M16.565 38.3764H16.5875C16.5875 38.3463 16.5875 38.3163 16.5875 38.29C16.5737 38.3168 16.566 38.3463 16.565 38.3764Z" fill="#1D1D1D"/>
<path d="M22.6054 29.5918V29.6105C22.6345 29.3966 22.6483 29.1808 22.6466 28.9648H22.5791L22.6054 29.5918Z" fill="#1D1D1D"/>
<path d="M20.886 33.4245C20.9226 33.4935 20.9738 33.5537 21.0361 33.6009C21.0361 33.6272 21.0361 33.6572 21.0361 33.6797C21.0335 33.6844 21.0297 33.6884 21.0251 33.6911C21.0205 33.6938 21.0152 33.6952 21.0098 33.6952C21.0045 33.6952 20.9992 33.6938 20.9946 33.6911C20.99 33.6884 20.9862 33.6844 20.9836 33.6797C20.9495 33.6581 20.9169 33.6343 20.886 33.6084C20.8221 33.5596 20.7696 33.5108 20.7208 33.4658L20.6945 33.4432L20.5218 33.3156L20.1764 33.0566C19.9474 32.8764 19.7147 32.7187 19.4782 32.5573L19.1028 32.317C19.0009 32.436 18.9069 32.5614 18.8212 32.6924C18.6335 32.9402 18.4458 33.2142 18.2468 33.4995L18.3181 33.3531C18.246 33.4435 18.1843 33.5417 18.1342 33.6459C18.0704 33.7661 17.9878 33.92 17.8676 34.1378C17.6799 34.4869 17.2783 35.0312 16.5087 36.1387C16.4843 36.2294 16.4408 36.3139 16.381 36.3865C16.4749 36.2626 16.5612 36.1312 16.6588 36.011C16.565 36.2738 16.5199 36.5216 16.3773 36.8595C16.3322 36.9233 16.2947 36.9383 16.2722 36.9345C16.1595 37.2161 16.0507 37.4977 15.9606 37.7905L15.7803 38.027C15.7428 38.3198 15.9493 38.241 15.6565 38.9468C15.8404 38.6952 15.6565 39.3222 15.7353 39.2546C15.7128 39.2884 15.6715 39.3672 15.634 39.431C15.5964 39.6563 15.5776 39.9904 15.5626 40.287C15.563 40.5164 15.5856 40.7452 15.6302 40.9702L15.679 40.6812C15.7102 40.4614 15.7579 40.2443 15.8217 40.0317C15.935 39.6224 16.0962 39.228 16.3022 38.8566C16.1295 39.431 16.2759 39.0106 16.351 38.9092L16.3285 38.8642C16.4599 38.53 16.5387 38.5563 16.61 38.3911H16.5988V38.4174C16.5988 38.4174 16.5725 38.4174 16.5725 38.3949C16.5725 38.3724 16.5425 38.3724 16.5725 38.2823V38.3048C16.6252 38.1415 16.6866 37.981 16.7564 37.8243L16.8202 37.8468C16.8983 37.5124 17.0496 37.1996 17.2632 36.9308C17.5073 36.5554 17.8001 36.18 17.8827 36.0411C18.1229 35.7783 18.2581 35.3541 18.5171 35.0087C18.7123 34.7234 18.7799 34.6671 18.8287 34.6333C18.8928 34.618 18.9522 34.5871 19.0014 34.5432C19.1929 34.3367 18.9113 34.5432 18.9713 34.4343C19.0314 34.3254 19.1553 34.2842 19.2341 34.2316C19.1253 34.3968 19.2079 34.3517 19.2341 34.3555C19.2762 34.3052 19.3214 34.2576 19.3693 34.2128C19.3693 34.2128 19.3918 34.179 19.4068 34.2128L19.4519 34.2579L19.5344 34.3367C19.6396 34.4343 19.7222 34.4906 19.7822 34.4531C19.8486 34.5292 19.9201 34.6007 19.9962 34.6671L20.229 34.8886C20.3476 35.0024 20.473 35.1089 20.6044 35.2077C20.4932 35.1125 20.3913 35.0069 20.3003 34.8923C20.5781 35.1701 20.4429 34.9787 20.3303 34.8923C20.5188 35.0171 20.6982 35.1551 20.8672 35.3053C21.0814 35.4955 21.3281 35.6455 21.5955 35.7483C21.6909 35.7859 21.7887 35.8173 21.8883 35.8421C21.9426 35.8436 21.9965 35.8333 22.0464 35.8119C22.0963 35.7905 22.141 35.7585 22.1774 35.7182C22.2411 35.6429 22.2745 35.5465 22.2712 35.4479L22.29 35.4779C22.2412 35.279 22.1286 35.309 22.1436 34.9862C22.1736 34.9449 22.1999 34.8961 22.2262 34.851C22.2317 34.746 22.2317 34.6407 22.2262 34.5357V34.4794C22.2712 34.2766 22.2937 34.408 22.3087 34.4193C22.2905 34.0804 22.2905 33.7408 22.3087 33.4019C22.3313 33.1316 22.3538 32.8501 22.3726 32.591L22.0535 33.1279C22.1361 32.6924 22.305 31.9116 22.2074 31.8215L22.32 31.5624C22.5415 30.6915 22.2562 30.9467 22.32 30.6014L22.4439 30.1659V30.6014C22.5152 30.1659 22.5565 29.9932 22.6391 29.6478C22.6391 29.6704 22.6391 29.6854 22.6391 29.6891V29.6291C22.5648 29.4408 22.5402 29.2365 22.5678 29.0359C22.5678 28.9796 22.5678 28.927 22.5678 28.8745V28.6455C22.5678 28.4953 22.5678 28.3414 22.5678 28.18C22.5733 28.0141 22.562 27.8481 22.534 27.6844C22.534 27.6019 22.5077 27.5192 22.4815 27.4329C22.4436 27.3301 22.3787 27.2393 22.2938 27.1701C22.2068 27.1587 22.1184 27.1664 22.0347 27.1927C21.8334 27.1438 21.6255 27.1273 21.419 27.1439L21.4416 27.0462C21.6454 27.0124 21.8534 27.0124 22.0572 27.0462C22.1699 27.0579 22.2775 27.0994 22.3688 27.1664C22.4678 27.2388 22.5424 27.3396 22.5828 27.4554C22.6778 27.7042 22.7187 27.9704 22.7029 28.2363C22.7029 28.5103 22.7029 28.7769 22.7029 29.0096H22.7442C22.7442 28.7243 22.7442 28.4202 22.7442 28.1349C22.7479 27.905 22.7111 27.6763 22.6353 27.4592C22.6163 27.3506 22.5809 27.2455 22.5303 27.1476C22.4852 27.0537 22.4852 26.9974 22.6279 27.0988C22.5284 27.0286 22.4141 26.9823 22.2938 26.9636C22.0349 26.8714 21.7557 26.8519 21.4866 26.9073L20.687 27.065L20.2553 27.1363C19.9699 27.1776 19.6433 27.2189 19.0915 27.2865L19.2191 27.309C18.9563 27.3879 18.6973 27.4667 18.611 27.4066C17.8872 27.551 17.1525 27.6339 16.4148 27.6544L16.321 27.782C16.1483 27.8083 15.863 27.7032 15.8104 27.8646L15.634 27.9247L15.5438 27.951H15.4951L15.4162 27.9697C15.046 28.068 14.6698 28.142 14.29 28.1912H14.1961C14.0769 28.2136 13.9633 28.2596 13.862 28.3264C13.8245 28.3527 13.8357 28.3639 13.8433 28.3714C13.8508 28.3789 13.8432 28.394 13.8094 28.4277L13.5429 28.6117C13.5017 28.6313 13.4674 28.663 13.4446 28.7026C13.4218 28.7421 13.4116 28.7877 13.4153 28.8332C13.4028 28.9681 13.3828 29.1022 13.3552 29.2349C13.3005 29.3438 13.2578 29.4584 13.2276 29.5765C13.2406 29.7077 13.2788 29.8352 13.3402 29.9519C13.4171 30.0788 13.5105 30.195 13.618 30.2973L14.061 30.6727L14.6579 31.1945C14.9094 31.4911 14.962 31.7126 14.6954 31.63C14.8719 31.6938 14.9169 31.7013 14.9695 31.7276L15.0633 31.7877C15.0971 31.7877 15.206 31.889 15.206 31.8665C15.1779 31.896 15.1478 31.9236 15.1159 31.9491C15.0709 31.9979 15.1609 31.9191 15.1797 31.9491C15.2999 31.9058 15.4277 31.8879 15.5551 31.8965C15.5551 31.8965 15.5551 31.874 15.5551 31.859L15.6677 31.9115L15.7203 31.9416H15.7466C15.6858 32.0076 15.6148 32.0633 15.5364 32.1068L15.4838 32.0842L15.4124 32.2081L15.3524 32.1706L15.1797 32.3921L14.9995 32.6361L15.0633 32.5835C14.9039 32.8237 14.7323 33.0555 14.549 33.278L14.5227 33.248C13.9972 33.7924 13.8095 34.4043 13.4228 35.1814V35.0425C13.2163 35.2715 13.4903 35.1664 13.3026 35.4705L13.205 35.4442C13.205 35.7783 13.0136 35.8196 12.8822 35.981L13.0361 35.9397C12.9723 36.0598 12.916 36.1837 12.8559 36.3151C12.6532 36.7206 12.6081 36.5216 12.5669 36.4315V36.7619H12.4392C12.488 37.0209 12.3491 36.9758 12.2966 37.3813C12.2478 37.4038 12.2515 37.2987 12.199 37.4263C12.199 37.6591 12.199 37.8881 12.199 38.1171C12.199 37.9819 12.199 37.843 12.199 37.7079L12.3454 37.7942C12.3754 38.226 12.2102 38.3423 12.2102 38.6464V38.4362C12.1884 38.7049 12.1329 38.9697 12.045 39.2246C12.0788 39.1382 12.1389 39.0106 12.1426 39.2246C12.1426 39.371 12.0788 39.2996 12.0563 39.4385C12.1089 39.4611 12.1464 39.5587 12.1614 39.6938C12.1843 39.8481 12.1843 40.005 12.1614 40.1593C12.1614 40.1593 12.1276 40.1593 12.1201 40.1293C12.1557 40.216 12.1699 40.31 12.1614 40.4033L12.0338 40.3245L12.1727 40.5986C12.1727 40.79 12.3078 41.0453 12.2215 41.0378L12.1802 40.9364C12.2553 41.422 12.398 41.8946 12.6044 42.3405L12.5256 42.4005C12.6907 42.4794 12.901 43.1514 13.0023 43.0049C13.0737 43.3128 13.7531 43.7933 13.4903 43.8008C13.5692 43.8909 13.648 43.9735 13.7231 44.0486L13.9559 44.2363L14.4064 44.5704C14.7641 44.8015 15.1087 45.0521 15.4388 45.3212C15.6602 45.6704 16.565 46.1734 17.1319 46.5C18.2994 47.0744 19.069 47.3747 20.274 47.874C20.8972 48.4071 22.0947 48.5873 22.8193 49.0002H23.0671C23.5326 49.3381 24.3848 49.4883 25.068 49.8937C25.1809 49.9079 25.2926 49.9305 25.4021 49.9613C25.3807 49.9523 25.3625 49.9372 25.3498 49.9178C25.3371 49.8984 25.3305 49.8756 25.3308 49.8524C25.4531 49.9137 25.5784 49.9689 25.7062 50.0176C25.7625 50.0439 25.8939 50.0964 25.9465 50.1302C25.999 50.164 26.0441 50.1978 26.0253 50.2203L25.9277 50.1978C25.8639 50.2729 26.7311 50.4794 27.2416 50.6896L27.3205 50.6033C27.3333 50.5902 27.3486 50.58 27.3656 50.5732C27.3431 50.5712 27.3204 50.5712 27.298 50.5732H27.2079C27.2571 50.5184 27.3111 50.4682 27.3693 50.423L27.5045 50.3104L27.4406 50.393C27.5286 50.2805 27.6266 50.1763 27.7334 50.0814C27.816 50.0214 27.7522 50.0326 27.7522 50.0026C27.7423 49.9657 27.7423 49.9269 27.7522 49.89C27.8248 49.5732 27.9397 49.2676 28.0938 48.9815C28.1321 48.9108 28.1635 48.8366 28.1877 48.76C28.1877 48.6774 28.1877 48.5948 28.2139 48.5197C28.2402 48.4446 28.244 48.3358 28.2627 48.2419C28.2965 48.0617 28.3303 47.8665 28.3679 47.6976C28.443 47.3222 28.518 46.913 28.5706 46.4137C28.6419 46.6577 28.5706 46.0758 28.732 46.0908C28.8552 45.9312 28.9248 45.7367 28.931 45.5352C28.931 45.4414 28.931 45.3438 28.931 45.2537C28.931 45.1636 28.931 45.1598 28.931 45.1148C28.9293 45.091 28.9293 45.0672 28.931 45.0434L28.9535 44.9458C28.9535 44.9458 28.9535 44.9458 28.9535 44.9045C29.0474 44.6155 29.1638 44.2738 29.2764 43.9585C29.2764 44.225 29.2989 44.0561 29.3139 43.8872C29.3289 43.7182 29.3365 43.5605 29.3365 43.7895C29.4528 43.4892 29.588 43.1626 29.7119 42.8473C29.0812 42.8097 28.3679 42.7797 27.6809 42.7084L27.3055 42.6671L27.0014 42.6295C26.7949 42.607 26.5922 42.5695 26.3857 42.5394C25.5698 42.4222 24.7641 42.2427 23.9756 42.0026L24.0394 42.0702C23.8179 42.0026 23.5664 41.9425 23.3299 41.8787C23.1209 41.8242 22.9192 41.7448 22.7292 41.6422C22.569 41.5613 22.394 41.514 22.2149 41.5033C22.0497 41.4808 21.9033 41.477 21.8395 41.4583C21.4641 41.3907 21.19 41.1166 21.3402 41.1842C20.891 41.0962 20.4563 40.9458 20.0488 40.7375C19.9512 40.5122 18.6035 40.1518 18.6861 39.9866C18.4079 39.7592 18.1058 39.5628 17.7851 39.401C17.4637 39.2131 17.164 38.9902 16.8916 38.7365H16.9366C16.4111 38.5563 15.908 38.3198 15.3712 38.0983C15.3712 38.3423 15.3449 38.5864 15.3374 38.8491C15.5982 39.297 15.8826 39.7305 16.1896 40.1481C17.2852 40.9306 18.459 41.5974 19.6921 42.1378C20.1614 42.3855 20.6344 42.6408 21.1225 42.851C21.6105 43.0612 22.106 43.2752 22.6053 43.4742C23.5914 43.7741 24.5943 44.016 25.6086 44.1988C26.1117 44.2851 26.6222 44.3639 27.1103 44.4202L27.2942 44.4428H27.3993C27.4004 44.4615 27.4004 44.4803 27.3993 44.4991V44.5328L27.3392 44.7506L27.313 45.31C27.0943 45.8094 26.9282 46.3303 26.8174 46.8642C26.7574 47.1457 26.7048 47.4423 26.6598 47.7426C26.6373 47.8928 26.6185 48.0467 26.6035 48.2044V48.3208V48.4972L26.5321 48.4371L26.6184 48.5911C26.5963 48.5837 26.576 48.5719 26.5585 48.5564C26.5411 48.5409 26.5271 48.522 26.5171 48.5009L26.4946 48.4559L26.4007 48.4296L25.6987 48.1743L24.2459 47.6337C23.2811 47.2583 22.3275 46.8829 21.3965 46.485C19.617 45.7604 17.9256 44.8359 16.3547 43.7295C16.2271 43.6056 15.9793 43.3916 15.7166 43.1889C15.5198 43.0338 15.3432 42.8547 15.191 42.6558C15.0876 42.5803 14.9897 42.4975 14.8981 42.408C14.7996 42.3269 14.7079 42.2378 14.6241 42.1415C14.4589 41.9548 14.32 41.7464 14.2112 41.5221C13.9861 41.0652 13.8583 40.5667 13.8357 40.058V40.0955C13.8357 39.9378 13.8057 39.7764 13.802 39.6112C13.802 39.5887 13.8282 39.5887 13.8357 39.6112C13.7999 39.2689 13.8266 38.9229 13.9146 38.5901C14.0141 38.2152 14.1396 37.8477 14.29 37.4902V37.5352C14.6129 36.6009 15.0345 35.7036 15.5476 34.8585C15.7972 34.4368 16.0705 34.0294 16.366 33.6384C16.4373 33.5408 16.5124 33.447 16.5837 33.3531L16.7301 33.1767C16.809 33.0866 16.8916 32.9965 16.9817 32.9102L17.2482 32.6474L17.5448 32.3921L18.1304 31.8853C17.8263 31.6112 17.4697 31.3222 17.1431 31.0443L16.2233 30.3724L15.634 29.8618C15.5964 29.8168 15.5138 29.7792 15.5401 29.7079C15.5664 29.6366 15.6602 29.6666 15.7166 29.6516H15.8104H15.8442L15.9793 29.6253L16.2459 29.5803L17.3196 29.3963C17.9728 29.325 18.6485 29.2049 19.343 29.066L20.3979 28.8444L20.931 28.7281H20.9798H21.0061C21.0061 28.7281 21.0474 28.7055 21.0699 28.7281C21.0924 28.7506 21.0699 28.7694 21.0699 28.7919V28.8257V28.8707L21.0136 29.5765C20.9401 30.1756 20.9025 30.7786 20.9009 31.3822C20.9009 31.8365 20.8747 32.3283 20.8634 32.8088C20.8634 32.9289 20.8634 33.049 20.8634 33.1842V33.2931V33.3118C20.8799 33.347 20.8877 33.3857 20.886 33.4245Z" fill="#1D1D1D"/>
<path d="M16.2759 36.9125C16.2421 36.8787 16.2459 36.9125 16.2759 36.9125V36.9125Z" fill="#1D1D1D"/>
<path d="M22.3763 32.5238V32.5576L22.4439 32.4375L22.3763 32.5238Z" fill="#1D1D1D"/>
<path d="M19.1591 34.5023C19.2604 34.386 19.2604 34.3672 19.2379 34.3672C19.2042 34.4075 19.1775 34.4532 19.1591 34.5023Z" fill="#1D1D1D"/>
<path d="M15.5851 39.3826C15.5438 39.5478 15.5851 39.4915 15.6377 39.3826L15.6902 39.1011C15.6602 39.2137 15.6152 39.3038 15.5851 39.3826Z" fill="#1D1D1D"/>
<path d="M16.3547 38.887L16.3773 38.9433C16.3923 38.8532 16.3773 38.8532 16.3547 38.887Z" fill="#1D1D1D"/>
<path d="M35.0201 16.2533C27.9512 19.189 24.6063 26.273 24.6063 26.273C24.6063 26.273 20.3266 22.1961 19.2004 22.7254C21.9709 19.8498 27.8348 13.937 31.3562 13.0661C35.9887 11.9173 39.7466 18.3519 40.182 20.1088C40.9629 19.7334 42.4345 19.0389 43.313 18.7423C43.3773 18.7189 43.4467 18.7135 43.5138 18.7267C43.5809 18.7399 43.6431 18.7712 43.6937 18.8172C43.7443 18.8632 43.7814 18.9221 43.801 18.9877C43.8206 19.0532 43.8219 19.1228 43.8048 19.189L42.0892 26.5884C42.0802 26.6273 42.0625 26.6638 42.0375 26.695C42.0125 26.7262 41.9808 26.7514 41.9448 26.7687C41.9087 26.786 41.8692 26.795 41.8292 26.795C41.7892 26.795 41.7498 26.7859 41.7137 26.7686L35.1553 23.5551C35.1289 23.5432 35.1065 23.524 35.0907 23.4997C35.075 23.4753 35.0666 23.447 35.0666 23.418C35.0666 23.3891 35.075 23.3607 35.0907 23.3364C35.1065 23.3121 35.1289 23.2928 35.1553 23.281L37.663 21.8807C37.663 21.8807 35.3017 17.2932 32.152 16.0281" fill="#F6C0C6"/>
<path d="M20.1013 20.6118C20.0676 20.6531 20.0751 20.6343 20.1013 20.6118V20.6118Z" fill="#1D1D1D"/>
<path d="M40.764 18.7351V18.6675C40.7658 18.69 40.7658 18.7126 40.764 18.7351Z" fill="#1D1D1D"/>
<path d="M44.6307 19.3354V19.3843C44.6307 19.3843 44.6457 19.3767 44.6307 19.3354Z" fill="#1D1D1D"/>
<path d="M34.6185 12.5855C34.5945 12.5716 34.5674 12.5639 34.5397 12.563L34.6185 12.5855Z" fill="#1D1D1D"/>
<path d="M23.5964 26.3032H23.5701L23.6227 26.3671L23.5964 26.3032Z" fill="#1D1D1D"/>
<path d="M23.4726 26.243C23.3637 26.1229 23.5176 26.243 23.5702 26.2843C23.4629 26.1512 23.3364 26.0348 23.1947 25.939C23.191 25.9652 23.42 26.1605 23.4726 26.243Z" fill="#1D1D1D"/>
<path d="M34.3144 14.3127L34.2618 14.2939C34.2772 14.3052 34.2954 14.3117 34.3144 14.3127Z" fill="#1D1D1D"/>
<path d="M31.9906 18.5962V18.6525C31.9952 18.6438 31.9976 18.6342 31.9976 18.6244C31.9976 18.6145 31.9952 18.6049 31.9906 18.5962Z" fill="#1D1D1D"/>
<path d="M43.587 23.7353C43.5726 23.7295 43.5564 23.7295 43.542 23.7353H43.587Z" fill="#1D1D1D"/>
<path d="M34.3444 17.3872C34.3415 17.3944 34.3415 17.4025 34.3444 17.4097C34.3737 17.415 34.4026 17.4226 34.4308 17.4323C34.4057 17.411 34.3762 17.3956 34.3444 17.3872Z" fill="#1D1D1D"/>
<path d="M39.8742 26.5059H39.848C40.0301 26.6216 40.2209 26.7233 40.4185 26.8099L40.4636 26.7574L39.8742 26.5059Z" fill="#1D1D1D"/>
<path d="M37.0812 23.3636C37.0036 23.3652 36.9275 23.3859 36.8597 23.4236C36.8372 23.4236 36.8034 23.4236 36.7884 23.3936C36.7734 23.3635 36.7884 23.3485 36.7884 23.341L36.8897 23.281L37.0887 23.1909H37.1187L37.3064 23.0895L37.6819 22.8793C37.9409 22.7441 38.1811 22.5977 38.4327 22.4476L38.8081 22.2186C38.7555 22.0872 38.6654 21.9483 38.5941 21.8131C38.4439 21.5391 38.275 21.2537 38.091 20.9572L38.1962 21.0848C38.1441 20.9812 38.0798 20.8841 38.0047 20.7957L37.6668 20.349C37.4266 20.0337 37.0962 19.4443 36.4054 18.288C36.334 18.2277 36.2753 18.1536 36.2328 18.0703C36.3079 18.2092 36.3942 18.3406 36.4618 18.4795C36.2628 18.2843 36.0563 18.1454 35.8086 17.8751C35.7673 17.8075 35.771 17.7662 35.7823 17.7474C35.572 17.5297 35.358 17.3119 35.129 17.1092L34.9864 16.8502C34.7386 16.6963 34.7236 16.914 34.2018 16.3584C34.3557 16.6287 33.8527 16.197 33.8902 16.3058C33.8677 16.2683 33.8113 16.197 33.7663 16.1407C33.5239 15.988 33.2733 15.8488 33.0155 15.7239C32.8062 15.6304 32.5888 15.5563 32.366 15.5025L32.6101 15.6639C32.7979 15.7838 32.9761 15.9181 33.1431 16.0656C33.4706 16.3359 33.7643 16.6447 34.0178 16.9853C33.5636 16.6099 33.8864 16.899 33.9502 17.0041H33.9991C34.2506 17.2594 34.198 17.3194 34.3144 17.4508C34.3165 17.4435 34.3165 17.4357 34.3144 17.4283H34.2919C34.2919 17.4058 34.2919 17.4058 34.3219 17.4283C34.3519 17.4508 34.3519 17.4283 34.4195 17.4809C34.5515 17.5989 34.6769 17.7242 34.7949 17.8563L34.7461 17.9051C35.018 18.1133 35.2409 18.3786 35.3993 18.6822C35.6433 19.0576 35.8499 19.4781 35.955 19.6132C36.0939 19.9436 36.4317 20.2289 36.6344 20.6193C36.8146 20.9121 36.8409 20.9947 36.8372 21.051C36.8206 21.1138 36.8206 21.1797 36.8372 21.2425C36.946 21.5015 36.886 21.1636 36.9498 21.2612C37.0136 21.3589 37.0099 21.4902 37.0286 21.5879C36.9235 21.4152 36.931 21.5128 36.9122 21.539C36.9412 21.5974 36.9663 21.6576 36.9874 21.7193C36.9874 21.7193 37.0099 21.753 36.9874 21.7605L36.931 21.7831L36.8221 21.8281C36.6908 21.8807 36.6081 21.9332 36.6157 22.0046C36.5194 22.0329 36.4253 22.068 36.3341 22.1097L36.0376 22.2336C35.8853 22.2906 35.7372 22.3584 35.5945 22.4363C35.7261 22.3749 35.8631 22.3258 36.0037 22.2899C35.6283 22.425 35.8686 22.3837 36.0037 22.3199C35.8126 22.4415 35.6132 22.5494 35.4068 22.6428C35.0526 22.8065 34.7406 23.0492 34.4946 23.3523C34.4723 23.4012 34.4608 23.4543 34.4608 23.5081C34.4608 23.5619 34.4723 23.615 34.4946 23.6639C34.5697 23.7765 34.641 23.8553 34.7011 23.8628H34.6711C34.87 23.9004 34.8888 23.7878 35.1741 23.9342C35.2004 23.9755 35.2342 24.0168 35.2679 24.0656C35.358 24.1069 35.4557 24.1482 35.557 24.1857H35.6096C35.7785 24.3058 35.6471 24.2758 35.6321 24.2833C35.9459 24.4126 36.2529 24.558 36.5519 24.7188L37.2652 25.0942L36.8897 24.5836C37.2652 24.8389 37.8958 25.3119 38.016 25.2631L38.2037 25.4696C38.9057 26.029 38.7931 25.6611 39.0784 25.8675L39.4238 26.1604L39.0484 25.9689C39.4238 26.2092 39.5589 26.3218 39.8405 26.5395C39.8217 26.5395 39.8104 26.5133 39.8104 26.5057L39.8667 26.532C40.0684 26.5402 40.2642 26.6024 40.4336 26.7122L40.58 26.7835L40.7865 26.8812L41.207 27.0764C41.3577 27.1484 41.5148 27.2062 41.6762 27.2491C41.7586 27.2731 41.8426 27.2907 41.9277 27.3016C42.0352 27.3115 42.1432 27.2906 42.2393 27.2415C42.2874 27.1666 42.3181 27.082 42.3294 26.9938C42.4576 26.8265 42.5589 26.6403 42.6297 26.4419L42.7086 26.5057C42.6565 26.706 42.5742 26.8971 42.4646 27.0726C42.4089 27.1717 42.3271 27.2535 42.2281 27.3091C42.1211 27.3708 41.9984 27.3995 41.8752 27.3917C41.6124 27.3754 41.3562 27.3024 41.1243 27.1777L40.4223 26.8436L40.3923 26.8736L41.1844 27.2491C41.3938 27.3466 41.6187 27.4064 41.8489 27.4255C41.9551 27.455 42.0653 27.4677 42.1755 27.463C42.2769 27.463 42.3294 27.463 42.1755 27.5682C42.281 27.5069 42.3709 27.4221 42.4383 27.3204C42.5699 27.1836 42.6743 27.0231 42.7461 26.8474C42.8082 26.6723 42.8572 26.4929 42.8926 26.3105C42.9301 26.1453 42.9676 25.9952 43.0014 25.8525C43.0352 25.7099 43.0465 25.6686 43.069 25.5747C43.1553 25.2519 43.2567 24.9215 43.4444 24.2683L43.373 24.3734C43.4106 24.1031 43.4444 23.8366 43.5345 23.7765C43.702 23.0585 43.928 22.3554 44.2102 21.6742L44.1351 21.539C44.1802 21.3701 44.3942 21.1637 44.2703 21.0398V20.8521V20.762V20.7094V20.6306C44.3344 20.2497 44.4235 19.8735 44.5369 19.5043L44.5631 19.4142C44.5868 19.2902 44.5868 19.1628 44.5631 19.0388C44.5631 18.9975 44.5406 19.0013 44.5293 19.0013C44.5181 19.0013 44.5031 19.0013 44.4918 18.9487C44.4805 18.8962 44.4655 18.8136 44.4355 18.6334C44.4345 18.5873 44.4197 18.5426 44.3929 18.5051C44.3661 18.4676 44.3286 18.439 44.2853 18.4231C44.1658 18.3578 44.0504 18.2851 43.9399 18.2054C43.8642 18.109 43.7773 18.0221 43.6809 17.9464C43.5519 17.902 43.4155 17.8829 43.2792 17.8901C43.1323 17.9091 42.9885 17.9469 42.8513 18.0027L42.3257 18.2467L41.6011 18.5771C41.2257 18.6859 41.0042 18.6446 41.1919 18.4344C41.0605 18.5696 41.0305 18.6071 40.9892 18.6409L40.8953 18.7047C40.8653 18.7272 40.7452 18.791 40.7677 18.8023C40.7489 18.7658 40.7363 18.7265 40.7302 18.6859C40.7002 18.6259 40.7302 18.7385 40.7076 18.7497C40.6983 18.8812 40.6612 19.0091 40.5988 19.1252L40.6288 19.1477L40.535 19.2265L40.4862 19.2641H40.4599C40.4259 19.1827 40.4043 19.0966 40.3961 19.0088L40.4374 18.9675L40.3548 18.8511L40.4111 18.8098L40.2797 18.562L40.1332 18.2993L40.1558 18.3819C40.0026 18.1391 39.8623 17.8885 39.7353 17.631H39.7729C39.4913 16.929 39.0221 16.5048 38.4627 15.8366L38.5941 15.8741C38.4702 15.5963 38.4514 15.8741 38.2562 15.5888L38.3163 15.5137C38.0197 15.356 38.0723 15.1909 37.9409 14.9956L37.9184 15.1571C37.8358 15.0482 37.7456 14.9469 37.6555 14.8417C37.374 14.4888 37.573 14.5301 37.6555 14.5301L37.3628 14.3837L37.3928 14.2599C37.1375 14.1998 37.2389 14.0909 36.8897 13.8844C36.8897 13.8281 36.9836 13.8844 36.8897 13.7756C36.6833 13.6704 36.473 13.5729 36.259 13.4865C36.3829 13.5503 36.5068 13.6066 36.6344 13.6742L36.4955 13.7718C36.0901 13.6217 36.0525 13.4227 35.7747 13.295L35.9737 13.3701C35.7361 13.2403 35.5166 13.08 35.3205 12.8934C35.3843 12.9647 35.4744 13.0698 35.2942 12.9872C35.114 12.9046 35.2492 12.9009 35.129 12.822C35.0915 12.8633 34.9826 12.8558 34.855 12.822C34.7041 12.7819 34.56 12.7199 34.427 12.6381C34.4315 12.6309 34.4375 12.6248 34.4447 12.6202C34.4518 12.6157 34.4599 12.6128 34.4683 12.6118C34.3763 12.6094 34.2862 12.585 34.2055 12.5405L34.3257 12.4541L34.0216 12.4729C33.8489 12.3866 33.5561 12.4091 33.6011 12.334H33.71C33.2371 12.2021 32.748 12.1376 32.2571 12.1425L32.2346 12.0449C32.092 12.1688 31.4087 12.0674 31.4838 12.2326C31.176 12.1726 30.4664 12.578 30.5603 12.349C30.4477 12.3865 30.3388 12.4203 30.2374 12.4616L29.9709 12.5968L29.4829 12.8671C29.1202 13.1005 28.7442 13.3123 28.3566 13.5015C27.9474 13.5578 27.1215 14.1735 26.5885 14.5602C25.5861 15.3898 24.9929 15.968 24.0432 16.8614C23.2923 17.2068 22.6466 18.2242 21.9521 18.7085L21.847 18.9337C21.344 19.2153 20.8559 19.9323 20.2065 20.3903C20.1467 20.4862 20.0802 20.5778 20.0075 20.6644C20.0268 20.6511 20.0498 20.644 20.0732 20.644C20.0967 20.644 20.1196 20.6511 20.1389 20.6644C20.0294 20.7504 19.9253 20.8431 19.8273 20.9422C19.7823 20.9835 19.6809 21.0773 19.6283 21.1149C19.5758 21.1524 19.527 21.1749 19.5157 21.1486L19.5758 21.0698C19.5308 20.9797 18.9864 21.6855 18.5847 22.0646C18.6032 22.0999 18.6195 22.1362 18.6335 22.1735C18.6367 22.1909 18.6367 22.2087 18.6335 22.2261C18.6335 22.2261 18.6635 22.196 18.6748 22.1698C18.6813 22.1416 18.6901 22.1139 18.7011 22.0872C18.7332 22.1528 18.7571 22.2222 18.7724 22.2936L18.8212 22.4626L18.7687 22.3687C18.8363 22.4958 18.8916 22.629 18.9338 22.7666C18.9563 22.8643 18.9714 22.8004 19.0014 22.8155C19.0379 22.8212 19.0726 22.8354 19.1028 22.8567C19.3615 23.0539 19.5926 23.285 19.7898 23.5437C19.8461 23.6038 19.8912 23.6676 19.9512 23.7202L20.1614 23.8441C20.2665 23.9041 20.3191 23.9454 20.3979 23.998C20.5443 24.1069 20.6945 24.212 20.8484 24.3209C21.16 24.5423 21.5016 24.7789 21.9371 25.0341C21.6818 24.9966 22.2374 25.1843 22.1623 25.3119C22.258 25.4903 22.4079 25.6336 22.5903 25.7211C22.6719 25.7669 22.7558 25.8083 22.8419 25.845L22.9657 25.9088L23.0258 25.9426L23.1084 26.0027C23.1084 26.0027 23.1084 26.0027 23.1534 26.0027C23.3787 26.2054 23.6415 26.4494 23.8818 26.6859C23.6377 26.5771 23.7841 26.6634 23.9306 26.746C24.077 26.8286 24.2196 26.9037 24.0094 26.8098C24.2346 27.0388 24.4787 27.2978 24.7227 27.5231C25.0155 26.9675 25.3346 26.3255 25.6837 25.7324C25.7851 25.5484 25.8226 25.4921 25.8789 25.402L26.0366 25.1392C26.1417 24.959 26.2581 24.7939 26.3707 24.6174C26.8192 23.92 27.3213 23.2586 27.8724 22.639L27.786 22.669C27.9362 22.4963 28.0939 22.2936 28.2478 22.1022C28.3844 21.9339 28.5407 21.7827 28.7133 21.6517C28.8535 21.5416 28.9676 21.4018 29.0474 21.2425C29.1375 21.0998 29.2013 20.9684 29.2463 20.9159C29.4641 20.593 29.8245 20.4616 29.7006 20.5743C29.9645 20.1997 30.2805 19.8647 30.6391 19.5794C30.8832 19.5794 31.7654 18.502 31.8968 18.6559C32.2174 18.4953 32.5195 18.3002 32.7978 18.074C33.1031 17.8609 33.4288 17.6785 33.7701 17.5297C33.7655 17.546 33.7579 17.5613 33.7476 17.5747C34.123 17.1655 34.5471 16.8051 34.9714 16.4072C34.7574 16.2946 34.5359 16.1819 34.3144 16.0731C33.7989 16.1275 33.2864 16.2077 32.779 16.3133C31.6165 16.9916 30.527 17.7879 29.5279 18.6897C29.1074 19.0163 28.6795 19.3429 28.2853 19.7033C27.8911 20.0637 27.4969 20.4241 27.1103 20.7957C26.4367 21.5672 25.8098 22.3783 25.2332 23.2247C24.9442 23.6451 24.6626 24.0806 24.4073 24.5123L24.3097 24.67V24.6963L24.2872 24.7563L24.2384 24.7225L24.2121 24.7L24.0394 24.5574L23.5364 24.2983C23.1709 23.8956 22.7645 23.532 22.3238 23.2134C22.091 23.0369 21.8433 22.8718 21.573 22.7066C21.4453 22.624 21.3102 22.5452 21.175 22.4663L21.0737 22.4063H21.0511H21.0249L20.9122 22.3575L20.9948 22.3161L20.8184 22.3349C20.8521 22.3005 20.8978 22.2803 20.946 22.2786H20.9948L21.0549 22.2073L21.5767 21.6705L22.6654 20.5667C23.4162 19.8385 24.137 19.1252 24.8878 18.4419C26.2787 17.116 27.8166 15.9534 29.4716 14.9769C29.633 14.9131 29.9371 14.7704 30.2224 14.6015C30.4461 14.4894 30.6816 14.4025 30.9245 14.3424C31.0366 14.2813 31.1518 14.2262 31.2698 14.1773C31.3912 14.1214 31.5167 14.0749 31.6452 14.0384C31.889 13.9649 32.1415 13.9245 32.396 13.9182C32.9035 13.9023 33.4088 13.9931 33.8789 14.1848H33.8677C34.0216 14.2373 34.1717 14.2899 34.3257 14.3575V14.3875C34.6521 14.4955 34.9562 14.6622 35.2229 14.8793C35.5242 15.1214 35.8089 15.3836 36.0751 15.6639H36.0376C36.7575 16.3433 37.402 17.0985 37.9597 17.9163C38.2411 18.3174 38.5005 18.7335 38.7367 19.1627C38.7968 19.2678 38.8494 19.3729 38.9057 19.4818L39.0033 19.6845C39.0569 19.7945 39.1046 19.9073 39.146 20.0224L39.2736 20.3753L39.3862 20.7507L39.6077 21.5015C39.9831 21.3363 40.3923 21.1261 40.779 20.9459L41.7963 20.4616L42.5059 20.135C42.5622 20.135 42.6297 20.0599 42.6823 20.1087C42.7349 20.1575 42.6823 20.2364 42.6823 20.2964L42.656 20.3828C42.656 20.3828 42.656 20.3828 42.656 20.4203L42.6222 20.5517L42.5547 20.8145C42.4646 21.1636 42.3707 21.5128 42.2806 21.8657C41.9507 22.9522 41.6762 24.0548 41.4585 25.1693L41.4134 25.387V25.4771V25.5297C41.4134 25.5522 41.4134 25.6048 41.3759 25.5935C41.348 25.5804 41.3227 25.5626 41.3008 25.5409L40.5913 25.1655C40.0746 24.8539 39.5407 24.5719 38.992 24.3209L37.7044 23.7014L37.3815 23.5475L37.3027 23.51H37.2764C37.2335 23.506 37.1925 23.4903 37.1581 23.4644C37.1236 23.4386 37.097 23.4036 37.0812 23.3636Z" fill="#1D1D1D"/>
<path d="M35.7973 17.725C35.8086 17.6987 35.8424 17.7062 35.7973 17.725V17.725Z" fill="#1D1D1D"/>
<path d="M37.2914 25.0868L37.2614 25.0718L37.3439 25.1882L37.2914 25.0868Z" fill="#1D1D1D"/>
<path d="M36.8221 21.3628C36.886 21.5054 36.901 21.5092 36.9122 21.4904C36.8903 21.4427 36.8598 21.3995 36.8221 21.3628Z" fill="#1D1D1D"/>
<path d="M33.8188 16.0731C33.6837 15.9717 33.7212 16.0318 33.7813 16.1181L34.0216 16.2796C33.9502 16.2157 33.8902 16.1406 33.8188 16.0731Z" fill="#1D1D1D"/>
<path d="M33.9653 16.9819H33.9052C33.9803 17.0345 33.9841 17.0195 33.9653 16.9819Z" fill="#1D1D1D"/>
</g>
<defs>
<clipPath id="clip0_1348_10285">
<rect width="39.084" height="40" fill="white" transform="translate(12 12)"/>
</clipPath>
</defs>
</svg>
